<svg width="26" height="26" viewBox="0 0 26 26" fill="none" xmlns="http://www.w3.org/2000/svg">
<path d="M5.75878 12.1284C5.68852 11.6755 5.65206 11.2116 5.65206 10.7393C5.65206 5.7447 9.72761 1.6958 14.755 1.6958C19.7824 1.6958 23.858 5.7447 23.858 10.7393C23.858 11.8675 23.6501 12.9476 23.2702 13.9435C23.1913 14.1504 23.1517 14.2538 23.1338 14.3345C23.1161 14.4145 23.1092 14.4708 23.1073 14.5528C23.1053 14.6354 23.1165 14.7265 23.139 14.9087L23.594 18.6054C23.6433 19.0056 23.668 19.2057 23.6014 19.3512C23.543 19.4787 23.4395 19.5798 23.3107 19.6352C23.1638 19.6984 22.9643 19.6691 22.5653 19.6107L18.9647 19.0829C18.7766 19.0553 18.6826 19.0415 18.5969 19.0421C18.5123 19.0425 18.4537 19.0488 18.3707 19.0662C18.287 19.0838 18.1799 19.1239 17.9659 19.2041C16.9674 19.5781 15.8853 19.7828 14.755 19.7828C14.2823 19.7828 13.818 19.7469 13.3647 19.678M7.4965 24.3045C10.8481 24.3045 13.5652 21.5209 13.5652 18.0871C13.5652 14.6533 10.8481 11.8697 7.4965 11.8697C4.14488 11.8697 1.42786 14.6533 1.42786 18.0871C1.42786 18.7773 1.53764 19.4413 1.7403 20.0616C1.82596 20.3239 1.86879 20.455 1.88286 20.5446C1.89753 20.6382 1.9001 20.6906 1.89464 20.7851C1.8894 20.8757 1.86675 20.978 1.82145 21.1826L1.13037 24.3045L4.5158 23.8421C4.70059 23.8169 4.79298 23.8043 4.87366 23.8048C4.95861 23.8054 5.0037 23.81 5.08702 23.8267C5.16614 23.8424 5.28377 23.8839 5.51902 23.9669C6.13886 24.1857 6.80415 24.3045 7.4965 24.3045Z" stroke="white" stroke-width="2.26087" stroke-linecap="round" stroke-linejoin="round"/>
</svg>
