<svg width="28" height="29" viewBox="0 0 28 29" fill="none" xmlns="http://www.w3.org/2000/svg">
<path d="M27.6271 14.4247C27.6271 10.6024 26.1776 6.93663 23.5975 4.23386C21.0174 1.53109 17.518 0.0126953 13.8692 0.0126953C10.2204 0.0126953 6.72102 1.53109 4.14092 4.23386C1.56082 6.93663 0.111328 10.6024 0.111328 14.4247C0.111328 21.6191 5.14121 27.5818 11.7193 28.6617V18.5907H8.22664V14.4247H11.7193V11.2502C11.7193 7.6395 13.772 5.64297 16.9161 5.64297C18.4203 5.64297 19.996 5.92352 19.996 5.92352V9.47078H18.2607C16.5511 9.47078 16.0191 10.5834 16.0191 11.7229V14.4247H19.8346L19.2237 18.5907H16.0191V28.6617C22.5972 27.5818 27.6271 21.6191 27.6271 14.4247Z" fill="#1877F2"/>
<path d="M19.2256 18.5898L19.8365 14.4238H16.021V11.722C16.021 10.5825 16.5529 9.46991 18.2626 9.46991H19.9979V5.92264C19.9979 5.92264 18.4222 5.64209 16.918 5.64209C13.7739 5.64209 11.7212 7.63863 11.7212 11.2493V14.4238H8.22852V18.5898H11.7212V28.6609C12.4219 28.7762 13.141 28.8357 13.8711 28.8357C14.6012 28.8357 15.3202 28.7762 16.021 28.6609V18.5898H19.2256Z" fill="white"/>
</svg>
