<svg width="28" height="29" viewBox="0 0 28 29" fill="none" xmlns="http://www.w3.org/2000/svg">
<path d="M23.6059 24.1603H19.6037V17.5973C19.6037 16.0318 19.5782 14.0181 17.5239 14.0181C15.4397 14.0181 15.1204 15.7241 15.1204 17.4836V24.1603H11.1203V10.6641H14.9607V12.5083H15.0161C15.3993 11.8193 15.9549 11.2528 16.6212 10.8693C17.2891 10.4851 18.044 10.2979 18.8054 10.3274C22.8587 10.3274 23.608 13.1216 23.608 16.7566L23.6059 24.1603ZM6.60719 8.81762C6.14787 8.81803 5.69876 8.67562 5.31676 8.40845C4.93475 8.14128 4.63706 7.76135 4.46134 7.3168C4.28464 6.87302 4.23991 6.38241 4.32932 5.91187C4.41874 5.44133 4.64014 5.00647 4.96373 4.6675C5.28731 4.32854 5.70243 4.09661 6.15161 4.00072C6.6008 3.90483 7.06913 3.95389 7.4949 4.13898C7.91894 4.32291 8.28139 4.63444 8.53642 5.03417C8.79144 5.43389 8.92758 5.90386 8.92761 6.38464C8.92761 6.70354 8.86802 7.0202 8.75094 7.31457C8.63385 7.60894 8.46353 7.87877 8.24852 8.10401C8.0335 8.32924 7.77591 8.50987 7.4949 8.6303C7.21346 8.75244 6.91183 8.81756 6.60719 8.81762ZM8.60616 24.1603H4.60183V10.6641H8.60616V24.1603ZM25.6006 0.0624578H2.59221C2.06851 0.0557677 1.5661 0.267622 1.19142 0.64896C0.81675 1.0303 0.605996 1.55436 0.599609 2.10072V26.3034C0.608014 26.85 0.822054 27.3709 1.19519 27.7531C1.56833 28.1352 2.07041 28.3475 2.59221 28.3439H25.6006C26.1239 28.3503 26.6283 28.1394 27.0035 27.7574C27.3782 27.3738 27.5932 26.852 27.5996 26.3034V2.09849C27.5932 1.5499 27.3782 1.02807 27.0035 0.6445C26.6279 0.263282 26.1236 0.0532352 25.6006 0.0602277V0.0624578Z" fill="#0A66C2"/>
</svg>
