<svg width="26" height="27" viewBox="0 0 26 27" fill="none" xmlns="http://www.w3.org/2000/svg">
<path fill-rule="evenodd" clip-rule="evenodd" d="M13.5462 1C16.7319 1.01537 19.8063 2.26621 22.1061 4.47077C24.4611 6.72857 25.8184 9.75602 25.9371 13.0164C26.053 16.2002 24.9414 19.3278 22.8331 21.7163C20.5208 24.336 17.3043 25.8405 13.8304 25.9403C13.7115 25.9437 13.5926 25.9453 13.4736 25.9453C11.6018 25.9453 9.74734 25.5233 8.06766 24.715L1.53892 26.1672C1.52398 26.1701 1.50855 26.1694 1.49392 26.1651C1.4793 26.1609 1.46589 26.1532 1.45481 26.1428C1.44373 26.1323 1.4353 26.1194 1.43021 26.105C1.42512 26.0907 1.42352 26.0753 1.42554 26.0602L2.52842 19.4587C1.58722 17.739 1.0619 15.8014 1.00526 13.8304C0.909769 10.5001 2.11682 7.33215 4.40414 4.90971C6.77565 2.39814 10.0142 1 13.4844 1H13.5462ZM13.4767 3.16417C13.3769 3.16418 13.2771 3.1656 13.1773 3.16845C7.49547 3.33145 3.00556 8.08654 3.16855 13.7684C3.21839 15.5033 3.70715 17.2063 4.58207 18.6933L4.77195 19.0155L3.95478 23.4951L8.38772 22.4487L8.7225 22.6229C10.1831 23.3829 11.8198 23.7813 13.4733 23.7813C13.5715 23.7813 13.67 23.7798 13.7682 23.777C19.4502 23.6141 23.9401 18.859 23.7771 13.1772C23.6169 7.59569 19.0251 3.16417 13.4767 3.16417ZM9.16473 7.44751C9.37316 7.45399 9.58204 7.45991 9.76424 7.4733C9.98695 7.48933 10.2335 7.50733 10.4519 8.03616C10.7112 8.66411 11.2718 10.2318 11.3453 10.3909C11.4187 10.5499 11.4652 10.7344 11.3545 10.9405C11.2437 11.146 11.1875 11.2751 11.0257 11.453C10.8636 11.6312 10.6843 11.8513 10.5394 11.9873C10.3776 12.1386 10.2094 12.3033 10.3824 12.6222C10.5553 12.9413 11.1519 13.9859 12.0568 14.8448C13.2199 15.9486 14.1525 16.3127 14.523 16.4855C14.6567 16.548 14.7677 16.5776 14.8648 16.5776C14.998 16.5776 15.1046 16.5217 15.2063 16.4187C15.4013 16.2211 15.9878 15.5366 16.2348 15.2217C16.364 15.057 16.481 14.9986 16.608 14.9986C16.7096 14.9986 16.8178 15.036 16.944 15.0864C17.2276 15.1997 18.743 16.0046 19.0512 16.1709C19.3594 16.3371 19.5655 16.422 19.6398 16.5548C19.714 16.6882 19.6947 17.3151 19.4114 18.0384C19.1281 18.7619 17.8288 19.4281 17.2533 19.4626C17.0848 19.4728 16.9191 19.4963 16.7034 19.4963C16.1819 19.4963 15.3688 19.359 13.5218 18.5635C10.3792 17.2103 8.47092 13.8849 8.32077 13.6713C8.17094 13.4574 7.09506 11.9337 7.14237 10.3924C7.18967 8.85136 8.02156 8.11837 8.31813 7.81379C8.60242 7.52171 8.92819 7.44718 9.13849 7.44718L9.16473 7.44751Z" fill="white"/>
</svg>
