<svg width="93" height="97" viewBox="0 0 93 97" fill="none" xmlns="http://www.w3.org/2000/svg">
<path d="M58.4763 6.48424C58.5992 7.00658 58.8633 7.02752 59.3626 6.88142C66.1091 4.90747 72.8684 2.97694 79.6158 1.00597C81.3658 0.494772 83.0808 -0.0789111 84.9523 0.00898255C86.8003 0.0957727 88.179 1.35893 88.382 3.21727C88.6628 5.78915 88.4391 8.36545 88.5165 10.9383C88.5262 11.26 88.4721 11.4951 88.0822 11.6049C82.0582 13.3019 76.0841 15.1659 70.1 16.9965C70.0768 17.0036 70.0502 16.9995 70.0251 17.0006C68.5307 16.4371 66.9553 16.1482 65.4428 15.6429C63.5946 15.0255 61.7125 14.5269 59.7838 14.2345C58.9174 14.1031 58.3416 13.7283 58.2757 12.7887C58.2101 10.9068 58.2586 9.02518 58.2437 7.14356C58.2516 6.89915 58.257 6.6538 58.4763 6.48424Z" fill="#D5DEE7"/>
<path d="M88.5227 61.5005C89.3791 61.3908 89.7238 62.1693 90.2235 62.5825C91.4499 63.5967 92.2724 64.9317 92.8123 66.4491C93.293 67.8002 92.7847 68.899 92.0292 69.9298C90.7547 71.6688 88.9243 72.7214 87.0767 73.7056C83.5487 75.5849 79.8703 77.1426 76.2048 78.734C71.342 80.8452 66.3414 82.5612 61.3132 84.2068C57.9481 85.3081 54.5501 86.3063 51.1399 87.2629C45.6465 88.8039 40.1521 90.3418 34.6239 91.753C31.104 92.6516 27.5826 93.5562 24.0319 94.3186C20.8031 95.0119 17.5564 95.6352 14.2793 96.0893C11.9507 96.4119 9.61698 96.6501 7.27467 96.4991C5.65094 96.3944 4.03128 96.3947 2.40901 96.3667C1.84952 96.3571 1.32775 96.1434 0.845657 95.8878C0.170043 95.5295 -0.19149 94.8027 0.103909 94.2064C0.753912 92.8942 0.957982 91.4488 1.45242 90.0935C1.64514 89.5652 1.90672 89.1434 2.54905 89.1503C3.33216 89.4371 3.87772 89.955 4.12279 90.7668C3.85757 91.501 3.23369 91.9658 2.77252 92.552C1.92761 93.626 2.10532 94.3169 3.36409 94.8709C4.10539 95.1971 4.84162 95.0425 5.57834 94.9107C6.14468 94.8094 6.72558 94.6834 7.23433 94.4368C9.07453 93.5448 11.0528 93.2946 13.0418 93.028C16.8672 92.5152 20.6438 91.7377 24.3996 90.8511C30.5427 89.4008 36.6682 87.88 42.7744 86.2833C49.8986 84.4205 57.0059 82.5003 63.9813 80.1186C70.4905 77.8959 76.7598 75.1253 82.8635 71.9741C84.4656 71.1469 86.0796 70.343 87.6768 69.5065C88.1845 69.2406 88.8203 68.9851 88.8125 68.3291C88.8048 67.6799 88.1667 67.4389 87.6641 67.1602C87.3816 67.0037 87.0584 66.9111 86.845 66.6444C86.7998 66.5184 86.8172 66.3913 86.8812 66.2832C87.7152 64.8762 88.062 63.3234 88.2536 61.7231C88.3078 61.606 88.3955 61.5292 88.5227 61.5005Z" fill="#E8E7E7"/>
<path d="M68.0818 17.6174C68.3876 18.249 68.9228 18.5438 69.573 18.3672C70.5672 18.0971 71.3227 18.1932 71.9588 19.1319C72.7384 20.2824 73.8653 21.1596 74.6579 22.3107C74.9678 22.7608 75.2174 23.2504 75.649 23.6108C75.9662 23.8757 75.9556 24.2193 75.7928 24.5645C75.6637 24.8386 75.534 25.1074 75.6206 25.4322C75.7199 25.3312 75.8164 25.233 75.9129 25.1349C76.0138 25.2525 76.058 25.392 76.0841 25.5428C76.2183 26.3184 76.2754 26.3467 76.9145 25.9212C77.4147 25.5882 77.8736 25.2067 78.2732 24.7528C78.4774 24.5208 78.6647 24.1143 79.0231 24.268C79.3566 24.4111 79.255 24.8376 79.257 25.1514C79.2673 26.6989 79.2613 28.2465 79.2617 29.7941C79.2618 30.0188 79.2415 30.2457 79.2668 30.4675C79.3003 30.7613 79.1159 31.2229 79.5805 31.2592C79.9856 31.2908 80.4499 31.192 80.5293 30.627C80.5502 30.4781 80.5826 30.3309 80.7179 30.2353C81.0545 29.8142 81.3901 30.2478 81.7267 30.2464C82.3755 30.2436 83.1049 30.0328 83.5396 30.7835C83.5578 30.8149 83.6414 30.8403 83.6762 30.8255C84.7948 30.3503 86.0102 31.1549 87.1344 30.5432C87.5804 30.3005 87.8986 30.1085 87.9475 29.5208C88.0033 28.8489 88.2595 28.1966 88.2743 27.5003C88.3554 27.5083 88.4365 27.5163 88.5176 27.5243C88.5176 36.9962 88.5176 46.4681 88.5176 55.94C88.0134 55.8101 88.1833 55.3821 88.1789 55.0785C88.1545 53.4021 88.171 51.7252 88.1645 50.0485C88.1633 49.7534 88.2195 49.4489 88.0775 49.1442C86.8917 50.0367 85.5577 49.604 84.3538 49.3906C83.0863 49.166 81.971 48.465 81.2648 47.2161C80.2804 45.4752 79.6322 43.6221 79.117 41.7092C78.0418 37.7166 76.6892 33.8384 74.8935 30.0947C73.3808 26.9409 71.4578 24.0574 69.6 21.1223C69.4649 20.9089 69.2918 20.7293 69.1106 20.5567C68.8873 20.2179 68.8903 19.7997 68.7086 19.4399C68.2316 18.4948 67.7913 18.3448 66.8691 18.8602C66.7385 18.9332 66.6151 19.0189 66.4558 19.0132C66.2935 18.9588 66.2119 18.8404 66.1875 18.6762C66.3081 18.0471 66.8573 17.8903 67.3249 17.6423C67.575 17.5755 67.8228 17.4111 68.0818 17.6174Z" fill="#E2E8EE"/>
<path d="M69.1302 20.4661C69.3849 20.4697 69.5486 20.6234 69.6723 20.8188C71.0063 22.9255 72.4605 24.9678 73.6415 27.1573C75.8711 31.2907 77.6928 35.6067 78.9121 40.1632C79.4648 42.2288 80.0077 44.2968 80.9459 46.2476C81.6631 47.7388 82.7231 48.7287 84.2779 49.2345C84.5003 49.3068 84.716 49.3171 84.9401 49.3265C85.5611 49.3525 86.1808 49.2803 86.8031 49.4486C87.2118 49.5591 87.5851 49.3733 87.8031 48.9626C87.8678 48.8407 87.8994 48.6351 88.0854 48.664C88.2899 48.6957 88.3215 48.9121 88.3509 49.0742C88.3863 49.2687 88.3707 49.4732 88.3709 49.6733C88.3723 51.5012 88.3684 53.3291 88.3769 55.157C88.3782 55.4211 88.2813 55.7138 88.5179 55.9398C88.5195 57.7933 88.521 59.6469 88.5226 61.5005C88.4729 61.5513 88.4233 61.6022 88.3736 61.6531C88.116 61.417 88.1875 61.0986 88.1596 60.8051C88.2006 60.0485 88.0495 59.2724 88.301 58.6469C88.1785 59.9423 87.1023 60.1532 85.9841 60.3119C85.6888 60.3539 85.3893 60.3514 85.0957 60.4122C84.1454 60.6093 84.0235 60.5452 83.6106 59.6661C83.4733 59.3739 83.3442 59.0768 83.1426 58.8203C83.0263 58.6621 82.9575 58.4846 82.9322 58.2906C82.911 57.8142 82.725 57.4145 82.3693 57.094C82.1361 56.8428 81.9967 56.5379 81.8668 56.2269C80.9361 54.5699 79.8724 52.9938 78.8063 51.4279C77.3312 49.2612 76.6784 46.8977 76.5842 44.3096C76.4153 39.6657 75.4305 35.2223 73.4456 30.9796C72.2039 28.3256 70.8343 25.7489 69.4398 23.179C69.2112 22.7578 68.9311 22.379 68.6406 22.0031C68.5853 21.4214 68.6885 20.8897 69.1302 20.4661Z" fill="#D3DBE5"/>
<path d="M2.9873 22.2635C4.1301 20.1536 5.89231 18.7545 8.159 18.0978C19.0507 14.942 29.9567 11.8358 40.8579 8.71277C45.2275 7.46098 49.6093 6.24995 53.9595 4.93403C55.0747 4.5967 55.95 4.74649 56.8015 5.44933C57.0637 5.72538 57.674 5.78335 57.5896 6.23973C57.4889 6.78426 56.8854 6.93208 56.4238 7.0666C54.5975 7.59876 52.7588 8.08935 50.9326 8.62195C44.9719 10.3603 38.9817 11.9941 33.0056 13.6775C27.6079 15.1979 22.2131 16.7283 16.8153 18.2484C14.9114 18.7846 13.0052 19.3135 11.1032 19.8569C9.69243 20.26 8.35598 20.8004 7.32009 21.6799C9.36978 20.3889 11.8168 19.8113 14.2307 19.1451C14.4256 19.0913 14.6276 19.0852 14.8142 19.1941C14.9615 19.6799 14.5197 19.626 14.2979 19.7065C13.0758 20.1497 11.8076 20.4462 10.5719 20.8504C8.23542 21.6146 6.48119 23.0928 5.16781 25.1415C4.97049 25.4493 4.80102 26.0464 4.3574 25.7924C3.99309 25.5838 4.38234 25.1198 4.52143 24.7902C4.65741 24.468 4.83803 24.1652 4.98163 23.8457C5.18419 23.3951 5.33129 22.9388 4.89151 22.5361C4.46608 22.1465 4.01098 21.8545 3.41007 22.1901C3.28122 22.2621 3.14569 22.3409 2.9873 22.2635Z" fill="#5FD6FD"/>
<path d="M4.04774 90.6455C3.54835 90.1472 3.04895 89.6488 2.54954 89.1504C1.67971 87.9012 1.2919 86.5266 1.29395 84.9941C1.31202 71.5012 1.30558 58.0081 1.30823 44.5152C1.30828 44.316 1.33209 44.1169 1.34485 43.9177C1.83792 44.0925 1.68248 44.5253 1.68872 44.8617C1.75221 48.2847 1.71035 51.7081 1.71862 55.1314C1.72162 56.3787 1.70058 57.6135 2.083 58.838C2.39467 59.8358 2.45713 60.9077 2.54579 61.945C2.73418 64.1484 3.51557 66.2294 3.75796 68.4147C3.84313 68.8605 3.82286 69.3118 3.82296 69.7617C3.82429 75.091 3.845 80.4203 3.81251 85.7494C3.80086 87.6604 4.2547 89.3599 5.596 90.7686C5.71695 90.8956 5.81667 91.0408 5.87131 91.2106C5.90644 91.3549 5.85973 91.4539 5.71104 91.4943C5.35084 91.5163 5.08581 91.2776 4.77963 91.151C4.62902 91.0738 4.47786 90.9962 4.32784 90.9165C4.2042 90.8577 4.12085 90.7569 4.04774 90.6455Z" fill="#0055C7"/>
<path d="M2.98791 22.2634C3.85881 21.6128 4.10879 21.6273 5.06577 22.4101C5.68923 22.9202 5.37934 23.4712 5.11886 24.0147C4.85223 24.5711 4.5826 25.1259 4.26479 25.7839C4.57408 25.7589 4.67603 25.6333 4.75369 25.4922C5.48247 24.1679 6.45554 23.0759 7.65808 22.1441C8.99537 21.1078 10.5485 20.637 12.1195 20.1713C13.0438 19.8973 13.9883 19.6852 14.8636 19.2634C15.0914 18.9123 15.482 18.8491 15.8347 18.7514C20.0995 17.5688 24.3509 16.3387 28.6074 15.1275C33.5375 13.7247 38.4768 12.3549 43.4112 10.9682C46.6607 10.055 49.9111 9.14246 53.1728 8.27328C54.5747 7.89971 55.9449 7.41174 57.3668 7.11585C57.7176 7.04284 58.0844 6.84263 58.4451 7.106C58.4655 9.0634 58.4858 11.0208 58.5062 12.9782C58.4647 12.9824 58.4233 12.9866 58.3818 12.9909C58.0178 12.7553 58.1031 12.3753 58.0982 12.04C58.0817 10.9159 58.1035 9.79141 58.0874 8.66735C58.0775 7.97213 57.9712 7.89268 57.2767 7.98578C55.957 8.1627 54.7129 8.63974 53.4336 8.97466C49.1843 10.0871 44.9561 11.2789 40.7117 12.4104C40.3254 12.5134 39.9479 12.6437 39.5793 12.7987C36.5863 13.6069 33.6054 14.4597 30.626 15.3172C25.7713 16.7146 20.8851 18.0003 16.0477 19.4591C14.133 20.0366 12.1496 20.4484 10.3986 21.4458C7.36774 23.1722 5.5483 25.7397 5.12951 29.2719C4.89021 31.2906 5.14489 33.3201 4.86455 35.335C4.72597 36.3311 4.94418 37.3253 5.12146 38.3106C4.62163 38.7774 4.08618 38.867 3.50326 38.4653C3.33253 38.1674 3.34983 37.8373 3.34947 37.5133C3.34767 35.9858 3.33915 34.4583 3.35106 32.9319C3.41203 32.0381 3.38871 31.1421 3.37157 30.2469C3.35101 29.1738 3.39299 28.1105 3.63278 27.0573C3.97894 25.537 3.28303 24.8158 1.79004 25.1207C1.97324 24.0777 2.42239 23.1461 2.98791 22.2634Z" fill="#44BFFD"/>
<path d="M3.57057 32.7906C3.58345 34.6984 3.59634 36.6062 3.60925 38.514C3.932 38.9452 3.7925 39.4425 3.81118 39.9175C3.86253 43.1699 3.82989 46.4222 3.82802 49.6746C3.82789 49.9002 3.80469 50.1248 3.70425 50.333C3.1667 50.7215 2.7638 50.5995 2.49339 49.8929C2.19773 49.1203 2.14343 48.2887 1.99377 47.4795C1.00895 42.1546 1.55138 36.7773 1.40895 31.4239C1.4011 31.1285 1.47557 30.825 1.34452 30.5379C1.27318 29.4366 1.2734 28.3358 1.37035 27.2358C1.60457 27.253 1.6638 27.4471 1.65269 27.6079C1.58974 28.5194 2.17159 29.113 2.75099 29.6313C3.3529 30.1697 3.59118 30.7498 3.52384 31.5327C3.4883 31.9459 3.4429 32.376 3.57057 32.7906Z" fill="#0179E2"/>
<path d="M58.445 7.10601C54.792 7.92122 51.2235 9.04944 47.6163 10.0342C42.8766 11.3282 38.1479 12.6631 33.4187 13.9952C28.0702 15.5018 22.7263 17.0245 17.3806 18.5411C16.5409 18.7793 15.7024 19.0225 14.8634 19.2634C14.0263 19.2888 13.2575 19.611 12.475 19.8481C10.6186 20.4106 8.7104 20.8652 7.13578 22.1006C6.99602 22.2102 6.80745 22.3648 6.6901 22.1698C6.5595 21.9528 6.81792 21.8177 6.95652 21.6989C8.236 20.6019 9.75621 20.0084 11.3595 19.562C14.4532 18.7008 17.5332 17.7901 20.6254 16.9234C24.699 15.7816 28.7817 14.6719 32.8556 13.5311C36.9035 12.3976 40.9454 11.2432 44.9897 10.097C47.4578 9.39758 49.9353 8.72926 52.3895 7.98394C53.928 7.51668 55.532 7.26996 57.0053 6.57015C57.5774 6.29841 57.7087 6.13045 57.0973 5.78001C56.9755 5.71026 56.8992 5.56147 56.8019 5.44922C57.4019 5.72637 58.0622 5.90606 58.4763 6.48421C58.4659 6.69146 58.4555 6.89873 58.445 7.10601Z" fill="#8BE5FE"/>
<path d="M1.34465 30.5378C1.57117 30.7684 1.47766 31.0597 1.47832 31.3244C1.48597 34.3541 1.54597 37.3854 1.46505 40.4129C1.4078 42.5548 1.72835 44.6311 2.13323 46.7129C2.30845 47.6138 2.37455 48.537 2.56987 49.4326C2.67547 49.9168 2.74265 50.585 3.56465 50.3812C3.87175 50.6467 3.83339 51.015 3.83393 51.3587C3.84257 56.7189 3.8426 62.0791 3.8339 67.4392C3.83334 67.7828 3.87185 68.1513 3.56393 68.4163C3.31131 66.323 2.56182 64.3352 2.34043 62.2209C2.1872 60.7576 2.15278 59.2371 1.55438 57.8334C1.45294 57.5955 1.4882 57.2923 1.48792 57.0193C1.48369 52.9388 1.48648 48.8583 1.47835 44.7778C1.47778 44.4899 1.58688 44.1727 1.34442 43.9176C1.33133 40.8276 1.3126 37.7377 1.30775 34.6477C1.30557 33.2777 1.33148 31.9078 1.34465 30.5378Z" fill="#0062D0"/>
<path d="M68.0818 17.6173C67.8271 17.6654 67.5725 17.7135 67.3178 17.7617C66.7828 17.7702 66.4847 17.347 66.1253 17.0671C65.6181 16.6721 65.2225 16.6425 64.78 17.1614C64.5162 17.4708 64.2584 17.8598 63.7526 17.8309C62.3877 17.4511 60.978 17.2568 59.6262 16.8291C59.1828 16.6888 58.6954 16.6266 58.3643 16.2376C58.2955 16.1185 58.268 15.9887 58.257 15.8535C58.2268 15.1621 58.2574 14.4706 58.2287 13.7794C58.2166 13.4874 58.2075 13.1809 58.4354 12.9412C58.4562 12.9584 58.4796 12.9706 58.5056 12.9781C58.5583 13.6268 58.9656 13.9088 59.5602 13.9872C63.0028 14.4407 66.2125 15.7929 69.5684 16.5816C69.7814 16.6316 70.0117 16.7107 70.025 17.0007C69.3436 17.1005 68.7177 17.3746 68.0818 17.6173Z" fill="#BEC7D2"/>
<path d="M80.7181 30.2352C80.5724 30.6515 80.9968 31.2542 80.0991 31.418C79.0706 31.6056 79.0884 31.7267 79.087 30.6836C79.084 28.5638 79.086 26.444 79.086 24.1533C78.1145 25.2436 77.2441 26.2206 75.9031 26.668C75.8599 26.1153 75.813 25.6262 75.9132 25.1348C77.3323 24.4977 78.1972 23.2958 78.9197 22.0137C79.2977 21.3431 79.8942 21.3761 80.4385 21.2717C80.8167 21.1992 80.6704 21.6353 80.6717 21.8395C80.6865 24.1388 80.68 26.4383 80.6843 28.7378C80.6852 29.2369 80.7063 29.736 80.7181 30.2352Z" fill="#031654"/>
<path d="M3.57048 32.7908C3.30513 32.2963 3.44876 31.7622 3.4532 31.2506C3.45726 30.7828 3.34791 30.4014 2.96428 30.1464C2.40882 29.7773 2.16431 29.1313 1.65273 28.7296C1.40945 28.5386 1.51269 28.2724 1.48564 28.0338C1.45536 27.7667 1.56209 27.4799 1.37024 27.2361C1.35209 26.4997 1.56196 25.8086 1.78966 25.121C2.17078 24.6001 2.54753 24.5366 3.09147 24.9742C4.15045 25.8263 4.19136 25.8014 3.8481 27.1172C3.46278 28.5942 3.62753 30.0965 3.59001 31.5899C3.57992 31.9901 3.57679 32.3905 3.57048 32.7908Z" fill="#109AF5"/>
<path d="M4.04699 90.6455C4.15359 90.681 4.26019 90.7166 4.36677 90.7522C4.55937 91.0683 4.42392 91.3272 4.21593 91.5659C3.95304 91.8675 3.69344 92.1723 3.47344 92.5062C3.0554 93.1406 3.14085 93.6127 3.78138 94.0304C4.40231 94.4354 5.06971 94.6751 5.83782 94.5028C7.10695 94.2182 8.36805 93.9183 9.48811 93.2146C10.0348 92.8607 10.6708 92.7154 11.2576 92.4541C12.4402 92.0152 13.6277 91.5923 14.8725 91.3574C16.4901 91.0405 18.1017 90.6913 19.6961 90.2797C31.6909 87.1832 43.746 84.3134 55.6408 80.8399C60.7576 79.3457 65.8043 77.6275 70.7803 75.7091C70.9454 75.6455 71.1104 75.5895 71.2174 75.4362C72.3911 74.9114 73.6359 74.5396 74.7173 73.8145C75.3367 73.4893 75.8459 72.976 76.5248 72.7512C79.2985 71.6817 82.2102 71.0391 84.9958 70.0066C85.3007 69.8935 85.6102 69.7934 85.9029 69.6496C86.8065 69.2053 86.9008 68.9645 86.5454 67.9981C86.394 67.473 86.2518 66.9493 86.8731 66.6067C87.5584 66.8496 88.2141 67.1324 88.7506 67.656C89.2202 68.1143 89.2719 68.5274 88.7762 68.9944C88.5191 69.2365 88.2566 69.4529 87.9374 69.6141C84.7433 71.2275 81.597 72.9435 78.3515 74.4452C74.2984 76.3207 70.2213 78.1438 65.9937 79.6278C58.9242 82.1095 51.7265 84.1358 44.485 86.0317C39.5676 87.319 34.6477 88.5952 29.7063 89.7861C26.1972 90.6319 22.6954 91.5233 19.1573 92.2285C16.7744 92.7034 14.3736 93.144 11.9445 93.3719C10.3978 93.517 8.93825 93.9709 7.48781 94.54C6.27983 95.014 5.02077 95.4939 3.64989 95.186C3.31841 95.1116 3.05073 94.9589 2.78022 94.7748C1.78185 94.0953 1.70635 93.5772 2.45087 92.6208C2.97107 91.9526 3.62546 91.393 4.04699 90.6455Z" fill="#D1D0CF"/>
<path d="M86.873 66.6069C86.594 67.0283 86.4832 67.469 86.7193 67.9494C85.9881 68.0803 85.4498 68.5286 84.9436 69.0306C84.1026 69.7201 83.1401 70.1858 82.119 70.5282C81.0086 70.9005 79.878 71.2105 78.7705 71.593C78.5363 71.6739 78.2962 71.7623 78.0463 71.6385C77.8339 71.2737 78.1615 71.107 78.3339 70.8989C79.2066 69.8465 80.0817 68.7988 80.8769 67.6825C81.6796 66.5558 82.28 65.3427 82.6975 64.0304C83.0584 62.3082 83.0642 60.6107 82.3454 58.9667C82.2352 58.7144 82.0964 58.4755 82.044 58.2017C81.7589 56.8133 80.8963 55.7841 79.8557 54.9236C78.7449 54.0051 77.5015 53.2591 76.2769 52.4959C75.9186 52.2726 75.5347 52.0744 75.3979 51.6255C75.2866 51.2616 75.1028 50.9319 74.8943 50.6208C73.7552 48.9214 73.6068 47.0351 73.7944 45.0697C73.944 43.5016 74.1202 41.9348 74.1697 40.3586C74.1832 39.9289 74.1461 39.5056 73.8742 39.1425C73.7901 38.1675 73.9428 37.1966 73.9279 36.2231C73.9125 36.1108 73.9024 35.9975 73.8922 35.8849C73.8373 35.3619 73.4887 35.0032 73.1773 34.6271C72.9892 34.3998 72.771 34.195 72.7555 33.873C72.6088 32.9759 72.2443 32.15 71.8775 31.3332C70.6624 28.6273 69.3585 25.9632 68.0254 23.3126C68.0257 23.0477 68.1035 22.8412 68.4073 22.8049C68.6316 22.8547 68.7374 23.0284 68.8006 23.2204C69.4391 25.1603 70.6275 26.8283 71.4898 28.6581C71.9693 29.6757 72.5426 30.6486 72.8101 31.7559C72.8938 32.1022 73.1004 32.3931 73.2906 32.6855C74.4251 34.4297 74.9503 36.3586 75.0365 38.4196C75.1117 40.2166 75.2665 42.0113 75.1963 43.8129C75.1605 44.7313 74.8514 45.6644 75.186 46.5661C76.0138 48.7967 77.0326 50.9335 78.6347 52.7283C79.0976 53.2469 79.7306 53.5906 80.2627 54.0482C80.9974 54.6801 81.5368 55.4453 82.0566 56.2391C82.2094 56.4891 82.2685 56.7953 82.509 56.9926C82.7635 57.3655 82.93 57.7822 83.1086 58.193C83.1149 58.3589 83.0856 58.5368 83.2606 58.6462C83.6816 59.5804 83.9642 60.5579 84.2044 61.5522C84.3817 62.286 84.6119 62.4266 85.2521 62.1026C85.8909 61.7794 86.5226 61.5447 87.2469 61.5817C87.5506 61.5972 87.7456 61.4041 87.898 61.1504C88.0058 60.9708 88.0653 60.7112 88.3675 60.7511C88.3694 61.0518 88.3713 61.3525 88.3733 61.6532C88.3629 63.4527 87.8581 65.1025 86.873 66.6069Z" fill="#C1CDDA"/>
<path d="M68.3677 22.8636C68.2728 23.018 68.1778 23.1724 68.0828 23.3268C67.7011 24.7599 68.4836 25.9094 68.9973 27.1288C69.2829 27.8068 69.7321 28.4373 69.6711 29.2287C69.6007 29.3807 69.4694 29.4672 69.3143 29.4534C67.6818 29.308 66.2822 30.172 64.7632 30.5159C64.0894 30.6685 63.4262 30.9121 62.7485 31.0702C62.1062 31.22 61.5904 31.5625 61.1003 31.9708C60.6912 31.8542 60.559 31.4709 60.3541 31.169C58.591 28.5705 56.2306 26.8463 53.1343 26.1693C52.6845 26.071 52.2413 26.0807 51.7918 26.0827C48.4255 25.8663 45.4946 27.0826 42.7276 28.8347C40.8332 30.0746 39.2353 31.6137 38.0051 33.5234C37.4693 34.3304 37.0166 35.1831 36.5854 36.049C36.448 36.3248 36.3686 36.6746 35.9778 36.7363C35.564 36.4118 35.8199 36.0595 35.9491 35.7261C36.431 34.4828 36.4345 34.4879 35.1417 34.401C34.8371 34.3806 34.5347 34.4008 34.2511 34.4866C32.8634 34.9066 31.4407 35.1723 30.018 35.4223C29.0397 35.5943 28.4262 36.1799 27.9121 36.9553C27.7294 37.2309 27.6399 37.6284 27.1917 37.6295C26.9618 37.3728 27.092 37.1092 27.1899 36.8567C28.7666 32.7897 30.8331 29.0305 33.8114 25.7849C37.1032 22.1976 41.0066 19.5875 45.649 18.154C51.4856 16.3517 57.1093 16.8198 62.4105 20.0143C62.4533 20.0401 62.4954 20.0672 62.5384 20.0927C63.7494 20.8119 64.2998 20.7279 65.302 19.7423C65.6242 19.4255 65.853 18.9401 66.4203 18.9611C66.7585 18.7709 66.9992 18.4296 67.4226 18.3663C68.2378 18.2445 68.9676 18.9413 69.1236 20.0227C69.1445 20.1678 69.1288 20.3181 69.13 20.466C68.9801 20.9675 68.8301 21.469 68.6802 21.9705C68.7842 22.341 68.6061 22.6128 68.3677 22.8636Z" fill="#D7E5F6"/>
<path d="M66.4202 18.9612C65.9678 19.3905 65.5147 19.819 65.0633 20.2493C64.44 20.8434 63.6273 20.9556 62.8861 20.4992C60.3967 18.9662 57.7349 17.8996 54.8298 17.4852C52.3853 17.1365 49.9664 17.3278 47.5667 17.8624C43.0003 18.8796 39.0906 21.0854 35.6434 24.2356C31.6733 27.8636 29.1135 32.3617 27.2151 37.3046C27.1808 37.3937 27.1971 37.5022 27.1897 37.6017C27.3334 37.9098 27.1864 38.1909 27.0983 38.4719C26.3597 40.8265 25.8984 43.229 25.9067 45.7031C25.9101 46.7189 25.4419 47.41 24.6118 47.9133C23.6917 48.3222 22.7703 48.7301 21.8459 49.1311C21.6228 49.2279 21.397 49.3521 21.1468 49.1995C21.0433 49.0608 21.0365 48.9114 21.0972 48.7544C21.6723 48.2074 22.4545 48.0732 23.1361 47.7378C23.8219 47.4004 24.559 47.1374 24.9501 46.4022C25.1511 45.5376 24.9162 44.6531 25.0757 43.788C25.2447 42.6568 25.2307 41.5018 25.519 40.3868C25.6906 39.7287 25.7982 39.0549 25.9871 38.4009C26.2275 37.777 26.3969 37.1294 26.5932 36.4912C26.8474 35.6644 26.6821 35.2803 25.988 34.7759C25.5931 34.489 25.092 34.3359 24.8252 33.8812C24.7017 33.3481 25.0545 32.9317 25.1732 32.4579C26.8886 28.6356 29.1852 25.2094 32.2295 22.3191C33.804 20.8241 35.4472 19.3982 37.3565 18.3229C39.3548 17.0628 41.5283 16.1869 43.7451 15.4036C45.1598 15.0171 46.5832 14.6858 48.0623 14.6962C48.711 14.7088 49.3616 14.6689 50.0087 14.7211C50.3229 14.7465 50.6042 14.7977 50.3621 15.2742C50.0853 15.8189 50.5951 15.9004 50.9344 15.9687C51.6682 16.1164 52.4248 16.109 53.1682 16.1539C55.0645 16.2685 56.854 16.7655 58.6074 17.4464C58.724 17.4917 58.8399 17.5371 58.9649 17.5515C60.1152 18.0133 61.126 18.7179 62.153 19.394C62.1955 19.4186 62.2364 19.4463 62.2771 19.4743C63.8856 20.5778 63.9467 20.5679 65.2789 19.1818C65.5471 18.9028 65.8021 18.5716 66.262 18.6074C66.3147 18.7253 66.3674 18.8433 66.4202 18.9612Z" fill="#FBFCFD"/>
<path d="M66.2621 18.6073C65.8169 18.8507 65.4697 19.2147 65.1513 19.5918C64.236 20.6758 63.8778 20.7365 62.6877 19.9399C62.4871 19.8057 62.2765 19.6865 62.0705 19.5603C61.9855 19.1624 62.3096 18.9845 62.5318 18.7867C62.9494 18.4151 63.3373 17.9943 63.8732 17.7764C64.2512 17.4199 64.6477 17.0806 65.001 16.7011C65.2524 16.4312 65.4702 16.391 65.7634 16.6143C66.2758 17.0044 66.7993 17.38 67.3181 17.7617C66.9724 18.0515 66.5129 18.1992 66.2621 18.6073Z" fill="#526A94"/>
<path d="M68.3675 22.8636C68.348 22.5227 68.5485 22.2586 68.6799 21.9705C69.1492 22.0074 69.2523 22.4334 69.4236 22.7355C71.3966 26.2138 73.2813 29.7412 74.7161 33.4802C75.637 35.8799 76.2262 38.3714 76.5121 40.9399C76.746 43.041 76.7237 45.1677 77.1135 47.2487C77.4571 49.0826 78.5165 50.5892 79.5104 52.1163C80.2585 53.2657 81.0063 54.4154 81.7586 55.5621C81.8968 55.7728 82.038 55.9777 82.0565 56.239C81.0402 55.0117 79.8638 53.9689 78.6116 52.9771C77.2063 51.8641 76.7073 50.0948 75.8146 48.608C75.1483 47.4983 74.6964 46.3423 74.867 45.0716C75.055 43.6722 74.9975 42.2787 74.9746 40.8862C74.9505 39.4222 74.8559 37.9507 74.6537 36.5017C74.5425 35.7044 74.2191 34.9115 73.8626 34.1792C73.2655 32.9527 72.6427 31.7496 72.1285 30.475C71.4985 28.9132 70.6793 27.4176 69.8081 25.9569C69.3303 25.1559 68.915 24.2883 68.6654 23.3672C68.6128 23.1728 68.5446 22.9855 68.3675 22.8636Z" fill="#C7CED7"/>
<path d="M88.3677 60.751C88.0682 61.6936 87.4026 61.9303 86.4778 61.8177C85.8848 61.7454 85.5127 62.3579 84.9188 62.4542C84.4495 62.5302 84.2266 62.499 84.1116 62.02C83.8408 60.8923 83.5459 59.7704 83.2607 58.6461C83.3226 58.7222 83.3977 58.7909 83.4445 58.8753C84.3254 60.4664 84.3165 60.4216 86.1049 60.0953C87.124 59.9094 88.0182 59.6831 88.3677 58.5032C88.3677 59.2524 88.3677 60.0017 88.3677 60.751Z" fill="#C7CED7"/>
<path d="M83.1094 58.193C82.8104 57.8424 82.6227 57.4362 82.5098 56.9927C82.9063 57.2946 83.0816 57.7069 83.1094 58.193Z" fill="#C7CED7"/>
<path d="M3.56436 68.4163C3.56467 62.4046 3.565 56.3929 3.56518 50.3812C3.57088 47.2446 3.57616 44.1081 3.58327 40.9715C3.58412 40.5983 3.59497 40.2251 3.60118 39.8519C4.00285 39.5977 4.38373 39.2042 4.89252 39.6593C5.14311 41.4803 5.04161 43.3058 4.94602 45.1295C4.92246 45.579 4.87886 46.0274 4.87886 46.4784C4.87933 59.2988 4.87504 72.1191 4.88525 84.9394C4.88638 86.3451 4.94713 87.7631 5.80043 88.9762C6.6392 90.1686 7.7527 90.9682 9.22207 91.2081C10.0329 91.3405 10.8781 91.3217 11.6212 91.7519C11.8719 91.9928 11.6344 92.0955 11.4799 92.1967C10.268 92.9911 7.22325 92.7775 6.11581 91.8262C5.98124 91.7106 5.86065 91.5863 5.83884 91.398C4.14286 89.7727 3.53675 87.7811 3.56333 85.4486C3.62805 79.7719 3.57185 74.0938 3.56436 68.4163Z" fill="#47B9FD"/>
<path d="M5.83813 91.398C7.70094 92.7913 9.68279 92.7534 11.7335 91.8884C11.8704 91.6416 12.1259 91.5971 12.3625 91.5255C18.6756 89.6143 24.9548 87.5931 31.2722 85.6959C32.0145 85.4729 32.7104 85.117 33.4674 84.9374C34.4348 84.8006 35.3131 84.3645 36.2454 84.1104C36.6978 83.9871 37.1331 83.784 37.6168 83.7981C38.0443 84.0031 38.5501 83.456 38.9504 83.9346C38.8433 84.3291 38.4888 84.3375 38.1856 84.426C36.8253 84.8233 35.4707 85.239 34.1249 85.6829C28.53 87.4729 22.9192 89.2122 17.2832 90.8689C16.4745 91.1066 15.6555 91.3116 14.8463 91.5497C13.6194 91.8019 12.4573 92.2726 11.2575 92.6161C10.4119 92.818 9.61604 93.1711 8.78792 93.4286C7.69116 93.7696 6.78143 93.4565 5.95276 92.7467C5.52862 92.3834 5.45643 91.9095 5.52813 91.3907C5.63145 91.3931 5.73479 91.3956 5.83813 91.398Z" fill="#596872"/>
<path d="M5.52807 91.3907C5.75423 92.6055 6.53444 93.2394 7.71599 93.3525C8.57024 93.4343 9.36033 93.0423 10.1761 92.8491C10.5352 92.7641 10.8678 92.5601 11.2575 92.6161C10.7046 92.863 10.1516 93.1098 9.59869 93.3567C8.82106 93.6914 8.02879 93.9895 7.21101 94.2066C6.26227 94.4585 5.38046 94.3232 4.6092 93.6698C3.93261 93.0967 3.80284 92.5252 4.24138 91.7533C4.39484 91.4832 4.43334 91.1152 4.78573 90.98C5.03317 91.1169 5.28063 91.2538 5.52807 91.3907Z" fill="#989797"/>
<path d="M4.78571 90.9801C4.61816 91.33 4.53993 91.7044 4.306 92.0459C4.05366 92.4142 4.09562 92.8863 4.46149 93.2677C5.22012 94.0584 6.13719 94.2948 7.17564 94.0424C7.9907 93.8443 8.79155 93.5876 9.59868 93.3569C8.23378 94.2481 6.68225 94.6568 5.10563 94.7682C4.40405 94.8177 3.59679 94.3884 3.13056 93.7067C2.80182 93.226 3.04567 92.7878 3.32382 92.3331C3.65417 91.7931 4.34428 91.4899 4.36669 90.7524C4.50639 90.8283 4.64605 90.9042 4.78571 90.9801Z" fill="#C3C2C1"/>
<path d="M5.09718 38.2119C4.50307 37.9228 4.68132 37.2749 4.69798 36.8973C4.83381 33.8166 4.46068 30.6918 5.23663 27.6632C6.13297 24.1645 8.42282 21.8354 11.7619 20.601C15.3443 19.2767 19.0592 18.3645 22.7304 17.3205C26.6405 16.2086 30.5545 15.1104 34.4697 14.0163C36.1477 13.5474 37.8329 13.104 39.5149 12.649C42.0175 11.9314 44.5447 11.3098 47.0744 10.6969C48.095 10.4497 49.1278 10.275 50.1645 10.12C50.8983 10.0102 51.5641 10.2403 52.1338 10.6718C53.3474 11.5912 54.7161 12.1752 56.1481 12.6382C56.7481 12.8322 57.2831 13.1188 57.7743 13.5316C58.2659 13.9447 58.4888 14.4037 58.3582 15.0304C57.9576 15.3704 57.5328 15.1266 57.1472 15.0323C55.714 14.6817 54.2999 14.2574 52.849 13.9729C47.9686 13.016 43.1093 13.28 38.3593 14.5858C34.6149 15.6152 31.1015 17.2252 27.964 19.6364C25.6266 21.4327 23.0539 22.8987 20.3254 24.075C18.2581 24.9662 16.5027 26.3521 14.8768 27.8867C12.0304 30.5732 9.82586 33.7539 7.88145 37.1273C7.79404 37.279 7.7188 37.4379 7.60039 37.5703C6.79706 37.9041 6.03807 38.4136 5.09718 38.2119Z" fill="#0198FE"/>
<path d="M58.2967 15.0509C58.3923 13.8445 57.4436 13.4349 56.6262 13.047C55.7317 12.6225 54.7576 12.3691 53.844 11.9575C53.312 11.7178 52.8011 11.4454 52.3752 11.0854C51.5213 10.3637 50.5944 10.1861 49.5325 10.4022C46.3954 11.0408 43.2601 11.6853 40.1745 12.5488C39.9622 12.6082 39.7356 12.6168 39.5156 12.6489C41.0985 11.958 42.8023 11.6705 44.4482 11.1931C47.4878 10.3117 50.5462 9.49218 53.61 8.69814C54.8615 8.37379 56.0805 7.92606 57.365 7.72163C58.1635 7.59455 58.3027 7.67972 58.3055 8.46882C58.3101 9.7206 58.3055 10.9724 58.3147 12.2241C58.3165 12.466 58.2374 12.7295 58.4363 12.9411C58.4323 13.9454 58.4284 14.9497 58.4245 15.9541C58.3342 15.9919 58.2651 15.9682 58.2165 15.8832C58.0839 15.5905 58.0962 15.3116 58.2967 15.0509Z" fill="#17A6FE"/>
<path d="M5.09724 38.2119C5.89824 37.9631 6.69927 37.7144 7.50025 37.4656C7.93456 37.1036 8.4699 36.9754 8.99498 36.8301C10.6932 36.3603 12.39 35.8859 14.0686 35.3493C15.4164 34.9163 16.7829 34.5469 18.1443 34.1598C18.8522 33.9953 19.5508 33.7979 20.2347 33.55C20.5264 33.4451 20.8159 33.308 21.1311 33.4702C21.336 33.9108 21.0156 34.329 21.0752 34.7644C20.9737 34.9454 20.8069 35.0385 20.6199 35.1047C19.7827 35.4057 18.9145 35.6033 18.0658 35.8675C13.8993 37.1296 9.71252 38.322 5.53291 39.5387C5.29497 39.608 5.04908 39.682 4.80051 39.5657C4.40054 39.6611 4.00053 39.7565 3.60059 39.8519C3.60346 39.406 3.60628 38.96 3.60916 38.5141C4.12097 38.491 4.65177 38.5615 5.09724 38.2119Z" fill="#89D8FD"/>
<path d="M18.1767 34.3311C16.8253 34.7236 15.474 35.1161 14.1226 35.5086C14.0462 35.5326 13.9572 35.5251 13.9501 35.4417C13.9304 35.2129 14.0726 35.0289 14.2575 34.9722C15.6403 34.5479 16.1994 33.3557 16.9127 32.2635C20.0839 27.4077 24.1118 23.4014 28.8965 20.1143C31.3666 18.4174 33.9239 16.9452 36.7408 15.9117C39.0586 15.0614 41.4391 14.5161 43.8889 14.2703C45.2802 14.1307 46.6699 13.9572 48.0727 13.9511C48.8744 13.9476 49.6679 14.0025 50.4656 14.097C52.8806 14.3832 55.2628 14.7859 57.5062 15.7812C57.7605 15.8941 58.0313 15.9418 58.3081 15.9568C58.3467 15.9576 58.3853 15.9568 58.4238 15.9542C58.4434 16.0569 58.463 16.1597 58.4827 16.2625C58.6887 16.596 58.7233 16.9159 58.4087 17.2082C58.0856 17.3196 57.8214 17.1446 57.5626 17.0076C55.5741 15.9553 53.4739 15.2787 51.2247 15.0905C51.0739 15.0778 50.9299 15.0371 50.8123 14.9349C50.5967 14.6971 50.3071 14.7634 50.0382 14.7549C48.3844 14.7022 46.7561 14.9153 45.1159 15.1133C43.0208 15.3662 40.9807 15.8277 38.9635 16.3956C35.7271 17.3065 32.7873 18.8247 30.0597 20.8002C26.221 23.5804 23.0577 26.9892 20.3918 30.8818C19.9109 31.5839 19.5437 32.357 19.1399 33.1058C18.8879 33.5733 18.6003 34.0031 18.1767 34.3311Z" fill="#007EDE"/>
<path d="M58.2871 17.157C58.5927 16.9114 58.3593 16.5477 58.4833 16.2625C60.0032 16.7888 61.5783 17.1007 63.1401 17.4647C63.3992 17.5251 63.6807 17.5516 63.8736 17.7761C63.3946 18.4939 62.4928 18.7845 62.0711 19.5601C61.0867 18.9284 60.1125 18.2798 59.0619 17.7587C58.7918 17.5735 58.3541 17.6038 58.2871 17.157Z" fill="#A7B0BC"/>
<path d="M82.8165 64.2163C81.9701 67.1631 79.8888 69.3016 78.0032 71.5682C77.9713 72.0545 77.3979 72.0466 77.2345 72.413C77.0258 72.6464 76.7414 72.7652 76.4767 72.9139C75.9378 73.2567 75.3989 73.5995 74.8601 73.9423C71.573 74.6831 69.2528 73.0219 67.1715 70.8161C66.677 70.2921 66.2162 69.7265 65.8116 69.1235C65.6617 68.9001 65.4414 68.7054 65.4801 68.3945C65.7012 67.9408 66.0437 67.6906 66.5524 67.5588C67.201 67.3907 67.8112 67.0987 68.3796 66.7146C69.0073 66.2904 69.6883 66.0726 70.399 66.5738C71.3243 67.3877 72.3299 67.6837 73.4793 67.0478C73.7679 67.0044 73.9509 66.7879 74.1795 66.6402C75.8303 65.5736 77.4037 64.3726 79.2808 63.6944C80.1706 63.3728 81.1528 63.368 81.9926 62.8658C82.2754 62.6966 82.5246 62.8604 82.664 63.1466C82.8288 63.4851 82.9821 63.829 82.8165 64.2163Z" fill="#44B4FE"/>
<path d="M14.8467 91.5497C15.5276 91.1026 16.3376 91.0036 17.0885 90.7668C22.6521 89.0119 28.2302 87.3027 33.8045 85.5817C33.8981 85.5528 34.0017 85.5566 34.1007 85.5451C39.4564 84.0147 44.8571 82.6493 50.2118 81.1123C55.2169 79.6756 60.1964 78.1655 65.1381 76.5249C66.465 76.0845 67.814 75.697 69.1914 75.4251C69.8698 75.5137 70.568 75.1516 71.2341 75.5132C71.2276 75.6043 71.602 75.6596 71.2632 75.7801C68.1202 76.899 64.9888 78.0525 61.8296 79.1238C57.5803 80.5646 53.2614 81.7844 48.9353 82.9686C44.5888 84.1584 40.2207 85.2698 35.8559 86.3914C30.3609 87.8035 24.8627 89.2034 19.359 90.5812C17.8676 90.9546 16.3515 91.2296 14.8467 91.5497Z" fill="#B6B5B5"/>
<path d="M71.2344 75.5133C70.5389 75.6088 69.8407 75.6524 69.1387 75.6215C68.6833 75.5495 68.1979 75.6227 67.7852 75.3435C67.5281 75.1712 67.2493 75.0336 66.9912 74.8622C66.8764 74.7891 66.7606 74.7173 66.6454 74.6444C65.8224 74.115 65.2083 73.3587 64.5154 72.6874C63.5916 71.5884 62.8996 70.3167 61.9432 69.2417C60.5249 67.1595 59.0196 65.142 57.4569 63.1661C57.2856 62.9495 57.0283 62.7067 57.266 62.3706C57.9175 62.4929 58.3068 63.0018 58.7523 63.4111C59.2488 63.8671 59.7388 64.1872 60.4732 64.0425C61.0773 63.9234 61.6952 64.1884 62.3153 64.1156C63.5682 65.4131 64.7185 66.7888 65.5447 68.4081C66.7474 70.1343 68.0617 71.7504 69.8865 72.8734C71.2456 73.7099 72.6903 74.1314 74.2969 73.8482C74.4847 73.8151 74.6973 73.7671 74.8606 73.9426C73.7261 74.6369 72.5404 75.2141 71.2344 75.5133Z" fill="#0056C9"/>
<path d="M76.4775 72.9139C76.6964 72.7173 76.9152 72.5208 77.134 72.3242C78.2762 71.7398 79.5316 71.4763 80.735 71.0673C81.7521 70.7217 82.778 70.4001 83.7939 70.0497C84.3677 69.8519 84.8116 69.5161 84.9144 68.8654C85.4446 68.4188 85.7939 67.6154 86.7202 67.9496C87.2209 69.0154 87.1484 69.3064 86.0358 69.7943C84.1858 70.6055 82.2168 71.0799 80.3086 71.7273C79.2038 72.1022 78.0155 72.2211 76.9821 72.8189C76.8424 72.8997 76.6471 72.8846 76.4775 72.9139Z" fill="#A1A2A2"/>
<path d="M61.0578 31.8828C61.4374 31.0738 62.2463 31.0327 62.9594 30.8134C64.4518 30.3543 65.9702 29.9863 67.4439 29.4559C68.0004 29.2557 68.6236 29.0454 69.253 29.3011C69.3817 29.3533 69.4951 29.2961 69.5783 29.1861C69.9832 29.2146 69.9806 29.5679 70.0691 29.8286C70.4701 31.0094 70.6898 32.228 70.7932 33.4681C70.832 33.6889 70.8466 33.9137 70.8597 34.1372C70.9007 34.8379 71.1748 35.3299 71.9432 35.4044C72.2344 35.6538 72.5894 35.5834 72.9279 35.6057C73.3698 35.6348 73.8235 35.6483 74.0892 36.098C74.1769 37.107 74.1385 38.1098 73.9407 39.1047C74.1565 39.4861 73.8436 39.6528 73.6227 39.8297C73.2304 40.144 72.7764 40.3599 72.3201 40.5667C71.3031 40.7756 70.6048 41.4446 69.9652 42.1999C68.268 41.8101 66.6517 41.1849 65.0532 40.5093C64.3911 40.2295 63.7484 39.8924 62.9898 39.9752C62.7764 39.9985 62.6066 39.8901 62.5257 39.6746C62.4072 39.2592 62.4367 38.8322 62.4548 38.4122C62.5415 36.4 62.0812 34.5123 61.2146 32.7079C61.0933 32.4555 60.854 32.2053 61.0578 31.8828Z" fill="#BCCDE2"/>
<path d="M82.8167 64.2164C82.7802 64.047 82.7649 63.8696 82.7037 63.7097C82.3661 62.8275 82.3576 62.8211 81.5553 63.289C81.2218 63.4835 80.8548 63.5317 80.4917 63.6003C79.3325 63.8191 78.2271 64.1784 77.2697 64.8877C76.1704 65.7021 74.8436 66.172 73.8552 67.1555C73.7849 67.2255 73.6169 67.1972 73.4943 67.2145C73.4269 66.8938 73.7195 66.8034 73.8793 66.6419C75.0993 65.4104 76.3173 64.1785 77.2907 62.7324C78.1153 60.9517 77.3233 59.1558 75.8921 57.8463C75.579 57.5598 75.2405 57.2999 74.946 56.9918C74.3887 56.4086 74.387 55.9557 74.9521 55.3848C75.2018 55.1325 75.5067 54.9546 75.8393 54.8347C76.1487 54.7231 76.3395 54.5381 76.3901 54.1957C76.4723 53.6405 76.8039 53.4249 77.3543 53.5547C79.4842 54.4967 81.264 55.818 82.2044 58.0454C82.4064 58.7288 82.8318 59.3264 82.9471 60.0458C83.1718 61.4462 83.3361 62.8409 82.8167 64.2164Z" fill="#5FBDFE"/>
<path d="M72.2865 40.4449C72.6811 40.2016 73.0733 39.9544 73.4711 39.7164C73.711 39.5728 73.9261 39.4178 73.9404 39.1047C74.3645 39.1937 74.3843 39.5334 74.3875 39.8609C74.4048 41.6558 74.1391 43.4297 73.9878 45.2125C73.8269 47.1085 73.9713 48.9507 75.1196 50.5777C75.3643 50.9244 75.6031 51.2807 75.5949 51.7346C75.2894 51.9404 75.0706 51.7065 74.8592 51.5628C73.7471 50.807 72.593 50.1163 71.4766 49.3677C71.255 49.2192 70.9754 49.1016 71.0412 48.7462C71.0957 48.5261 71.1463 48.3036 71.1132 48.0775C70.8501 46.2789 71.1719 44.5346 71.6298 42.8105C71.8397 42.0201 71.7946 41.1567 72.2865 40.4449Z" fill="#AFB7C1"/>
<path d="M70.6543 33.5737C70.3856 32.3581 70.321 31.0998 69.8845 29.919C69.7925 29.6701 69.7883 29.3858 69.5788 29.1861C69.2175 27.9331 68.6442 26.7666 68.0727 25.6039C67.6884 24.8222 67.6276 24.0841 68.0832 23.3269C68.4089 23.3438 68.4617 23.6265 68.5568 23.8429C69.8106 26.6982 71.3703 29.4122 72.4882 32.3284C72.6717 32.8073 73.0346 33.2734 72.8394 33.8508C72.1666 33.32 71.379 33.6949 70.6543 33.5737Z" fill="#B0B8C1"/>
<path d="M71.0903 48.8707C72.5665 49.8651 74.0471 50.8526 75.595 51.7344C76.6249 52.5971 77.7981 53.2511 78.9193 53.977C80.1594 54.78 81.1438 55.7964 81.8648 57.074C82.0332 57.3725 82.2482 57.6671 82.2044 58.0452C81.1105 56.0296 79.3664 54.7316 77.3931 53.6865C76.2527 53.1583 75.2481 52.4057 74.2069 51.7197C70.2354 49.1027 66.2374 46.5262 62.2599 43.9185C61.7365 43.5754 61.2184 43.2217 60.7184 42.8479C60.4876 42.6753 60.0663 42.4908 60.3765 42.0471C60.9251 42.0725 61.2488 42.5246 61.6971 42.7407C63.4062 43.7715 65.0767 44.8642 66.7742 45.9139C67.9597 46.7651 69.2443 47.4627 70.449 48.2836C70.6887 48.447 70.9834 48.5588 71.0903 48.8707Z" fill="#B0E8FB"/>
<path d="M70.6536 33.5738C70.798 33.5404 70.9516 33.528 71.0853 33.47C71.765 33.1753 72.3644 33.2175 72.839 33.8508C73.1829 34.5215 73.9107 34.9406 74.0722 35.7311C73.3814 35.6134 72.6615 35.7625 71.986 35.5043C70.7878 35.4861 70.6292 35.2563 70.6536 33.5738Z" fill="#53688E"/>
<path d="M84.9144 68.8652C85.1055 69.4555 84.8369 69.9042 84.0324 70.1811C82.622 70.6667 81.2005 71.1205 79.7784 71.5711C78.9047 71.848 78.0564 72.2184 77.1338 72.324C77.2989 71.9282 77.7176 71.8243 78.004 71.5682C80.3631 70.8092 82.8615 70.4066 84.9144 68.8652Z" fill="#5C5F61"/>
<path d="M71.9862 35.5042C72.691 35.4934 73.4199 35.2615 74.0724 35.7311C74.078 35.8533 74.0837 35.9756 74.0892 36.098C73.5475 35.8062 72.9627 35.7763 72.3639 35.7895C72.202 35.7931 71.84 35.9523 71.9862 35.5042Z" fill="#C7CED7"/>
<path d="M24.4814 47.8162C25.4004 47.2223 25.7071 46.4019 25.7112 45.2939C25.7209 42.6498 26.2548 40.0809 27.1902 37.6017C27.5277 37.4528 27.5899 37.0974 27.7419 36.8231C28.34 35.7436 29.3088 35.2097 30.4684 35.0985C31.8415 34.9667 33.1364 34.5267 34.4645 34.227C35.0669 34.0911 35.6295 34.4128 36.2287 34.1841C36.5101 34.0766 36.542 34.4564 36.4898 34.6661C36.388 35.0747 36.3237 35.4958 36.1029 35.8731C35.9565 36.1234 35.7724 36.4008 36.0346 36.6983C36.2902 36.9388 36.1627 37.2056 36.0705 37.4558C35.4242 39.2102 34.9771 41.0083 34.8574 42.8802C34.7111 43.6736 34.7133 44.4666 34.8607 45.2594C34.9235 45.5951 34.9383 45.9324 34.893 46.2712C34.8418 46.4681 34.7832 46.6939 34.5282 46.6615C34.2886 46.6311 34.2457 46.397 34.2278 46.1989C34.1671 45.527 34.1951 44.8524 34.2032 44.1795C34.2094 43.6734 34.099 43.5353 33.5503 43.7218C32.1628 44.1934 30.7905 44.7241 29.3172 44.9186C28.5529 45.0195 27.846 45.3794 27.1122 45.6183C26.687 45.7567 26.4624 46.1393 26.2962 46.5455C26.0717 47.0941 25.6899 47.5259 25.1974 47.8357C24.9958 47.9624 24.7043 48.2549 24.4814 47.8162Z" fill="#CADBEF"/>
<path d="M34.7052 46.3227C34.7008 45.984 34.6963 45.6452 34.6919 45.3064C34.5928 44.4717 34.6039 43.6367 34.6871 42.8016C34.6699 40.9134 35.2493 39.155 35.8567 37.4018C35.9356 37.1741 36.1265 36.9703 36.0347 36.6982C36.6505 35.5953 37.1224 34.4117 37.8876 33.3925C38.3439 33.1803 38.5025 32.6776 38.8752 32.3824C41.7678 30.0913 44.9552 28.8348 48.7431 29.2242C50.5742 29.4124 52.2176 29.9853 53.7402 30.9154C55.1559 31.7801 55.9516 33.2001 56.6116 34.6766C56.7616 35.0121 56.7013 35.375 56.3002 35.5679C55.6841 35.5691 55.3811 35.0725 55.0818 34.6859C54.0783 33.3891 52.8689 32.4086 51.2932 31.9077C51.1735 31.8696 51.0783 31.7847 51.0045 31.681C50.8213 31.1672 50.5206 31.5489 50.2655 31.5866C50.0794 31.6156 49.9011 31.6047 49.7461 31.4828C49.7089 31.4199 49.6721 31.2901 49.6441 31.296C48.8228 31.4687 48.0534 31.0852 47.2097 31.131C45.3922 31.2297 43.6803 31.6826 42.0799 32.4178C40.383 33.1974 38.8316 34.2792 37.5701 35.7088C37.1457 36.1898 36.9103 36.7789 36.6799 37.3518C35.7081 39.7685 35.2353 42.281 35.3615 44.8946C35.3775 45.2254 35.4425 45.536 35.5987 45.8308C35.9854 46.5609 36.3788 46.8076 37.0079 46.6917C37.7338 46.5581 37.7329 45.9616 37.8081 45.4187C38.1132 43.2173 38.1836 40.9731 38.9685 38.8584C39.6696 36.9693 40.7036 35.3083 42.3583 34.0982C42.6239 33.904 42.8909 33.594 43.2867 33.8649C43.3617 34.2121 43.087 34.4039 42.9386 34.652C42.4753 35.1339 42.1415 35.6996 41.8763 36.3095C41.6448 36.7518 41.406 37.1907 41.2873 37.6819C41.0708 38.1692 41.205 38.7695 40.8009 39.1969C40.1662 39.7108 40.0141 40.4606 39.9087 41.1918C39.5971 43.3538 39.5901 45.514 40.1501 47.6468C40.2908 48.1826 40.3402 48.7238 40.3335 49.2757C40.3165 50.6924 39.7053 51.5077 38.3548 51.8992C38.1875 51.9477 38.0132 51.9722 37.8536 52.0465C37.6973 52.122 37.5419 52.1034 37.3869 52.0424C37.243 51.9826 37.1185 51.8935 37.0085 51.7839C36.3702 51.0282 35.9022 50.1652 35.4499 49.2917C35.0661 48.336 34.7274 47.3689 34.7052 46.3227Z" fill="#03215A"/>
<path d="M42.5293 28.7648C45.3334 26.8352 48.3623 25.6336 51.8414 25.8894C56.1701 26.7659 58.5203 29.6445 59.5673 33.7139C60.206 36.1968 59.9386 38.6742 58.9611 41.0592C58.3321 41.2361 57.976 40.8183 57.6026 40.4363C57.4218 40.0105 57.577 39.5365 57.4109 39.1081C57.3619 38.8654 57.3447 38.6231 57.4269 38.3837C57.9731 38.2465 57.8885 37.8095 57.9725 37.3863C58.6799 33.8218 55.0207 29.9253 52.0815 28.8889C50.6821 28.3954 49.291 27.9279 47.7933 27.9527C46.6418 27.9718 45.5002 28.1159 44.418 28.5444C43.9988 28.7105 43.586 28.8947 43.1392 28.9639C42.9178 28.9982 42.6289 29.1431 42.5293 28.7648Z" fill="#02133E"/>
<path d="M58.9065 41.0518C59.0331 39.9666 59.458 38.9514 59.5729 37.8523C59.8981 34.7438 59.2952 31.9254 57.3045 29.4484C55.9658 27.7826 54.3071 26.6296 52.2401 26.0696C52.1009 26.0319 51.9736 25.9505 51.8408 25.8893C53.352 25.8435 54.7334 26.3099 56.0477 26.9952C58.2047 28.1199 59.8385 29.7914 61.0577 31.8827C62.3724 34.327 62.9133 36.9296 62.6559 39.6954C62.774 40.6659 62.4649 41.5695 62.2005 42.4758C62.1273 42.727 62.005 43.0234 61.6195 42.878C61.2135 42.6244 60.8076 42.3708 60.4016 42.1173C59.8109 41.8917 59.1163 41.8119 58.9065 41.0518Z" fill="#39486F"/>
<path d="M42.5294 28.765C43.1017 28.9583 43.5921 28.6585 44.0812 28.4667C45.4403 27.9338 46.8195 27.7416 48.2909 27.8026C50.6852 27.902 52.8146 28.7137 54.6444 30.1473C56.6234 31.6976 58.1398 33.6478 58.2305 36.3287C58.2495 36.8895 58.1671 37.4696 58.1533 38.0424C58.1488 38.2317 58.2225 38.444 58.0244 38.5975C57.7234 38.8309 57.8068 38.214 57.5402 38.3842C57.5155 38.3807 57.4743 38.385 57.4685 38.3727C57.0212 37.4246 56.4753 36.521 56.1728 35.5076C56.5892 35.3033 56.5834 34.9568 56.4146 34.6193C55.914 33.6187 55.355 32.6371 54.5608 31.8481C53.3622 30.6573 51.8427 29.9955 50.2185 29.6538C48.6364 29.321 47.0195 29.1711 45.4057 29.489C43.9101 29.7837 42.4807 30.2752 41.1641 31.056C40.1401 31.6633 39.081 32.2297 38.3666 33.2378C38.252 33.3994 38.0645 33.3932 37.8877 33.3926C39.0805 31.4946 40.6567 29.9812 42.5294 28.765Z" fill="#011D51"/>
<path d="M34.705 46.3227C35.0165 47.3031 35.3281 48.2835 35.6396 49.2639C35.562 49.7711 35.2569 49.5425 35.0814 49.3908C34.7224 49.0806 34.4817 49.1474 34.1245 49.4373C32.5662 50.7022 30.8792 51.7401 28.8664 52.1247C28.211 52.2499 27.7522 52.7421 27.1735 53.0103C26.6155 52.5402 26.0256 52.1942 25.2622 52.5214C24.3732 52.6072 23.49 52.8049 22.5901 52.6442C22.1666 52.5312 21.7047 52.5242 21.3549 52.2032C20.8428 51.2161 20.7516 50.2061 21.1931 49.1678C22.2892 48.7173 23.3853 48.2668 24.4814 47.8162C25.3983 47.8609 25.7981 47.1655 26.0719 46.516C26.39 45.7612 26.8791 45.4676 27.628 45.2152C29.7186 44.5104 31.9667 44.3341 33.9575 43.3122C34.3967 43.0868 34.4043 43.3682 34.4038 43.6778C34.4026 44.5281 34.3986 45.3785 34.4109 46.2287C34.4145 46.4775 34.4534 46.7742 34.705 46.3227Z" fill="#BDD0E6"/>
<path d="M21.1735 33.5315C20.8731 33.5927 20.5727 33.6538 20.2723 33.7149C20.1501 33.4765 20.2852 33.2791 20.381 33.0806C21.6495 30.45 23.3415 28.0989 25.2133 25.8764C27.2551 23.4521 29.6465 21.4098 32.3037 19.6898C34.6477 18.1726 37.193 17.0824 39.8854 16.3514C40.9209 16.0702 41.9253 15.686 42.9742 15.4545C43.2481 15.3941 43.5541 15.2083 43.7241 15.6218C41.5221 16.3588 39.4184 17.3126 37.4118 18.4809C37.2573 18.4484 37.1001 18.4803 36.9766 18.5533C34.5434 19.9916 32.1598 21.47 30.0711 23.4308C28.0463 25.3315 26.2693 27.4001 24.7422 29.7027C24.0222 30.7881 23.4493 31.9595 22.7698 33.0694C22.2945 33.4189 21.755 33.5478 21.1735 33.5315Z" fill="#0165B8"/>
<path d="M43.7243 15.6216C43.081 15.3646 42.5191 15.7801 41.9604 15.9289C41.3 16.1047 40.6388 16.3434 39.9724 16.5266C36.0513 17.6047 32.5609 19.4645 29.4114 22.0474C26.4483 24.4773 24.0664 27.3854 21.9881 30.563C21.3355 31.5607 20.84 32.6612 20.2726 33.7147C19.6067 34.0317 18.8927 34.1846 18.1768 34.3309C19.4363 32.097 20.7092 29.8738 22.3747 27.902C23.1777 26.9513 23.8774 25.9131 24.7853 25.051C27.5958 22.382 30.5292 19.8682 34.0193 18.1121C36.9106 16.6572 39.9825 15.7156 43.1758 15.2195C45.6455 14.8359 48.1292 14.5238 50.6408 14.6057C50.6863 14.6072 50.7444 14.6147 50.7718 14.6432C50.7916 14.6638 50.7703 14.724 50.7673 14.7666C50.1426 14.9178 49.5083 14.7776 48.8807 14.8297C48.6182 14.8515 48.3426 14.751 48.0942 14.9095C46.5978 14.9032 45.1606 15.2597 43.7243 15.6216Z" fill="#0172CE"/>
<path d="M22.6836 32.9517C23.9756 30.4081 25.5068 28.0287 27.3998 25.8808C29.2556 23.7748 31.3527 21.9401 33.6231 20.3115C34.6315 19.5883 35.7726 19.0495 36.8572 18.4335C37.0419 18.3285 37.2394 18.3207 37.412 18.4808C32.3572 21.7124 28.5091 26.0199 25.8795 31.4138C25.7067 31.7683 25.5367 32.1242 25.3654 32.4794C24.7334 32.6712 24.0951 32.8404 23.4518 32.9891C23.1965 33.0482 22.9296 33.1629 22.6836 32.9517Z" fill="#014A89"/>
<path d="M25.0868 46.6226C24.6738 47.2715 23.9975 47.5489 23.3386 47.8399C22.6328 48.1518 21.9143 48.4349 21.2014 48.7306C20.3812 48.9288 19.7095 48.5519 19.0377 48.1727C18.7542 47.3469 19.5098 47.2529 19.9217 46.9156C20.4211 46.6387 20.9272 46.374 21.4325 46.1079C22.2287 45.6886 22.6584 45.0551 22.6266 44.1278C22.6095 43.6322 22.5909 43.1324 22.6465 42.6392C22.671 42.4218 22.5967 42.0456 23.0519 42.1605C23.2245 42.4307 23.1912 42.7364 23.2022 43.0339C23.2336 43.8804 23.4826 44.2867 24.2861 44.3842C25.0478 44.4767 25.2672 44.8207 25.1618 45.5154C25.1064 45.8807 25.236 46.2614 25.0868 46.6226Z" fill="#617293"/>
<path d="M48.0947 14.9096C48.9731 14.6254 49.8789 14.8516 50.7679 14.7667C52.4308 15.028 54.0994 15.2542 55.6749 15.9053C56.5702 16.2752 57.4478 16.675 58.2874 17.1572C58.5455 17.3577 58.8037 17.5583 59.062 17.7589C58.0457 17.4481 57.0343 17.1201 56.0119 16.8306C54.5491 16.4166 53.0412 16.315 51.5314 16.2662C51.151 16.2538 50.7864 16.2099 50.4406 16.0668C49.7937 15.7992 49.752 15.3961 50.3669 14.9096C49.5729 14.9096 48.8338 14.9096 48.0947 14.9096Z" fill="#D5E5F0"/>
<path d="M19.0769 48.1201C19.7852 48.3237 20.4934 48.5272 21.2016 48.7308C21.1987 48.8765 21.1957 49.0222 21.1928 49.1679C21.1718 50.18 21.0508 51.2026 21.5059 52.1651C20.9903 52.6021 20.4598 52.2453 19.9343 52.1966C19.6351 52.1093 19.3529 51.961 19.2298 51.6755C18.7288 50.5144 18.6637 49.3252 19.0769 48.1201Z" fill="#43557C"/>
<path d="M24.9273 33.8296C25.3347 34.1078 25.7172 34.4363 26.1551 34.6526C26.8726 35.0071 27.0436 35.6147 26.86 36.2687C26.6622 36.973 26.5372 37.7161 26.1439 38.3585C25.6467 37.6989 24.9906 37.2252 24.3051 36.7859C24.1387 36.6793 23.9616 36.5839 23.9062 36.3701C23.9705 35.4673 24.2747 34.641 24.7093 33.856C24.7762 33.8002 24.849 33.7916 24.9273 33.8296Z" fill="#DDE4EA"/>
<path d="M25.087 46.6227C25.0867 46.3501 25.0675 46.0759 25.0898 45.8051C25.147 45.1077 25.1479 44.5731 24.1418 44.6251C23.4526 44.6607 22.9876 43.9444 22.9824 43.2049C22.9798 42.8334 22.9671 42.4619 22.9589 42.0904C22.6892 41.6284 22.6558 41.1761 23.0145 40.7402C23.7374 41.011 24.3633 41.4526 24.9942 41.8823C25.3582 42.1302 25.3218 42.526 25.3064 42.8995C25.2942 43.195 25.3618 43.4957 25.2551 43.7857C25.1729 44.7298 25.439 45.6946 25.087 46.6227Z" fill="#8695AC"/>
<path d="M25.2552 43.7856C25.2483 43.7369 25.2274 43.6851 25.2368 43.6397C25.4834 42.4517 24.8687 41.8161 23.8474 41.4041C23.5416 41.2807 23.2075 41.1245 23.1158 40.7367C22.7498 40.0927 22.9943 39.4991 23.2658 38.9074C23.5023 38.6832 23.7847 38.6042 24.0769 38.7489C24.6058 39.0106 25.0998 39.336 25.5411 39.7281C25.701 39.8702 25.8347 40.0691 25.6922 40.3132C25.5466 41.4707 25.4009 42.6282 25.2552 43.7856Z" fill="#A9B5C7"/>
<path d="M25.6921 40.3133C25.3361 39.548 24.0408 38.7765 23.4028 38.9498C23.1587 38.2058 23.4987 36.8206 24.0301 36.3943C24.7762 37.0041 25.8686 37.2416 26.1434 38.3586C26.0758 39.0293 25.9206 39.6798 25.6921 40.3133Z" fill="#C2CDD9"/>
<path d="M24.9272 33.8296C24.885 33.8364 24.8432 33.8451 24.8017 33.8555C24.3645 33.8565 24.0009 34.109 23.5927 34.2116C23.1075 34.3745 22.63 34.5595 22.1278 34.6662C21.7643 34.7328 21.4175 35.0304 21.0288 34.7469C20.7145 34.2984 20.994 33.9209 21.1739 33.5314C21.6171 33.182 22.2374 33.2934 22.6836 32.9516C23.3462 32.7923 24.0143 32.6517 24.6688 32.4641C24.918 32.3928 25.1353 32.3315 25.3654 32.4793C25.3124 32.9596 24.9359 33.3349 24.9272 33.8296Z" fill="#5C8FB9"/>
<path d="M4.8005 39.5656C8.05837 38.6107 11.3161 37.6553 14.5741 36.701C15.7244 36.3641 16.8754 36.0301 18.0261 35.6948C18.4102 35.8406 18.4781 36.1429 18.3859 36.4907C18.0008 37.9425 17.5472 39.3745 17.1218 40.8146C17.0289 41.1291 16.8592 41.4125 16.5436 41.57C15.7067 41.5853 15.103 41.9472 14.6316 42.6634C14.1241 43.4342 13.4808 44.1074 12.7152 44.6463C12.529 44.7774 12.3574 44.9294 12.3176 45.1686C12.2886 45.3423 12.2756 45.5378 12.4406 45.6486C12.5876 45.7472 12.7227 45.6294 12.8456 45.5464C13.3661 45.1948 13.8159 44.7637 14.249 44.3121C14.3634 44.1927 14.4843 44.0138 14.6822 44.0934C14.8671 44.1678 14.8722 44.3725 14.8949 44.5439C14.9245 44.7669 14.9151 44.9925 14.9152 45.2172C14.9158 46.99 14.9155 48.7627 14.9153 50.5355C14.9153 50.8864 14.8958 51.2418 15.1905 51.5098C15.584 51.8693 15.7089 52.3624 15.8103 52.8473C16.0348 53.9215 16.2617 54.9948 16.5071 56.0644C16.5914 56.4318 16.5948 56.8077 16.5748 57.1822C16.5144 58.3171 16.2374 58.6056 15.1157 58.7065C14.9889 58.7179 14.8723 58.7555 14.7583 58.8041C13.9985 59.1299 13.2535 59.4679 12.6891 60.1165C12.281 60.5855 12.0068 61.1064 11.9293 61.7156C11.9 61.9456 11.6849 62.3205 12.1033 62.3813C12.4468 62.4313 12.8047 62.3014 12.9561 61.9107C13.0295 61.7211 13.0109 61.5158 13.0247 61.3169C13.0557 60.8682 13.2473 60.4999 13.5851 60.2105C13.9923 59.8616 14.4631 59.6939 14.9733 59.9164C15.4955 60.144 15.6661 60.6228 15.644 61.1551C15.5998 62.2242 15.0848 63.1132 14.4962 63.9619C13.8125 64.9479 13.1137 65.9234 12.4058 66.8924C12.2733 67.0737 12.1323 67.2526 12.0404 67.4588C11.9049 67.7629 11.7941 68.1149 11.994 68.3901C12.1986 68.6719 12.5045 68.4145 12.7512 68.3548C13.7465 68.114 14.7083 67.7458 15.7203 67.5637C15.7952 67.5615 15.8773 67.5915 15.943 67.5722C17.4225 67.1384 18.2226 67.8344 18.9002 69.1034C19.7052 70.6107 20.5832 72.1076 21.9609 73.2129C22.5029 73.6477 22.8588 74.2115 22.9675 74.912C23.0531 75.4633 23.4164 75.7983 23.8879 76.0088C24.7051 76.3736 25.1065 77.0009 25.167 77.8735C24.9266 78.7042 24.2413 79.2549 23.8365 79.9815C23.5823 80.438 23.1681 80.912 23.798 81.4014C24.4908 81.6652 25.1826 81.417 25.863 81.3632C26.5332 81.3102 27.0954 81.4325 27.607 81.8466C27.9023 82.0856 28.2155 82.3063 28.6099 82.3037C30.5825 82.2906 32.5266 82.773 34.5075 82.6311C35.0289 82.5937 35.5543 82.6307 36.0759 82.5511C36.4879 82.4882 36.9228 82.4872 37.0643 82.9812C37.2041 83.4693 36.9013 83.802 36.4991 84.0038C35.8531 84.328 35.1618 84.5487 34.4712 84.756C34.1384 84.8559 33.8128 84.9621 33.5001 85.1109C31.2148 85.9993 28.8461 86.63 26.5098 87.3594C21.7108 88.8576 16.9044 90.3322 12.1004 91.8145C11.9818 91.8511 11.856 91.864 11.7335 91.8882C10.4069 91.4252 8.9206 91.6906 7.6468 90.9501C6.04295 90.0178 4.95889 88.7525 4.78926 86.8364C4.47074 83.2383 4.66775 79.6329 4.6561 76.0315C4.62392 66.0864 4.62151 56.1409 4.66955 46.1959C4.67809 44.4292 4.78043 42.6587 4.79675 40.8883C4.80089 40.4474 4.59351 40.0047 4.8005 39.5656Z" fill="#0198FE"/>
<path d="M33.5006 85.1109C33.9442 84.5432 34.6807 84.6538 35.246 84.3607C35.747 84.1009 36.3376 84.0178 36.7499 83.5812C36.9401 83.3797 37.0295 83.159 36.8875 82.9036C36.7542 82.6639 36.5114 82.6785 36.2868 82.7078C34.2689 82.9705 32.2607 82.9124 30.2568 82.5625C29.9646 82.5115 29.6561 82.5288 29.3571 82.5472C28.5854 82.5946 27.9146 82.4984 27.3064 81.8892C26.5642 81.1458 25.5876 81.7186 24.7229 81.6875C24.3301 81.6733 23.95 81.7247 23.5801 81.5563C23.709 81.2228 24.0404 81.2071 24.3086 81.1175C25.4592 80.7332 26.6333 80.4238 27.7877 80.0509C28.0449 79.9678 28.3224 79.9258 28.5095 79.6995C28.5555 79.6097 28.6045 79.5247 28.6252 79.4246C28.8167 78.5004 29.0003 78.3768 29.9466 78.4879C31.4549 78.6649 32.9552 78.9115 34.4759 78.9808C34.9991 79.0046 35.5216 79.0055 36.0445 79.0137C37.3426 79.034 37.5784 79.2212 37.8764 80.4637C37.9648 81.1659 37.9044 81.8715 37.9256 82.5749C37.9294 82.9472 37.9303 83.3201 37.9431 83.6929C37.9231 83.8238 37.8751 83.9284 37.7171 83.9253C36.5971 84.1605 35.5269 84.5609 34.4411 84.9099C34.1351 85.0082 33.8355 85.1446 33.5006 85.1109Z" fill="#008DF5"/>
<path d="M67.7963 75.1859C68.2436 75.3311 68.6909 75.4764 69.1383 75.6215C66.0788 76.3503 63.1415 77.4758 60.1379 78.3844C56.2519 79.5599 52.3841 80.7984 48.4497 81.8134C45.8959 82.4723 43.3744 83.2563 40.821 83.9165C38.871 84.4208 36.9197 84.9121 34.9971 85.5155C34.7222 85.6018 34.4006 85.5391 34.1006 85.5453C35.4134 84.9495 36.8232 84.6516 38.1902 84.2229C38.4507 84.1412 38.7269 84.117 38.932 83.9109C39.4151 83.4031 40.1066 83.3665 40.7126 83.1906C45.0631 81.9275 49.3732 80.5318 53.7125 79.2318C57.0676 78.2266 60.4316 77.2327 63.7465 76.0907C64.8124 75.7235 65.9056 75.4468 66.997 75.1671C67.2593 75.0998 67.5335 75.0355 67.7963 75.1859Z" fill="#979696"/>
<path d="M67.7962 75.186C65.0118 75.8046 62.3438 76.8138 59.6164 77.624C55.9827 78.7034 52.3773 79.8748 48.734 80.9253C45.6917 81.8025 42.6821 82.7932 39.6569 83.7303C39.4193 83.8039 39.1736 83.8512 38.9318 83.9108C38.524 83.6783 38.1261 84.281 37.7168 83.9255C37.768 83.8766 37.8192 83.8277 37.8704 83.7787C37.9865 83.5521 38.2134 83.5018 38.4267 83.4363C43.878 81.7609 49.3108 80.0256 54.7634 78.3543C56.3158 77.8784 57.8271 77.2694 59.416 76.9105C61.2726 76.3099 63.1366 75.7324 64.9949 75.1369C65.6713 75.0462 66.2662 74.5763 66.99 74.7043C67.2728 74.8414 67.5755 74.945 67.7962 75.186Z" fill="#515557"/>
<path d="M58.308 15.9568C58.087 16.5034 57.7457 16.0815 57.5328 15.9987C56.2987 15.5185 55.0591 14.9661 53.7653 14.7857C51.2145 14.43 48.6812 13.9729 46.0481 14.259C43.0163 14.5886 40.0213 14.9627 37.1285 15.9687C33.1366 17.3568 29.6812 19.6478 26.3824 22.2297C24.764 23.4964 23.2364 24.8551 21.84 26.3545C19.9021 28.4352 18.0716 30.6019 16.653 33.0904C16.1481 33.9759 15.5758 34.8436 14.4406 35.068C14.2729 35.1012 13.9595 35.1704 14.1225 35.5085C12.5002 36.1296 10.8081 36.52 9.14727 37.0138C8.60166 37.176 8.04928 37.3155 7.5 37.4654C8.87437 34.8211 10.5884 32.4086 12.4923 30.1232C14.3451 27.899 16.489 26.0203 18.9771 24.5312C19.6466 24.1305 20.3667 23.8525 21.0673 23.5258C23.7679 22.2663 26.2769 20.6875 28.6476 18.8932C30.3546 17.6012 32.2476 16.6655 34.2054 15.8458C36.4132 14.9214 38.6556 14.1079 41.0447 13.7646C44.0095 13.3385 46.9696 13.0924 49.9747 13.3671C52.3978 13.5887 54.7244 14.1826 57.0553 14.8066C57.4616 14.9154 57.8821 14.9709 58.2959 15.051C58.2999 15.3529 58.304 15.6549 58.308 15.9568Z" fill="#0087F0"/>
<path d="M21.0285 34.7472C21.3822 34.6612 21.7358 34.5752 22.0895 34.4893C22.3683 34.8194 22.2266 35.1564 22.0807 35.4734C21.0365 37.7425 20.4092 40.1318 19.9756 42.5826C19.7923 43.6187 19.4981 44.6352 19.1476 45.6246C18.5317 47.3632 18.4594 49.1576 18.5448 50.9599C18.61 52.333 19.4016 53.4243 20.3085 54.3591C21.4809 55.5674 21.992 56.9279 22.0165 58.6101C22.0389 60.152 22.1459 61.7093 22.4506 63.2354C22.9268 65.6197 24.3893 67.1811 26.5614 68.1522C27.7049 68.6634 28.9207 68.9895 30.0503 69.5377C30.8 69.9015 31.4737 70.3719 32.1185 70.8927C33.5299 72.0326 35.0277 73.0175 36.8036 73.5096C37.1894 73.6165 37.5676 73.7636 37.8069 74.1241C37.9685 74.4679 37.8732 74.8602 38.0149 75.2082C38.0913 75.6263 38.0871 76.047 38.0568 76.469C38.0404 76.5974 38.0018 76.7177 37.9224 76.8216C37.8588 76.8788 37.7834 76.9083 37.6979 76.9108C36.2622 76.0156 34.5529 76.0635 32.9989 75.5659C32.1521 75.2948 31.2736 75.0935 30.3928 74.9222C29.8016 74.8072 29.2633 74.7579 28.801 75.2366C28.6987 75.3426 28.549 75.396 28.3885 75.3569C28.2296 75.1922 28.2578 74.9958 28.2957 74.7982C28.305 74.7495 28.3208 74.7023 28.3313 74.6539C28.536 73.7173 28.7639 72.7197 27.8395 72.0628C26.9502 71.4309 26.0383 71.8737 25.1794 72.298C24.9974 72.3882 24.8143 72.4684 24.6158 72.3424C24.6576 71.3771 24.2086 70.6279 23.5829 69.9444C21.249 67.3948 20.0805 64.3352 19.6422 60.9503C19.517 59.9833 19.3365 59.0231 19.1935 58.0579C19.0341 56.9818 18.6801 55.9744 18.1773 55.0114C17.6543 54.0096 17.1863 52.9718 17.0784 51.8397C17.0284 51.315 16.6328 51.2099 16.3639 50.9351C16.1891 50.118 16.2871 49.2915 16.2785 48.4701C16.2624 46.9218 16.2704 45.3733 16.2762 43.8249C16.2773 43.5506 16.2742 43.2742 16.3808 43.0144C16.4975 42.8094 16.6334 42.7761 16.7576 43.0004C16.8964 43.2512 16.8782 43.5343 16.878 43.8088C16.8769 44.9848 16.8942 46.161 16.869 47.2577C17.8014 44.775 18.1884 42.0604 18.947 39.4441C19.3941 37.9021 19.9961 36.4224 20.5728 34.9306C20.7246 34.8694 20.8766 34.8083 21.0285 34.7472Z" fill="#016DC3"/>
<path d="M20.5726 34.9304C20.7186 35.7899 20.189 36.4718 19.9148 37.2006C18.9893 39.6604 18.4738 42.223 17.8666 44.7644C17.6027 45.8687 17.2183 46.9324 16.6654 47.9604C16.6654 46.5223 16.6702 45.0841 16.6611 43.6461C16.6594 43.3815 16.7541 43.0899 16.5245 42.8609C16.1984 42.4221 16.2134 41.9765 16.4979 41.5256C16.8166 41.1336 16.9846 40.6763 17.1192 40.1939C17.4631 38.9618 17.8064 37.7283 18.2038 36.5129C18.3204 36.1561 18.1519 35.9514 18.0259 35.6947C18.8747 35.44 19.7237 35.1852 20.5726 34.9304Z" fill="#017FDC"/>
<path d="M65.5447 68.408C64.4766 67.0093 63.4086 65.6105 62.3406 64.2117C62.3219 64.195 62.3021 64.1795 62.2849 64.1614C60.802 62.6038 59.5547 60.8672 58.4071 59.0551C58.3832 59.0174 58.402 58.9578 58.4125 58.9077C58.5721 58.5686 58.8579 58.3597 59.1926 58.2434C59.9923 57.9655 60.6234 57.4654 61.245 56.9023C61.7474 56.4471 62.3014 55.9495 63.0982 56.105C63.5679 56.2987 63.6391 56.799 63.8817 57.1598C65.7018 59.8677 67.6474 62.4856 69.5624 65.1253C69.8392 65.5807 70.2712 65.9338 70.4469 66.4569C70.4541 66.5719 70.4228 66.6732 70.3403 66.7561C69.7018 66.2569 69.0853 66.46 68.515 66.8608C67.8426 67.3334 67.1287 67.7132 66.3133 67.8005C65.8797 67.8469 65.9476 68.4013 65.5447 68.408Z" fill="#65BEFE"/>
<path d="M70.3395 66.756C70.3374 66.6524 70.3352 66.5489 70.333 66.4453C70.5701 66.2795 70.7642 66.4373 70.9495 66.5452C71.8499 67.0696 72.6851 66.9133 73.4254 66.2581C74.5797 65.2364 75.6755 64.1521 76.6848 62.9839C76.8575 62.7841 76.9532 62.4897 77.2908 62.4927C77.4589 62.5735 77.5227 62.6851 77.3976 62.8525C76.3228 64.5091 74.9395 65.8895 73.4941 67.2144C72.314 67.9466 71.2934 67.5811 70.3395 66.756Z" fill="#B4E7FB"/>
<path d="M66.99 74.7041C66.3443 74.9051 65.6987 75.106 65.053 75.307C63.1412 74.9359 61.254 74.4366 59.2991 74.2967C57.123 74.141 54.946 74.1751 52.7719 74.2575C51.1743 74.318 49.5818 74.5371 47.9797 74.5052C45.3689 74.4532 42.7863 74.7626 40.1997 75.0461C39.3598 75.1382 38.485 75.2785 37.8485 74.4808C37.7696 74.1263 37.634 73.7815 37.6569 73.4086C37.6635 73.1821 37.665 72.954 37.8239 72.7675C38.2037 72.6202 38.5566 72.8407 38.9271 72.8525C39.8822 72.8828 40.8213 72.8334 41.7455 72.5546C44.0334 71.8645 46.3664 71.8278 48.7252 72.0646C49.9515 72.1877 51.1676 71.9757 52.3725 71.7603C53.7976 71.5057 55.2042 71.1963 56.672 71.1803C58.4716 71.1607 60.1388 71.6244 61.7524 72.3194C63.4267 73.0406 65.0809 73.8105 66.7358 74.5768C66.8406 74.5793 66.9414 74.5895 66.99 74.7041Z" fill="#77808C"/>
<path d="M66.7356 74.5769C65.5567 74.548 64.6485 73.7976 63.6208 73.3771C62.0501 72.7345 60.538 71.9331 58.8599 71.5963C57.0732 71.2376 55.2854 71.3756 53.5128 71.7454C51.6591 72.132 49.8228 72.426 47.8943 72.2045C45.5446 71.9345 43.2272 72.3356 40.9366 72.9451C39.9384 73.2107 38.8639 73.2887 37.8689 72.7681C37.5639 72.4119 37.6281 72.0257 37.7754 71.6326C37.9014 71.4619 38.0906 71.4696 38.2535 71.515C39.637 71.9011 40.8873 71.4546 42.0891 70.8601C43.2926 70.2649 44.5302 70.0089 45.8684 70.1427C46.4175 70.1975 46.9711 70.2357 47.5041 70.3612C49.7757 70.8963 51.9404 70.5584 54.0079 69.5588C55.7607 68.7114 57.4797 68.8188 59.2402 69.5169C61.1927 70.2911 62.8481 71.5669 64.6341 72.6221C65.3346 73.2737 66.0351 73.9253 66.7356 74.5769Z" fill="#616873"/>
<path d="M64.6345 72.622C63.8402 72.5646 63.276 72.0373 62.6597 71.6321C61.0918 70.6016 59.5 69.6361 57.6218 69.2643C56.4572 69.0337 55.3597 69.1753 54.2732 69.6682C52.6526 70.4034 50.9854 70.9977 49.1546 70.8171C47.9448 70.6978 46.7615 70.4033 45.5375 70.3456C44.4676 70.2951 43.4678 70.4317 42.5094 70.9009C41.8148 71.241 41.1044 71.5331 40.3534 71.7387C39.496 71.9735 38.6799 71.8945 37.8703 71.5716C37.3149 70.4242 37.6497 69.8528 38.8727 69.8569C39.4274 69.8577 39.9469 70.0555 40.4833 70.1616C41.8619 70.4342 42.412 70.1651 43.0637 68.896C43.2277 68.5767 43.2819 68.1594 43.7271 68.0574C45.5157 67.8907 47.16 68.5494 48.849 68.9529C49.3355 69.0692 49.822 69.2046 50.3017 68.928C50.6175 68.842 50.9258 68.9799 51.2396 68.957C52.3784 69.0712 53.2948 68.4243 54.2941 68.0634C55.0438 67.8471 55.3312 67.2984 55.4005 66.5695C55.4263 66.298 55.3329 65.9484 55.7257 65.8274C55.9581 66.249 56.3306 66.3875 56.791 66.5116C58.378 66.9394 59.7734 67.7928 61.1685 68.6346C61.4671 68.8148 61.7337 69.0524 62.078 69.1528C63.0555 70.2169 63.7843 71.4642 64.6345 72.622Z" fill="#4D535D"/>
<path d="M58.4562 58.9457C59.7509 60.701 61.0457 62.4563 62.3404 64.2117C60.548 64.5198 58.9333 64.2634 57.6941 62.7735C57.5715 62.6261 57.385 62.532 57.2281 62.4131C56.8212 62.4447 56.7274 62.0749 56.5132 61.8585C55.1943 60.1393 53.9244 58.3835 52.6343 56.6428C52.3073 56.2016 51.952 55.7854 51.5889 55.3744C51.2669 54.8546 50.885 54.3787 50.5165 53.8926C50.3651 53.6929 50.1077 53.4946 50.3687 53.198C50.8043 53.2099 50.992 53.5602 51.2263 53.8378C52.0791 54.8485 53.7265 55.0432 54.7521 54.2471C54.9833 54.2281 55.1287 54.3783 55.249 54.5341C56.2581 55.8405 57.2928 57.1275 58.2572 58.468C58.359 58.6095 58.4531 58.7602 58.4562 58.9457Z" fill="#016EDA"/>
<path d="M56.6432 61.7991C56.8382 62.0037 57.0332 62.2083 57.2281 62.413C58.0761 63.8314 59.2162 65.0359 60.145 66.3958C60.7779 67.3226 61.4326 68.2345 62.0777 69.153C61.2704 69.2555 60.8344 68.5611 60.2111 68.2691C58.8712 67.6413 57.6569 66.718 56.1073 66.6044C55.573 66.5652 55.8208 66.1282 55.7464 65.8561C55.3713 65.322 55.5536 64.7342 55.5809 64.1612C55.6999 63.8318 55.648 63.4748 55.7271 63.144C55.8598 62.589 55.8987 61.9464 56.6432 61.7991Z" fill="#393F46"/>
<path d="M61.6201 42.8781C62.0096 42.8688 62.0048 42.541 62.0643 42.2945C62.2729 41.4309 62.4608 40.5623 62.6566 39.6956C64.9976 39.8016 66.8732 41.3794 69.1341 41.7484C69.4394 41.7983 69.7232 41.9797 70.017 42.1002C70.2639 42.3141 70.2152 42.5925 70.1691 42.8604C69.9966 43.8637 69.7836 44.8591 69.5035 45.8379C69.2798 46.6194 68.9679 46.7756 68.168 46.5375C67.6692 46.3889 67.2064 46.1356 66.6941 46.0251C65.2849 45.3232 64.0529 44.3323 62.6831 43.5653C62.3157 43.3596 61.9737 43.1084 61.6201 42.8781Z" fill="#A4B6CB"/>
<path d="M66.6934 46.0251C67.1409 45.7748 67.5032 46.0668 67.8814 46.2206C68.9552 46.6573 69.1074 46.6036 69.3646 45.5183C69.6321 44.3896 69.9877 43.2754 70.0164 42.1003C70.3821 41.0124 71.2743 40.6464 72.2866 40.4451C72.1539 41.8374 71.6704 43.1606 71.4663 44.5355C71.2956 45.685 71.0482 46.8422 71.3571 48.0182C71.4365 48.3206 71.4735 48.6801 71.0901 48.8709C69.6083 47.9474 68.0864 47.0857 66.6934 46.0251Z" fill="#939AA4"/>
<path d="M58.4558 58.9456C57.4176 57.61 56.3796 56.2742 55.3409 54.939C55.1729 54.723 55.0018 54.5093 54.8321 54.2946C54.559 54.1976 54.391 53.9832 54.2234 53.7627C52.9269 52.0568 51.6531 50.3335 50.3045 48.6673C50.104 48.4196 49.7791 48.1504 50.0645 47.7508C51.0324 47.5322 52.0237 47.4594 52.9904 47.2047C55.1174 46.6441 57.2234 44.3583 57.4872 42.1793C57.5432 41.7161 57.7244 41.2554 57.5982 40.7752C57.595 40.6532 57.622 40.5428 57.7204 40.4604C58.1158 40.6576 58.5112 40.8548 58.9066 41.0519C59.3118 41.5377 59.9582 41.6852 60.4017 42.1174C60.5448 42.901 61.3174 43.0355 61.8231 43.3774C64.6521 45.2898 67.5361 47.1207 70.3969 48.986C72.6726 50.4699 74.9426 51.9624 77.2121 53.4558C77.2895 53.5068 77.3336 53.6085 77.3932 53.6866C76.8497 53.6077 76.5069 53.7889 76.5558 54.3908C76.5857 54.7591 76.3614 54.8449 76.0887 54.9505C75.7904 55.0661 75.4896 55.2003 75.2289 55.3822C74.5905 55.8277 74.5629 56.3197 75.0877 56.8647C75.7061 57.507 76.4584 58 76.9869 58.7503C77.8896 60.0316 78.102 61.7618 77.3977 62.8526C77.3882 62.7261 77.3571 62.6112 77.2341 62.5452C77.1195 62.4119 77.151 62.2631 77.1995 62.1198C77.6209 60.8776 77.1813 59.8928 76.3431 58.9745C75.2571 57.7845 73.8482 57.0599 72.5304 56.2012C70.8523 55.1078 69.1263 54.0901 67.4503 52.9935C65.6186 51.7951 64.1691 52.2438 63.2828 54.3011C63.0037 54.9273 63.3827 55.6129 63.1076 56.2384C62.4144 56.1312 61.8897 56.5594 61.4731 56.9533C60.7708 57.6172 60.0396 58.1652 59.1218 58.4791C58.8754 58.5634 58.6765 58.7863 58.4558 58.9456Z" fill="#83CAFE"/>
<path d="M34.6866 42.8015C34.6882 43.6364 34.6898 44.4713 34.6914 45.3063C34.5229 44.4718 34.5153 43.6368 34.6866 42.8015Z" fill="#022969"/>
<path d="M37.1544 51.7135C37.239 51.7698 37.3236 51.8262 37.4082 51.8826C37.7391 52.4493 38.3504 52.7243 38.7718 53.1951C38.9276 53.3693 39.2855 53.5087 38.9609 53.836C38.5349 54.0851 38.3532 54.4803 38.2825 54.9472C38.0577 56.4309 37.9013 57.9237 37.7976 59.4187C37.7233 60.4893 37.5725 61.5574 37.6161 62.6366C37.6294 62.9649 37.5489 63.2862 37.2577 63.5042C37.0161 63.6291 36.7848 63.5635 36.5557 63.4659C36.0839 63.2467 35.6475 62.9606 35.2027 62.6935C34.511 62.2781 33.9073 62.3595 33.297 62.8604C32.7966 63.2711 32.3656 63.7482 31.9041 64.1972C31.611 64.4621 31.2905 64.6914 30.9687 64.9173C30.225 65.4392 29.4544 65.6157 28.6416 65.0592C28.1238 64.6745 27.5902 64.2987 27.1943 63.7853C26.8086 63.2851 26.5313 62.7339 26.9028 62.0895C26.9568 62.0195 27.0488 62.1923 27.1359 61.9951C27.6077 60.9276 28.2949 59.9911 29.0405 59.0981C29.1039 59.0222 29.2039 58.9882 29.2988 58.9558C29.8038 58.9181 30.1847 58.66 30.5076 58.2891C30.9271 57.8074 31.4341 57.4783 32.0652 57.3163C33.0644 57.0597 33.7282 56.3818 34.2723 55.5313C34.8969 54.5552 35.2495 53.4599 35.7268 52.4199C36.0215 51.7776 36.4547 51.4972 37.1544 51.7135Z" fill="#AABED8"/>
<path d="M43.2762 33.9507C42.5722 33.8573 42.215 34.4312 41.8164 34.8055C39.8026 36.697 38.8125 39.1055 38.4678 41.806C38.2981 43.1355 38.1811 44.4722 37.9861 45.7976C37.9164 46.2714 37.8194 46.8393 37.1671 46.905C36.5673 46.9654 36.0569 46.9519 35.6227 46.3136C34.8903 45.2367 35.1299 44.0746 35.2011 42.9692C35.2657 41.9679 35.1822 40.9183 35.5942 39.9491C36.1274 38.6947 36.3475 37.3237 37.023 36.1211C37.5625 35.1607 38.401 34.4914 39.2878 33.9058C40.3429 33.2091 41.2922 32.3008 42.5482 31.9646C43.9562 31.5878 45.2987 30.9124 46.8127 30.9843C47.1846 31.002 47.5637 31.0288 47.9223 30.8702C47.9878 30.8412 48.076 30.8259 48.1432 30.8439C48.7855 31.0159 49.4226 31.2176 50.1122 30.9772C50.0967 31.3468 49.8091 31.2561 49.7408 31.4207C49.5157 31.6916 49.1986 31.6216 48.9084 31.6397C47.0883 31.7535 45.4576 32.3357 44.0745 33.5566C43.8513 33.7536 43.6752 34.0916 43.2762 33.9507Z" fill="#022969"/>
<path d="M37.1544 51.7135C36.1064 51.7341 35.8334 52.5068 35.552 53.3136C35.2321 54.2311 34.797 55.1019 34.2609 55.9143C33.7529 56.6839 33.0839 57.3033 32.1667 57.4849C31.4146 57.6338 30.9278 58.0908 30.4663 58.6112C30.142 58.977 29.7824 59.1758 29.2903 59.0933C29.1404 58.5813 29.6228 58.0598 29.2646 57.5517C28.5751 56.3097 27.7173 55.1571 27.267 53.7894C27.1765 53.5145 26.9809 53.2462 27.1741 52.9384C27.7646 52.2318 28.584 52.0714 29.4306 51.8221C31.1812 51.3064 32.7945 50.4283 34.1345 49.1664C34.5437 48.7811 34.7305 48.7663 35.0708 49.1494C35.2018 49.297 35.3671 49.6564 35.6393 49.264C36.103 50.106 36.565 50.9492 37.1544 51.7135Z" fill="#B6C9E0"/>
<path d="M37.7217 52.009C37.7415 51.8782 37.7869 51.759 37.938 51.7462C40.0731 51.5656 40.4305 49.7692 40.0372 48.2101C39.5478 46.27 39.4469 44.3257 39.5315 42.3593C39.5751 41.3447 39.7331 40.3252 40.2688 39.4228C40.3598 39.2696 40.3961 38.9402 40.7302 39.1213C40.9657 39.3658 40.9222 39.6702 40.914 39.967C40.7478 40.5576 40.936 41.1472 40.9245 41.7372C40.9938 42.9671 41.5134 44.0212 42.2013 45.01C42.3535 45.2289 42.5884 45.405 42.5707 45.7135C42.4453 45.9628 42.3515 46.2133 42.4788 46.4958C43.0093 47.6724 43.3314 48.9363 44.0283 50.0454C44.5456 50.8688 44.9739 51.7393 44.9996 52.7505C45.0123 53.2491 45.3332 53.6211 45.5787 54.0223C45.5789 54.1101 45.5421 54.1766 45.4686 54.224C42.7341 54.6366 40.2348 54.0611 37.9862 52.4401C37.8436 52.3372 37.7335 52.1995 37.7217 52.009Z" fill="#02153F"/>
<path d="M43.2758 33.9506C44.6548 32.6861 46.2009 31.7457 48.0989 31.5182C48.6422 31.4532 49.193 31.4514 49.7404 31.4207C49.9274 31.4329 50.1143 31.4451 50.3012 31.4573C50.5479 31.5578 50.8926 31.2629 51.069 31.6474C52.981 32.1447 54.3321 33.4163 55.5477 34.8802C55.7354 35.1063 55.963 35.2992 56.1721 35.5075C56.8182 36.3759 57.2251 37.358 57.5395 38.3841C57.5498 38.6183 57.5601 38.8526 57.5703 39.0869C57.6945 39.5037 57.6008 39.9303 57.6249 40.3517C57.6302 40.4461 57.6352 40.5622 57.515 40.5997C57.3712 40.6444 57.2782 40.5489 57.2073 40.4465C57.0405 40.206 57.083 39.9194 57.0423 39.6499C56.744 37.675 55.9002 36.0174 54.1173 34.9996C52.2001 33.9052 49.8284 34.2437 48.2026 35.7417C47.054 36.7999 46.1698 38.0019 45.8655 39.5802C45.8029 39.9049 45.8431 40.4749 45.1856 40.3155C44.9314 39.8811 45.183 39.4628 45.2237 39.0378C45.6974 36.8006 46.0129 37.4432 44.2093 36.0398C43.8535 35.763 43.494 35.4926 43.1198 35.24C42.901 35.0923 42.6155 34.9455 42.8207 34.5898C42.9507 34.3613 43.0143 34.0855 43.2758 33.9506Z" fill="#FAFBFC"/>
<path d="M37.7213 52.009C40.013 53.8532 42.6833 54.3071 45.5244 54.1331C45.9573 53.9945 45.9626 54.2969 45.9498 54.5703C45.9215 55.1748 45.7786 55.7389 45.2769 56.1454C45.0909 56.2613 44.8835 56.2868 44.6706 56.2879C43.6008 56.1688 42.6063 55.7888 41.6151 55.3982C40.9319 55.0574 40.2555 54.7013 39.6309 54.2597C39.4169 54.1084 39.1547 53.9815 39.1019 53.6759C38.5644 53.0525 37.634 52.8003 37.4082 51.8826C37.5126 51.9247 37.617 51.9669 37.7213 52.009Z" fill="#3A4764"/>
<path d="M40.7158 40.0078C40.7204 39.7123 40.725 39.4167 40.7297 39.1212C40.9674 38.6414 40.8857 38.0689 41.1701 37.6025C42.0116 38.2608 42.8818 38.905 43.8925 39.245C44.8417 39.5642 45.3108 40.1426 45.3725 41.1075C45.416 41.347 45.4292 41.583 45.2891 41.8001C44.9523 42.045 44.6125 41.8719 44.2977 41.7698C43.0208 41.3555 41.8182 40.7813 40.7158 40.0078Z" fill="#A0ABBB"/>
<path d="M45.2185 41.0714C45.0729 40.9366 45.0652 40.7555 45.0853 40.5833C45.1426 40.0917 44.8846 39.8673 44.4539 39.7128C43.3438 39.3146 42.3512 38.6928 41.3702 38.0483C41.1781 37.9221 41.2091 37.7625 41.1709 37.6026C41.2621 37.1029 41.4656 36.6532 41.7719 36.249C42.0386 36.2164 42.2515 36.3521 42.4568 36.4859C43.305 37.0388 44.1461 37.6025 45.019 38.1169C45.3369 38.3043 45.5787 38.5389 45.3827 38.9559C45.3368 39.4007 45.2909 39.8455 45.245 40.2903C45.4202 40.5569 45.4659 40.8191 45.2185 41.0714Z" fill="#C5CDD6"/>
<path d="M45.3824 38.9559C45.4143 38.6093 45.2172 38.4436 44.9373 38.2715C43.8708 37.6156 42.825 36.926 41.7715 36.249C41.9412 35.5821 42.312 35.0423 42.821 34.5898C42.8314 34.8494 43.0103 34.9592 43.2063 35.0941C43.9646 35.6159 44.7079 36.1599 45.4497 36.7051C45.7274 36.9092 45.9106 37.1828 45.812 37.5455C45.6832 38.0195 45.5269 38.4861 45.3824 38.9559Z" fill="#E1E6EC"/>
<path d="M51.0695 31.6475C50.8171 31.57 50.53 31.6326 50.3018 31.4574C50.5017 31.3406 50.6245 31.0351 50.934 31.1856C51.1398 31.2858 51.07 31.4798 51.0695 31.6475Z" fill="#022969"/>
<path d="M45.2184 41.0714C45.2271 40.8111 45.2359 40.5509 45.2447 40.2905C45.6675 40.1875 45.6051 39.8037 45.6765 39.5136C46.2722 37.0941 47.6914 35.3865 50.0177 34.4554C51.9434 33.6848 54.3636 34.3989 55.6694 36.0353C56.6345 37.2447 57.2565 38.552 57.2663 40.1187C57.2672 40.2606 57.2563 40.4292 57.5709 40.495C57.5709 40.0093 57.5709 39.548 57.5709 39.0868C57.809 39.5241 57.6291 40.007 57.7209 40.4603C57.7182 40.5587 57.7154 40.657 57.7125 40.7553C57.7401 43.5474 55.5413 46.2266 52.6593 46.9201C51.6995 47.151 50.7397 47.2138 49.7733 46.9699C48.1236 46.6155 46.8394 45.7402 45.9594 44.2891C45.6146 43.7112 45.4215 43.0699 45.1895 42.445C45.1103 42.2317 45.0524 42.0172 45.2228 41.816C45.2213 41.5678 45.2199 41.3196 45.2184 41.0714Z" fill="#BFDFFC"/>
<path d="M27.1747 52.9383C27.6043 54.2149 28.1409 55.4379 28.9221 56.5463C29.1177 56.8239 29.2508 57.1456 29.4126 57.447C29.7116 58.0717 29.3545 58.5702 29.0328 59.0175C28.3176 60.012 27.6679 61.0456 27.0319 62.0898C26.8067 62.7399 26.9438 63.3167 27.4308 63.7876C27.8404 64.1838 28.2863 64.5426 28.7161 64.9179C28.6318 65.4749 28.2431 65.2087 27.9848 65.1549C27.5282 65.0597 27.1241 64.776 26.6436 64.7438C26.0946 64.3154 25.7338 63.7175 25.2692 63.2128C24.4773 62.209 24.4384 61.1926 25.1191 60.0931C25.594 59.3259 26.1725 58.6304 26.6106 57.8427C26.7085 57.6668 26.9753 57.4155 26.5352 57.2883C26.2819 56.9262 26.242 56.4793 26.0511 56.0929C26.5294 54.9926 25.8024 54.1151 25.5069 53.1579C25.4238 52.8887 25.165 52.6455 25.3853 52.3317C26.377 52.0405 26.5966 52.1149 27.1747 52.9383Z" fill="#3C4C72"/>
<path d="M26.5955 57.3023C26.7244 57.2408 26.9102 57.095 26.9705 57.1356C27.0939 57.2186 27.048 57.4113 26.9775 57.5409C26.7759 57.9113 26.5707 58.2811 26.3428 58.6356C26.1149 58.9901 25.8696 59.335 25.6114 59.6681C24.7527 60.7758 24.4737 61.9174 25.3708 63.1436C25.0905 63.7203 24.4978 63.9714 24.0677 64.3931C23.3515 63.9433 23.3083 63.1681 23.2605 62.4729C23.1819 61.3292 23.1905 60.1791 23.3161 59.0274C23.5464 56.916 23.0842 55.0431 21.2369 53.7281C20.8481 53.4514 20.5076 53.1161 20.1957 52.7567C20.0237 52.5585 19.7796 52.3615 19.974 52.0408C20.4909 52.0046 20.9817 52.2891 21.5057 52.1649C21.848 52.2629 22.1902 52.361 22.5325 52.459C24.3779 53.1602 25.6112 55.3898 25.1134 57.1214C24.8346 57.6643 24.0971 58.0146 24.4459 58.8695C24.8666 58.7604 25.1882 58.4753 25.5165 58.1831C25.8629 57.8747 26.099 57.4271 26.5955 57.3023Z" fill="#014582"/>
<path d="M24.9417 57.167C25.3069 55.6038 24.3596 53.5226 22.94 52.7623C22.7906 52.6823 22.6117 52.6365 22.5332 52.4591C23.4899 52.5489 24.4342 52.3628 25.3855 52.3318C25.6335 52.9718 25.8248 53.642 26.1449 54.2437C26.4871 54.8866 26.5957 55.4641 26.1262 56.069C25.8844 56.6001 25.5574 57.0392 24.9417 57.167Z" fill="#022B57"/>
<path d="M19.9739 52.0409C20.1697 52.6788 20.6956 53.0791 21.1814 53.4157C23.3432 54.9143 23.7732 56.9782 23.4866 59.4368C23.3277 60.8001 23.2354 62.22 23.7018 63.581C23.7993 63.8656 23.8766 64.154 24.1239 64.3536C24.4503 64.5017 24.3275 64.8892 24.5276 65.1044C26.2377 66.1914 28.0389 66.7066 30.0902 66.2434C31.5777 65.9075 32.465 66.3846 33.277 67.7311C33.6766 68.3937 33.9868 69.104 34.4364 69.7438C35.0955 70.6817 35.9508 71.3229 37.0195 71.7058C37.3194 71.8133 37.6625 71.874 37.78 72.2454C37.791 72.6181 37.7828 72.9904 37.7852 73.3629C37.7597 73.6127 37.8454 73.8719 37.7205 74.113C35.9349 73.4689 34.1735 72.7767 32.6529 71.5979C31.8468 70.9729 31.0939 70.2837 30.1666 69.8148C29.0457 69.2479 27.838 68.9155 26.6877 68.4295C23.7361 67.1825 22.3404 65.1416 22.0787 62.0993C21.9295 60.3654 21.8305 58.6254 21.6142 56.8999C21.5182 56.1335 21.0961 55.4513 20.5145 54.8981C19.689 54.113 19.0493 53.1893 18.6103 52.1421C18.0866 50.8931 18.3241 49.5836 18.3926 48.2948C18.4984 46.304 19.4483 44.5115 19.7803 42.5785C20.145 40.4558 20.6888 38.3944 21.4502 36.3813C21.6849 35.7608 22.1814 35.2207 22.0894 34.4889C22.5899 34.3354 23.0903 34.1816 23.5907 34.0278C23.8239 34.2155 23.8252 34.453 23.7283 34.7051C22.533 37.8129 21.6995 41.0211 21.0403 44.2802C20.8414 45.264 20.3419 46.1451 19.9771 47.0722C19.6699 47.4154 18.9676 47.4192 19.0766 48.1201C19.1092 49.0916 18.9885 50.0645 19.1904 51.0362C19.2934 51.5321 19.5205 51.8554 19.9739 52.0409Z" fill="#0058A1"/>
<path d="M19.9771 47.0721C19.7991 46.5117 20.1883 46.1076 20.3791 45.6539C21.0386 44.0854 21.2357 42.4002 21.6101 40.7622C22.076 38.7234 22.8056 36.7737 23.4881 34.8073C23.5806 34.5405 23.6753 34.304 23.5906 34.0276C23.8926 33.9165 24.2 33.818 24.4944 33.6894C24.6934 33.6025 24.763 33.6825 24.8014 33.8557C24.5375 34.6998 24.1853 35.5171 24.03 36.3942C23.6866 37.2131 23.5015 38.0708 23.4027 38.9498C23.1856 39.526 23.1172 40.1261 23.1156 40.7368C22.8735 41.166 23.0106 41.6392 22.9588 42.0905C22.7061 42.7941 22.8397 43.5244 22.8427 44.2392C22.8467 45.1733 22.4348 45.8107 21.6442 46.2343C21.0962 46.5279 20.5333 46.7938 19.9771 47.0721Z" fill="#03417B"/>
<path d="M16.5151 51.128C16.7086 51.1048 16.5864 50.7208 16.8344 50.8121C17.0976 50.909 17.1541 51.2011 17.1857 51.4381C17.3527 52.6887 17.7697 53.8551 18.3657 54.9555C18.8811 55.9072 19.2068 56.9088 19.3812 57.9757C19.6771 59.7864 20.0019 61.5926 20.3315 63.3977C20.8049 65.9897 22.2768 68.0443 23.9001 70.0233C24.4413 70.6831 25.1275 71.3373 24.6322 72.342C24.7051 72.6632 24.4487 72.832 24.2961 73.0416C23.9446 73.5244 23.6349 74.026 23.5226 74.622C23.3973 75.287 23.5349 75.4157 24.2085 75.2929C24.4031 75.2574 24.5927 75.2044 24.7809 75.1422C25.9282 74.7185 26.2319 74.817 26.5396 75.7095C26.3162 76.3666 25.8743 76.9077 25.5662 77.5209C25.467 77.7184 25.2973 77.8742 25.0486 77.8907C24.8718 77.0425 24.479 76.3981 23.6046 76.0678C23.1674 75.9027 22.8498 75.531 22.7901 74.9904C22.7159 74.318 22.3723 73.7753 21.8373 73.3598C20.4657 72.2948 19.7011 70.7682 18.7893 69.354C18.669 69.1674 18.5659 68.9688 18.4666 68.7699C17.944 67.7221 17.4627 67.4775 16.3165 67.7096C16.123 67.7488 15.9428 67.8713 15.7589 67.6992C15.8836 67.4049 16.1751 67.3554 16.4271 67.2658C16.8219 67.1253 16.9221 66.8381 16.7901 66.493C16.6499 66.1265 16.36 66.356 16.1507 66.4232C15.5061 66.63 14.8428 66.7656 14.1957 66.9612C13.9803 67.0262 13.7155 67.1223 13.5605 66.9223C13.3699 66.6762 13.5898 66.4426 13.7357 66.2557C14.1822 65.6835 14.6143 65.0999 15.0704 64.535C15.5899 63.8916 16.0788 63.2259 16.4732 62.4959C16.8543 61.7906 16.9719 61.0318 16.9134 60.2421C16.8546 59.4488 16.3157 58.9233 15.5092 58.8465C15.1917 58.8162 14.8523 58.9074 14.5668 58.6866C14.7047 58.4328 14.9496 58.5029 15.1643 58.495C16.0937 58.4611 16.2859 58.2566 16.3699 57.3178C16.4677 56.2242 16.0366 55.2248 15.8548 54.1814C15.7404 53.5245 15.6527 52.8603 15.4101 52.2321C15.3223 52.0049 15.2856 51.7429 15.0045 51.6508C15.405 51.1789 15.927 51.058 16.5151 51.128Z" fill="#0184E4"/>
<path d="M14.5668 58.6864C14.8661 58.6713 15.1657 58.6387 15.4645 58.6445C16.41 58.6627 17.0357 59.2779 17.1242 60.2291C17.2591 61.68 16.6114 62.8454 15.7803 63.9397C15.0467 64.9056 14.2914 65.855 13.4088 66.9873C14.5584 66.6591 15.4862 66.3879 16.4185 66.1332C16.6248 66.0768 17.0149 65.828 17.0093 66.1884C17.0036 66.5586 17.3922 67.113 16.7439 67.3555C16.4184 67.4773 16.0875 67.585 15.759 67.699C14.6337 68.0281 13.4997 68.3305 12.3866 68.6965C11.7559 68.9039 11.6052 68.6811 11.6403 68.0996C11.6606 67.7644 11.7304 67.4787 11.9349 67.1981C12.818 65.9863 13.6905 64.7664 14.5439 63.5335C15.0314 62.8291 15.4042 62.0663 15.452 61.1863C15.4775 60.7171 15.4308 60.2348 14.9451 60.034C14.4573 59.8324 14.0179 60.0666 13.6491 60.4053C13.2486 60.773 13.1689 61.259 13.1506 61.7725C13.1325 62.2819 12.2315 62.8654 11.7519 62.6942C11.4972 62.6032 11.6226 62.4076 11.6309 62.2521C11.7327 60.3431 12.8897 59.3 14.5668 58.6864Z" fill="#F3FBFC"/>
<path d="M13.4987 82.8894C14.5195 82.5819 15.4207 82.3013 16.3285 82.0441C16.5331 81.9861 16.9003 81.7272 16.938 82.094C16.9769 82.4735 17.2816 83.0729 16.6828 83.2682C15.138 83.7723 13.5689 84.202 12.0109 84.6663C11.7277 84.7507 11.5978 84.687 11.5827 84.3665C11.5618 83.9273 11.6253 83.5386 11.8974 83.1669C12.814 81.9143 13.707 80.6445 14.6076 79.3802C15.0363 78.7783 15.3273 78.1197 15.3904 77.3765C15.4297 76.9154 15.4246 76.4306 14.9618 76.1795C14.469 75.9122 14.0437 76.1891 13.6627 76.495C13.2378 76.8362 13.1253 77.3153 13.0937 77.8329C13.0656 78.2934 12.1554 78.8638 11.7205 78.7105C11.5204 78.6399 11.5866 78.4711 11.5825 78.3349C11.5239 76.41 13.724 74.4844 15.643 74.7781C16.5387 74.9152 17.1287 75.7333 17.0656 76.7725C16.9963 77.9126 16.5044 78.89 15.8575 79.8C15.1342 80.8173 14.2276 81.6961 13.4987 82.8894Z" fill="#F5FDFD"/>
<path d="M16.5155 51.1279C16.0121 51.3021 15.5086 51.4764 15.0051 51.6507C14.5747 51.5156 14.752 51.1523 14.7503 50.8899C14.7363 48.7147 14.7439 46.5394 14.7426 44.3641C14.7426 44.3186 14.7145 44.2731 14.676 44.1564C13.9043 44.9097 13.2114 45.7263 12.2016 46.1644C11.9503 45.3498 12.0451 44.7886 12.8066 44.2836C13.6563 43.7202 14.259 42.8523 14.8701 42.0246C15.2773 41.4729 15.8378 41.3073 16.4984 41.5258C16.5073 41.9707 16.5161 42.4159 16.525 42.8609C16.5219 45.6166 16.5187 48.3723 16.5155 51.1279Z" fill="#F1F8F9"/>
<path d="M25.0494 77.8905C25.6206 77.254 25.9323 76.448 26.4359 75.7672C26.55 75.636 26.5303 75.3905 26.7747 75.3696C27.2463 75.4346 27.6429 75.6141 27.852 76.0785C27.7436 76.6379 27.3785 77.0552 27.0509 77.4888C26.5867 78.103 26.1016 78.7014 25.6041 79.4577C26.2919 79.1696 26.9174 79.0201 27.5378 78.8507C27.9078 78.7497 28.3701 78.4579 28.6553 78.7997C28.9044 79.0981 28.8507 79.5814 28.6569 79.9775C26.9646 80.5037 25.2724 81.03 23.5801 81.5562C22.9914 81.0216 23.3171 80.4691 23.612 79.9823C24.0497 79.2599 24.5663 78.5854 25.0494 77.8905Z" fill="#E9F2F5"/>
<path d="M37.8508 76.8187C37.8517 76.7203 37.8525 76.622 37.8534 76.5236C38.0273 76.4456 38.2067 76.469 38.3628 76.5481C39.3315 77.0391 40.3743 76.9466 41.3867 76.8636C45.7824 76.5031 50.1857 76.5621 54.5862 76.6209C56.0336 76.6402 57.479 76.7908 58.9314 76.6893C59.1645 76.673 59.6026 76.5433 59.4921 77.0876C57.4164 77.605 55.4179 78.3697 53.3774 79.0003C48.3037 80.5683 43.2371 82.1589 38.1669 83.738C38.0729 83.7673 37.9693 83.7657 37.8701 83.7787C37.6323 83.4125 37.7563 83.022 37.7938 82.6373C37.8701 81.0264 37.6044 79.4256 37.651 77.8156C37.661 77.4724 37.6057 77.1152 37.8508 76.8187Z" fill="#A5B1BF"/>
<path d="M28.6563 79.9776C28.6846 78.7447 28.6843 78.7437 27.4817 79.076C26.7875 79.2679 26.0945 79.4637 25.4003 79.6555C25.3807 79.6609 25.354 79.6404 25.2832 79.615C25.9846 78.3319 27.0909 77.34 27.7688 76.0561C27.9418 75.7952 27.9512 75.4036 28.3525 75.3249C29.3276 74.1124 30.5113 74.7443 31.6193 74.9954C33.1399 75.3401 34.6301 75.826 36.1743 76.0597C36.7993 76.1543 37.3026 76.3982 37.7324 76.837C37.8117 78.0343 37.8382 79.2314 37.7183 80.4279C37.2552 79.2368 37.2551 79.2269 35.8369 79.2392C33.8024 79.2568 31.7964 78.9814 29.7947 78.6682C29.052 78.552 28.8891 78.6637 28.8432 79.4527C28.8319 79.6459 28.8874 79.8628 28.6563 79.9776Z" fill="#007DDC"/>
<path d="M37.7188 80.4279C37.7234 79.2309 37.7281 78.0339 37.7328 76.8369C37.7725 76.8312 37.812 76.8251 37.8515 76.8186C37.8448 78.7587 37.9268 80.6996 37.7941 82.6378C37.7692 81.9007 37.744 81.1643 37.7188 80.4279Z" fill="#919BA8"/>
<path d="M59.4931 77.0874C59.4699 76.906 59.3587 76.811 59.1857 76.844C57.5707 77.1525 55.9592 76.8788 54.3443 76.8471C51.5929 76.793 48.839 76.7954 46.0875 76.8447C44.1972 76.8787 42.3079 77.0133 40.4207 77.1404C39.4882 77.2032 38.6353 77.0398 37.8544 76.5236C37.8469 76.0676 37.8395 75.6116 37.832 75.1557C37.788 74.9092 37.7244 74.6614 37.8748 74.4263C38.9754 75.2616 40.2106 74.8282 41.3586 74.6897C43.7412 74.4023 46.125 74.3328 48.5182 74.2531C51.7619 74.145 55.0013 73.8675 58.2497 73.9833C60.4714 74.0625 62.6461 74.4814 64.7883 75.0649C64.8912 75.0929 64.966 75.2241 65.0537 75.3072C63.2001 75.9005 61.3466 76.494 59.4931 77.0874Z" fill="#919BA8"/>
<path d="M28.3533 75.325C28.1022 75.5236 28.1405 75.9531 27.7696 76.0562C27.4389 75.8249 27.12 75.5727 26.7183 75.4684C26.5103 75.091 26.7784 74.7546 26.8178 74.3996C26.9173 73.5017 26.7632 73.2568 25.9023 73.0494C25.5567 72.8281 25.1487 72.6635 25.0947 72.1734C25.5307 71.75 26.098 71.6408 26.6605 71.5793C28.2217 71.4085 29.0871 72.6604 28.6284 74.399C28.5463 74.7102 28.4455 75.0164 28.3533 75.325Z" fill="#B8C5D1"/>
<path d="M25.0941 72.1733C25.3391 72.4161 25.5841 72.6589 25.8291 72.9017C25.1066 73.5438 25.0964 74.5034 24.7531 75.3145C24.3912 75.5649 23.946 75.4693 23.5503 75.6015C23.2476 75.7027 23.2736 75.4156 23.2666 75.2239C23.2338 74.3266 23.619 73.587 24.1533 72.907C24.3058 72.7128 24.4724 72.5298 24.6325 72.3418C24.7863 72.2857 24.9402 72.2295 25.0941 72.1733Z" fill="#D8E2E9"/>
<path d="M37.8742 74.4264C37.86 74.6699 37.8459 74.9133 37.8316 75.1564C37.6347 74.8254 37.785 74.4581 37.7207 74.1133C37.7363 73.8661 37.7517 73.6191 37.7672 73.3721L37.8404 73.3731C37.8517 73.7242 37.8629 74.0753 37.8742 74.4264Z" fill="#616873"/>
<path d="M63.126 54.1418C63.3223 53.5206 63.7412 53.0592 64.2343 52.668C65.1744 51.922 65.9864 51.8575 66.9971 52.4933C69.7671 54.2361 72.5332 55.9857 75.2801 57.7646C76.037 58.2548 76.6538 58.9265 77.1361 59.6961C77.7144 60.6188 77.6673 61.5793 77.2347 62.5452C76.2257 63.9742 74.9234 65.1267 73.6673 66.3221C72.5956 67.342 71.4731 67.1648 70.3337 66.4453C70.0444 66.0558 69.755 65.6663 69.4655 65.2767C69.6426 64.9327 69.9401 64.6995 70.2316 64.4663C71.1337 63.7447 71.9287 62.9193 72.6334 62.0067C73.2301 61.234 73.1458 60.5847 72.3186 60.0513C69.5692 58.2782 66.7984 56.5386 64.0329 54.7907C63.7186 54.5921 63.3612 54.4517 63.126 54.1418Z" fill="#004EBD"/>
<path d="M63.1258 54.1418C64.183 54.4953 65.0206 55.229 65.9498 55.799C68.1842 57.1695 70.3881 58.5899 72.5979 60.0002C73.267 60.4273 73.4975 61.104 73.055 61.7286C72.0724 63.1155 70.8901 64.325 69.4651 65.2765C67.2813 62.3096 65.0583 59.3699 63.108 56.2384C62.9201 55.5379 62.7915 54.8379 63.1258 54.1418Z" fill="#2D3036"/>
<path d="M37.8408 73.3729C37.8408 73.3729 37.7666 73.3721 37.7671 73.372C37.7482 72.9684 37.7288 72.5649 37.7094 72.1614C37.337 71.5732 37.5319 70.9148 37.4751 70.2878C37.5496 69.8607 37.2625 69.7396 36.9393 69.6086C35.928 69.1992 35.77 69.0134 35.853 68.0095C35.9744 66.5407 36.3271 65.0959 36.3368 63.6129C36.3377 63.4885 36.4121 63.3764 36.5131 63.2927C36.7063 63.3512 36.8995 63.4097 37.0927 63.4682C38.4959 63.6892 38.9786 64.2509 38.9782 65.6606C38.9781 66.0354 38.9703 66.4088 38.9061 66.7801C38.715 67.8847 38.4882 68.993 39.1195 70.0444C37.8526 70.1068 37.8526 70.1068 37.8704 71.5716C37.8701 71.9705 37.8697 72.3694 37.8694 72.7682C37.8599 72.9697 37.8504 73.1713 37.8408 73.3729Z" fill="#3C496A"/>
<path d="M39.1195 70.0443C38.3157 69.4877 38.4385 68.6733 38.5239 67.8752C38.6034 67.1327 38.6827 66.3896 38.7929 65.6513C38.9272 64.7509 38.5709 64.1642 37.7363 63.8303C37.5097 63.7397 37.3066 63.5905 37.0928 63.4681C37.3066 63.3039 37.4232 63.0742 37.4048 62.8176C37.3224 61.6658 37.4873 60.5247 37.5794 59.3852C37.7113 57.7549 37.8226 56.119 38.144 54.5067C38.2575 53.9374 38.5407 53.6739 39.1024 53.6758C39.9174 54.2196 40.7272 54.7719 41.6138 55.1974C41.1165 55.9775 41.3088 56.8134 41.4181 57.6415C41.6999 59.7761 42.095 61.8841 42.8689 63.9055C43.1379 64.6083 43.3006 65.3402 43.4013 66.0854C43.4627 66.5403 43.604 66.9601 43.9183 67.308C44.0363 67.6186 43.9749 67.8815 43.7093 68.0895C43.2804 68.6924 43.1208 69.4447 42.5541 69.9851C42.0679 70.4486 41.5651 70.6108 40.9323 70.4619C40.3287 70.3199 39.7238 70.1833 39.1195 70.0443Z" fill="#A0B2CB"/>
<path d="M44.6093 56.1149C44.8154 56.107 45.0216 56.0991 45.2278 56.0912C45.9793 55.9492 46.7297 55.9906 47.4787 56.1034C47.6934 56.2109 47.7422 56.3905 47.5062 56.4704C46.7545 56.7248 47.0021 57.1992 47.21 57.665C47.5583 58.4456 48.0216 59.155 48.5505 59.8265C50.4218 62.2023 52.3879 64.5065 54.0503 67.0406C54.2845 67.3976 54.6516 67.7471 54.3901 68.2555C53.3496 68.5782 52.4274 69.3102 51.251 69.1629C50.8526 68.9687 50.72 68.593 50.6113 68.2077C50.4366 67.5877 50.3011 66.9574 50.1332 66.3356C49.8735 65.3741 49.6994 65.2342 48.708 65.153C48.5595 65.1408 48.4118 65.1272 48.2699 65.0778C47.738 64.8193 47.2985 64.4571 47.0508 63.9086C46.4119 62.4944 45.5677 61.1875 44.9065 59.7851C44.4999 58.9225 44.2046 58.0222 43.9903 57.0944C43.8672 56.5619 44.0441 56.2146 44.6093 56.1149Z" fill="#74869E"/>
<path d="M54.39 68.2557C54.2267 67.3594 53.63 66.7001 53.1115 66.0139C51.3318 63.6584 49.5146 61.3312 47.7274 58.9813C47.4739 58.6481 47.2912 58.2567 47.1037 57.8784C46.5338 56.7281 46.5597 56.6621 47.6342 56.2327C47.7212 55.8173 48.0762 55.9027 48.3456 55.8795C48.7139 55.8479 49.0791 55.7188 49.4543 55.8133C49.5474 55.8511 49.6469 55.8982 49.6772 55.9975C50.1945 57.6941 51.5055 58.8295 52.6053 60.1076C53.6131 61.2788 54.6007 62.4688 55.6578 63.5975C55.7766 63.7243 55.8959 63.8672 55.752 64.0556C55.7501 64.6558 55.7483 65.256 55.7464 65.8561C55.549 66.0275 55.6068 66.2615 55.6032 66.4753C55.5887 67.3368 55.2852 67.9965 54.39 68.2557Z" fill="#606E83"/>
<path d="M43.7086 68.0894C43.6674 67.8161 43.8692 67.6137 43.9195 67.3672C44.0383 66.2811 44.62 65.5072 45.6387 65.1834C46.356 64.9554 47.1264 64.8041 47.9028 64.9667C48.191 65.0702 48.2568 65.3075 48.2202 65.5688C48.1093 66.3608 48.5034 67.0174 48.7879 67.6972C48.9647 68.1198 49.3021 68.4228 49.7261 68.6184C49.9483 68.7208 50.2048 68.7747 50.335 69.0186C50.0394 69.4971 49.5875 69.3447 49.196 69.2527C48.0865 68.992 46.9834 68.7013 45.8854 68.3952C45.3198 68.2375 44.7582 68.1975 44.1959 68.342C43.9235 68.412 43.76 68.3897 43.7086 68.0894Z" fill="#383C44"/>
<path d="M50.3359 69.0188C48.818 68.5817 47.8419 67.0987 48.0622 65.5588C48.0882 65.3771 48.087 65.213 47.915 65.0988C47.936 64.8709 48.055 64.8511 48.2302 64.9502C49.9699 64.9671 50.0448 65.0257 50.4647 66.76C50.6638 67.5821 50.772 68.4332 51.2515 69.1632C50.9293 69.2232 50.6416 69.0638 50.3359 69.0188Z" fill="#39466A"/>
<path d="M49.9792 47.8177C50.9609 49.3093 52.1452 50.648 53.199 52.0852C53.7406 52.8238 54.2878 53.5582 54.8325 54.2946C54.6605 54.7892 54.3111 54.9487 53.8027 54.8931C53.2394 54.8315 52.6707 54.9448 52.1036 54.7593C51.5626 54.5824 51.2443 54.2124 50.937 53.7771C50.7851 53.562 50.5364 53.4153 50.3314 53.2377C49.9181 53.2762 49.8445 52.8789 49.6143 52.6814C48.5808 51.2701 47.4463 49.9364 46.4245 48.5167C46.2462 48.2689 45.9368 48.0454 46.1231 47.6592C46.3038 47.4915 46.5271 47.4734 46.7476 47.5133C47.6832 47.6828 48.61 47.6079 49.5354 47.4343C49.7772 47.4533 49.9378 47.5668 49.9792 47.8177Z" fill="#0288F0"/>
<path d="M55.7524 64.0557C55.0169 63.1952 54.2777 62.3378 53.5466 61.4736C52.4258 60.1487 51.171 58.9353 50.1863 57.4984C49.8675 57.0332 49.5316 56.5467 49.5921 55.9255C49.9801 55.4038 50.9793 55.1234 51.7271 55.3264C52.6109 56.1152 53.1942 57.1434 53.901 58.0719C54.8352 59.2992 55.7313 60.5554 56.6437 61.7992C56.1466 62.2291 55.9047 62.773 55.8987 63.4297C55.8968 63.6457 55.9612 63.8849 55.7524 64.0557Z" fill="#425061"/>
<path d="M51.7265 55.3263C51.004 55.4877 50.2574 55.5634 49.5914 55.9255C48.9487 56.0901 48.2655 55.9967 47.634 56.2326C46.8321 56.1814 46.016 56.3726 45.2275 56.0913C45.4844 55.6027 45.7289 55.1156 45.783 54.547C45.8064 54.3018 45.7807 54.1665 45.5244 54.1331C45.5269 54.0842 45.5291 54.0354 45.531 53.9866C46.0229 53.641 46.6255 53.7025 47.1697 53.5469C48.0549 53.2939 48.9417 53.054 49.7582 52.6138C49.9492 52.8217 50.1402 53.0297 50.3312 53.2376C50.6695 54.0185 51.4255 54.5204 51.7265 55.3263Z" fill="#2A3246"/>
<path d="M49.9791 47.8177C49.8562 47.7184 49.7333 47.6191 49.6104 47.5198C49.4533 47.2443 49.5581 47.0106 49.7274 46.7871C51.4901 47.1083 53.1468 46.8294 54.6452 45.8364C56.2135 44.797 57.1357 43.3006 57.5636 41.4854C57.6205 41.2438 57.6628 40.9988 57.712 40.7554C58.0637 41.3169 57.7699 41.9119 57.6432 42.4088C57.0791 44.6212 55.8198 46.3553 53.6318 47.2034C52.4776 47.6508 51.2453 47.9032 49.9791 47.8177Z" fill="#629DCD"/>
<path d="M37.7113 70.2235C37.7108 70.8695 37.7102 71.5155 37.7095 72.1614C35.5416 71.6268 34.2122 70.1801 33.3148 68.2127C32.9397 67.3905 32.4106 66.6669 31.4435 66.3939C30.9538 66.2556 30.5106 66.351 30.0477 66.4531C28.2873 66.8413 26.6299 66.603 25.0875 65.6405C24.8584 65.4975 24.5951 65.4092 24.3477 65.2956C24.9842 64.7219 25.7262 64.5058 26.5716 64.6396C26.9388 64.5383 27.2508 64.5876 27.5988 64.8011C27.9129 64.9938 28.3066 65.2686 28.7161 64.9178C29.5684 65.4435 30.3317 65.2108 31.0553 64.6431C31.3084 64.4446 31.5605 64.2449 31.813 64.0457C32.545 63.6946 33.1705 63.9158 33.7476 64.4038C34.4602 65.0064 34.8991 65.7785 35.1481 66.6671C35.2764 67.125 35.3598 67.5958 35.5071 68.0473C35.7314 68.7345 36.085 69.3115 36.828 69.5701C37.1776 69.6918 37.5309 69.8525 37.7113 70.2235Z" fill="#01407C"/>
<path d="M37.7108 70.2237C37.4653 70.0991 37.2231 69.9674 36.9736 69.8512C35.9818 69.3895 35.3332 68.6732 35.1545 67.5543C35.0199 66.7114 34.7712 65.8909 34.253 65.1961C33.6513 64.3894 32.88 63.8899 31.8125 64.0459C32.2999 63.581 32.7818 63.1101 33.2762 62.6527C33.8337 62.1369 34.4341 62.0153 35.1084 62.4559C35.5643 62.7537 36.0439 63.0152 36.5128 63.2929C36.5962 64.6912 36.3655 66.0578 36.1196 67.426C36.0458 67.8372 36.047 68.2681 36.0645 68.6879C36.0901 69.3068 36.6657 69.2837 37.0529 69.4203C37.4673 69.5665 37.8051 69.6957 37.7108 70.2237Z" fill="#022650"/>
<path d="M27.0312 62.0898C27.2942 61.1002 27.97 60.3475 28.4997 59.509C28.9034 58.8702 29.5275 58.3189 29.412 57.447C29.847 58.0309 29.484 58.5558 29.2903 59.0932C28.4498 60.0407 27.7677 61.0954 27.1785 62.213C27.1691 62.2308 27.1542 62.2457 27.142 62.2619C27.1051 62.2045 27.0682 62.1472 27.0312 62.0898Z" fill="#D7E3F2"/>
<path d="M49.7581 52.6138C49.6468 52.8522 49.4672 53.0242 49.2219 53.1107C48.023 53.5337 46.8245 53.9617 45.5309 53.9866C44.8609 53.8219 44.8268 53.2065 44.8064 52.7355C44.7655 51.7888 44.3951 50.98 43.9158 50.229C43.1386 49.0114 42.7913 47.6203 42.205 46.328C42.0384 45.961 42.1378 45.7537 42.5433 45.7047C42.8301 45.6518 43.006 45.8602 43.2063 45.997C43.8516 46.4379 44.5483 46.7706 45.2872 47.0199C45.7018 47.1598 46.0824 47.337 46.1346 47.8485C47.3425 49.4369 48.5503 51.0254 49.7581 52.6138Z" fill="#010316"/>
<path d="M46.1348 47.8485C45.9253 47.5228 45.6386 47.3191 45.2597 47.2089C44.2433 46.9133 43.3479 46.3885 42.5434 45.7048C41.555 44.5835 40.8436 43.3343 40.7422 41.8035C40.9064 41.6678 41.0868 41.7131 41.2321 41.8077C42.7634 42.8053 44.3474 43.6938 46.1109 44.2212C46.9882 45.539 48.1707 46.4267 49.7273 46.7871C49.7658 47.0438 49.7014 47.284 49.6101 47.5198C48.7341 47.9399 47.8146 47.8555 46.8951 47.7453C46.6292 47.7135 46.3559 47.5723 46.1348 47.8485Z" fill="#576886"/>
<path d="M46.1107 44.2212C44.4376 44.1407 43.1489 43.1667 41.7843 42.3658C41.4442 42.1662 41.1587 41.8619 40.742 41.8035C40.7234 41.2051 40.4947 40.6098 40.7159 40.0079C40.9772 39.98 41.2032 40.0791 41.4153 40.2133C42.595 40.9601 43.8594 41.5047 45.2222 41.8161C45.3859 42.6667 45.7908 43.4283 46.1107 44.2212Z" fill="#74849A"/>
<path d="M48.2297 64.9501C48.1247 64.9997 48.0198 65.0493 47.9147 65.0988C47.2419 65.0316 46.5848 65.1878 45.9306 65.2834C45.1703 65.3945 44.6719 65.915 44.3325 66.5896C44.2007 66.8517 44.0576 67.1082 43.9198 67.3673C43.5409 67.3703 43.3548 67.0975 43.3239 66.8036C43.1214 64.8783 42.2451 63.1372 41.8387 61.2746C41.4859 59.6575 41.2961 58.0051 41.0215 56.3705C40.9291 55.8205 41.1903 55.4743 41.6135 55.1975C42.5961 55.5559 43.5733 55.9316 44.6095 56.1149C43.9399 56.4504 44.1405 56.9829 44.2795 57.5151C44.7712 59.3975 45.7919 61.0326 46.6835 62.7306C47.1084 63.5398 47.4244 64.4112 48.2297 64.9501Z" fill="#8A9CB4"/>
<path d="M24.9416 57.1669C25.3365 56.801 25.7314 56.4352 26.1263 56.0691C26.5613 56.3739 26.4916 56.8712 26.5962 57.3022C25.9334 58.0656 25.3101 58.8799 24.2603 59.1553C23.9387 58.2781 24.2535 57.6559 24.9416 57.1669Z" fill="#62676F"/>
<path d="M26.5715 64.6396C25.8302 64.8582 25.0888 65.0767 24.3475 65.2955C24.0145 65.0427 24.2445 64.6569 24.125 64.3536C24.2303 63.6307 24.9656 63.5569 25.3716 63.1438C25.8321 63.5937 26.3187 64.0229 26.5715 64.6396Z" fill="#657080"/>
<path d="M24.7529 75.3145C24.8368 74.8027 24.7473 74.2659 24.9707 73.7747C25.1501 73.3803 25.4193 73.0712 25.8289 72.9016C26.9375 72.9543 27.1902 73.2495 27.0316 74.396C26.9811 74.7609 26.8252 75.1112 26.7175 75.4682C26.5607 75.5088 26.6319 75.7643 26.4353 75.7673C26.1338 74.653 25.3953 75.1622 24.7529 75.3145Z" fill="#027CD8"/>
</svg>
