<svg width="100" height="80" viewBox="0 0 100 80" fill="none" xmlns="http://www.w3.org/2000/svg">
<g opacity="0.35">
<path opacity="0.0196" d="M80.9753 69.8309C81.2063 64.4757 69.9195 59.6394 55.7655 59.0288C41.6115 58.4182 29.9501 62.2645 29.7191 67.6198C29.4881 72.9751 40.7749 77.8114 54.9289 78.422C69.0829 79.0326 80.7443 75.1862 80.9753 69.8309Z" fill="#0F0A26"/>
<path opacity="0.0392" d="M80.7095 69.7079C80.9374 64.4237 69.7932 59.6514 55.8181 59.0485C41.843 58.4456 30.3292 62.2406 30.1012 67.5247C29.8733 72.8089 41.0175 77.5813 54.9926 78.1841C68.9677 78.787 80.4815 74.9921 80.7095 69.7079Z" fill="#0F0A26"/>
<path opacity="0.0588" d="M80.4505 69.5953C80.6759 64.3823 69.6746 59.6727 55.8784 59.0762C42.0823 58.4796 30.7156 62.222 30.4902 67.435C30.2648 72.648 41.266 77.3576 55.0622 77.9541C68.8583 78.5507 80.2251 74.8083 80.4505 69.5953Z" fill="#0F0A26"/>
<path opacity="0.0784" d="M80.1914 69.4822C80.4143 64.3403 69.556 59.6936 55.9388 59.1034C42.3215 58.5133 31.1019 62.2032 30.8791 67.3451C30.6562 72.487 41.5145 77.1337 55.1318 77.7238C68.749 78.314 79.9686 74.6241 80.1914 69.4822Z" fill="#0F0A26"/>
<path opacity="0.098" d="M79.9256 69.3591C80.1454 64.2884 69.4296 59.7056 55.9913 59.1232C42.553 58.5408 31.481 62.1793 31.2612 67.25C31.0414 72.3208 41.7572 76.9035 55.1955 77.4859C68.6338 78.0683 79.7058 74.4298 79.9256 69.3591Z" fill="#0F0A26"/>
<path opacity="0.1176" d="M79.6664 69.2458C79.8836 64.2462 69.3108 59.7263 56.0515 59.1504C42.7921 58.5744 31.8673 62.1604 31.6501 67.1601C31.4329 72.1597 42.0057 76.6796 55.265 77.2555C68.5244 77.8315 79.4493 74.2455 79.6664 69.2458Z" fill="#0F0A26"/>
<path opacity="0.1373" d="M79.4073 69.1325C79.6219 64.2041 69.1921 59.7471 56.1117 59.1775C43.0312 58.608 32.2535 62.1417 32.0389 67.0701C31.8243 71.9986 42.2542 76.4556 55.3346 77.0251C68.415 77.5946 79.1927 74.061 79.4073 69.1325Z" fill="#0F0A26"/>
<path opacity="0.1569" d="M79.1405 69.0087C79.352 64.1514 69.0647 59.7584 56.1632 59.1967C43.2617 58.6349 32.6315 62.1172 32.42 66.9745C32.2086 71.8319 42.4958 76.2249 55.3973 76.7866C68.2988 77.3483 78.929 73.8661 79.1405 69.0087Z" fill="#0F0A26"/>
<path opacity="0.1765" d="M78.8709 68.9022C79.0797 64.1165 68.9364 59.7868 56.2151 59.2316C43.4938 58.6764 33.0119 62.1059 32.803 66.8916C32.5941 71.6773 42.7375 76.007 55.4587 76.5622C68.18 77.1174 78.662 73.6879 78.8709 68.9022Z" fill="#0F0A26"/>
<path opacity="0.1961" d="M78.6118 68.788C78.818 64.0734 68.8176 59.8067 56.2752 59.258C43.7328 58.7094 33.398 62.0865 33.1918 66.8011C32.9855 71.5157 42.986 75.7824 55.5284 76.3311C68.0708 76.8797 78.4056 73.5026 78.6118 68.788Z" fill="#0F0A26"/>
<path opacity="0.2157" d="M78.345 68.6641C78.5481 64.0206 68.6902 59.8179 56.3267 59.2771C43.9632 58.7363 33.776 62.0621 33.5729 66.7056C33.3697 71.349 43.2277 75.5517 55.5911 76.0925C67.9546 76.6334 78.1419 73.3075 78.345 68.6641Z" fill="#0F0A26"/>
<path opacity="0.2353" d="M78.0849 68.5494C78.2853 63.9771 68.5703 59.8374 56.3857 59.3032C44.2012 58.769 34.1611 62.0425 33.9606 66.6149C33.7602 71.1872 43.4752 75.3269 55.6598 75.8611C67.8443 76.3953 77.8844 73.1218 78.0849 68.5494Z" fill="#0F0A26"/>
<path opacity="0.2549" d="M77.8247 68.4347C78.0225 63.9335 68.4504 59.8569 56.4447 59.3293C44.439 58.8017 34.5462 62.023 34.3484 66.5242C34.1506 71.0254 43.7227 75.102 55.7284 75.6296C67.7341 76.1572 77.6269 72.9359 77.8247 68.4347Z" fill="#0F0A26"/>
<path opacity="0.2745" d="M77.5645 68.3198C77.7596 63.8897 68.3303 59.8762 56.5036 59.3553C44.6769 58.8344 34.9312 62.0034 34.7361 66.4335C34.541 70.8636 43.9703 74.8771 55.797 75.398C67.6237 75.9189 77.3694 72.7499 77.5645 68.3198Z" fill="#0F0A26"/>
<path opacity="0.2941" d="M77.2976 68.1947C77.4896 63.8358 68.2028 59.8863 56.555 59.3733C44.9072 58.8603 35.3091 61.978 35.1172 66.3369C34.9252 70.6959 44.212 74.6454 55.8598 75.1584C67.5076 75.6714 77.1056 72.5537 77.2976 68.1947Z" fill="#0F0A26"/>
<path opacity="0.3137" d="M77.0374 68.0792C77.2267 63.7914 68.0828 59.905 56.6139 59.3987C45.1449 58.8924 35.6941 61.9579 35.5048 66.2457C35.3156 70.5336 44.4595 74.4199 55.9284 74.9262C67.3973 75.4325 76.8481 72.367 77.0374 68.0792Z" fill="#0F0A26"/>
<path opacity="0.3333" d="M76.7762 67.9635C76.9628 63.7468 67.9617 59.9236 56.6717 59.4241C45.3817 58.9246 36.0781 61.9379 35.8915 66.1546C35.705 70.3713 44.7061 74.1945 55.9961 74.694C67.2861 75.1935 76.5897 72.1802 76.7762 67.9635Z" fill="#0F0A26"/>
<path opacity="0.3529" d="M76.516 67.8474C76.6998 63.7019 67.8415 59.9418 56.7304 59.4491C45.6193 58.9564 36.463 61.9176 36.2791 66.0631C36.0953 70.2087 44.9536 73.9688 56.0647 74.4615C67.1758 74.9542 76.3321 71.993 76.516 67.8474Z" fill="#0F0A26"/>
<path opacity="0.3725" d="M76.2547 67.7313C76.4358 63.6568 67.7203 59.96 56.7881 59.4741C45.8559 58.9882 36.8469 61.8973 36.6658 65.9717C36.4847 70.0462 45.2002 73.743 56.1324 74.2289C67.0645 74.7147 76.0736 71.8057 76.2547 67.7313Z" fill="#0F0A26"/>
<path opacity="0.3922" d="M75.9934 67.6144C76.1717 63.6111 67.5991 59.9775 56.8458 59.4985C46.0925 59.0195 37.2307 61.8765 37.0524 65.8798C36.8741 69.8831 45.4467 73.5167 56.2 73.9957C66.9533 74.4747 75.8151 71.6177 75.9934 67.6144Z" fill="#0F0A26"/>
<path opacity="0.4118" d="M75.7321 67.4975C75.9077 63.5654 67.4778 59.995 56.9034 59.5229C46.329 59.0508 37.6145 61.8558 37.439 65.7879C37.2634 69.7201 45.6933 73.2904 56.2677 73.7625C66.842 74.2346 75.5566 71.4297 75.7321 67.4975Z" fill="#0F0A26"/>
<path opacity="0.4314" d="M75.4698 67.3804C75.6426 63.5194 67.3554 60.0123 56.96 59.5472C46.5645 59.082 37.9973 61.835 37.8245 65.696C37.6518 69.557 45.9389 73.0641 56.3344 73.5292C66.7298 73.9944 75.297 71.2415 75.4698 67.3804Z" fill="#0F0A26"/>
<path opacity="0.451" d="M75.2084 67.2628C75.3784 63.4729 67.234 60.0291 57.0175 59.571C46.8009 59.1128 38.381 61.8137 38.2111 65.6036C38.0411 69.3935 46.1855 72.8372 56.402 73.2954C66.6186 73.7536 75.0385 71.0526 75.2084 67.2628Z" fill="#0F0A26"/>
<path opacity="0.4706" d="M74.946 67.1447C75.1131 63.4259 67.1115 60.0455 57.0739 59.5944C47.0363 59.1432 38.7637 61.7922 38.5966 65.5109C38.4294 69.2297 46.431 72.6101 56.4687 73.0612C66.5063 73.5124 74.7788 70.8634 74.946 67.1447Z" fill="#0F0A26"/>
<path opacity="0.4902" d="M74.6836 67.0263C74.8479 63.3786 66.989 60.0616 57.1303 59.6175C47.2716 59.1735 39.1464 61.7704 38.9821 65.4181C38.8178 69.0657 46.6766 72.3827 56.5353 72.8268C66.394 73.2709 74.5193 70.6739 74.6836 67.0263Z" fill="#0F0A26"/>
<path opacity="0.5098" d="M74.4212 66.9077C74.5826 63.3312 66.8665 60.0776 57.1867 59.6406C47.5069 59.2036 39.529 61.7487 39.3675 65.3252C39.2061 68.9017 46.9222 72.1553 56.602 72.5923C66.2818 73.0293 74.2597 70.4842 74.4212 66.9077Z" fill="#0F0A26"/>
<path opacity="0.5294" d="M74.1662 66.7976C74.3252 63.2922 66.752 60.1013 57.2512 59.6705C47.7503 59.2396 39.9194 61.732 39.7605 65.2374C39.6015 68.7428 47.1746 71.9337 56.6755 72.3645C66.1764 72.7954 74.0073 70.3029 74.1662 66.7976Z" fill="#0F0A26"/>
<path opacity="0.549" d="M73.9028 66.6782C74.0588 63.2439 66.6284 60.1165 57.3064 59.6928C47.9844 59.2692 40.301 61.7098 40.1449 65.144C39.9888 68.5783 47.4193 71.7057 56.7412 72.1294C66.0632 72.553 73.7467 70.1124 73.9028 66.6782Z" fill="#0F0A26"/>
<path opacity="0.5686" d="M73.6393 66.5582C73.7924 63.1951 66.5047 60.1312 57.3616 59.7147C48.2186 59.2983 40.6825 61.6871 40.5293 65.0502C40.3761 68.4133 47.6639 71.4772 56.8069 71.8937C65.95 72.3101 73.4861 69.9213 73.6393 66.5582Z" fill="#0F0A26"/>
<path opacity="0.5882" d="M73.3822 66.4467C73.5328 63.1547 66.388 60.1536 57.4239 59.7435C48.4597 59.3334 41.0707 61.6697 40.9201 64.9617C40.7695 68.2537 47.9143 71.2548 56.8785 71.6649C65.8427 72.0749 73.2316 69.7387 73.3822 66.4467Z" fill="#0F0A26"/>
<path opacity="0.6078" d="M73.1177 66.3256C73.2654 63.1048 66.2632 60.1673 57.478 59.7645C48.6927 59.3617 41.4512 61.6462 41.3035 64.8671C41.1558 68.088 48.158 71.0255 56.9432 71.4282C65.7285 71.831 72.97 69.5465 73.1177 66.3256Z" fill="#0F0A26"/>
<path opacity="0.6275" d="M72.8432 66.2119C72.9879 63.0624 66.1291 60.1888 57.5236 59.7933C48.9182 59.3979 41.8247 61.6305 41.68 64.7799C41.5353 67.9293 48.3941 70.803 56.9996 71.1984C65.605 71.5938 72.6985 69.3613 72.8432 66.2119Z" fill="#0F0A26"/>
<path opacity="0.6471" d="M72.5851 66.0987C72.7272 63.0204 66.0112 60.2097 57.5846 59.8208C49.1581 59.4319 42.2118 61.6121 42.0697 64.6904C41.9277 67.7687 48.6436 70.5794 57.0702 70.9683C65.4968 71.3572 72.443 69.177 72.5851 66.0987Z" fill="#0F0A26"/>
<path opacity="0.6667" d="M72.3279 65.9851C72.4673 62.9779 65.8942 60.2302 57.6465 59.8479C49.3988 59.4656 42.5998 61.5935 42.4604 64.6007C42.321 67.6079 48.8941 70.3556 57.1418 70.7378C65.3895 71.1201 72.1885 68.9922 72.3279 65.9851Z" fill="#0F0A26"/>
<path opacity="0.6863" d="M72.0624 65.8619C72.1988 62.9259 65.7683 60.2419 57.6995 59.8671C49.6306 59.4923 42.979 61.5686 42.8426 64.5046C42.7063 67.4407 49.1368 70.1246 57.2056 70.4994C65.2744 70.8742 71.926 68.798 72.0624 65.8619Z" fill="#0F0A26"/>
<path opacity="0.7059" d="M71.8032 65.7469C71.9368 62.8819 65.6491 60.2611 57.7592 59.893C49.8693 59.5249 43.3649 61.549 43.2313 64.4139C43.0976 67.2789 49.3853 69.8997 57.2752 70.2678C65.1651 70.6359 71.6695 68.6118 71.8032 65.7469Z" fill="#0F0A26"/>
<path opacity="0.7255" d="M71.5429 65.631C71.6738 62.8372 65.5289 60.2795 57.8179 59.9182C50.1069 59.557 43.7497 61.5289 43.6188 64.3227C43.4879 67.1165 49.6329 69.6742 57.3439 70.0355C65.0549 70.3968 71.412 68.4248 71.5429 65.631Z" fill="#0F0A26"/>
<path opacity="0.7451" d="M71.2826 65.5142C71.4107 62.7916 65.4086 60.2971 57.8765 59.9427C50.3443 59.5883 44.1345 61.5082 44.0064 64.2308C43.8783 66.9535 49.8804 69.4479 57.4125 69.8023C64.9447 70.1567 71.1545 68.2369 71.2826 65.5142Z" fill="#0F0A26"/>
<path opacity="0.7647" d="M71.0213 65.3969C71.1466 62.7453 65.2872 60.3141 57.934 59.9667C50.5807 59.6192 44.5182 61.4871 44.3929 64.1386C44.2676 66.7902 50.127 69.2214 57.4802 69.5688C64.8335 69.9163 70.896 68.0484 71.0213 65.3969Z" fill="#0F0A26"/>
<path opacity="0.7843" d="M70.7599 65.2786C70.8824 62.6982 65.1657 60.3303 57.9913 59.9899C50.817 59.6495 44.9018 61.4653 44.7793 64.0457C44.6569 66.6262 50.3736 68.994 57.5479 69.3344C64.7223 69.6749 70.6375 67.859 70.7599 65.2786Z" fill="#0F0A26"/>
<path opacity="0.8039" d="M70.4975 65.1595C70.6171 62.6502 65.0431 60.3458 58.0477 60.0124C51.0522 59.6791 45.2843 61.443 45.1648 63.9523C45.0452 66.4617 50.6192 68.7661 57.6146 69.0994C64.6101 69.4328 70.378 67.6688 70.4975 65.1595Z" fill="#0F0A26"/>
<path opacity="0.8235" d="M70.2341 65.0392C70.3508 62.6011 64.9195 60.3601 58.1029 60.0339C51.2863 59.7077 45.6658 61.4198 45.5491 63.858C45.4325 66.2962 50.8638 68.5371 57.6804 68.8633C64.4969 69.1895 70.1174 67.4774 70.2341 65.0392Z" fill="#0F0A26"/>
<path opacity="0.8431" d="M69.9687 64.9342C70.0826 62.5674 64.7947 60.3896 58.1577 60.07C51.5207 59.7504 46.0479 61.41 45.9339 63.7768C45.8199 66.1436 51.1079 68.3214 57.7449 68.641C64.3819 68.9606 69.8547 67.301 69.9687 64.9342Z" fill="#0F0A26"/>
<path opacity="0.8627" d="M69.7042 64.8119C69.8152 62.5162 64.6699 60.402 58.2117 60.0896C51.7536 59.7773 46.4282 61.3852 46.3172 63.6809C46.2062 65.9766 51.3516 68.0908 57.8097 68.4031C64.2678 68.7154 69.5932 67.1076 69.7042 64.8119Z" fill="#0F0A26"/>
<path opacity="0.8824" d="M69.446 64.6967C69.5542 62.4721 64.5516 60.421 58.2723 60.1155C51.9931 59.81 46.815 61.3656 46.7067 63.5902C46.5985 65.8148 51.6011 67.8659 57.8804 68.1714C64.1596 68.4769 69.3377 66.9212 69.446 64.6967Z" fill="#0F0A26"/>
<path opacity="0.902" d="M69.1858 64.5803C69.2912 62.4269 64.4313 60.439 58.3309 60.1403C52.2305 59.8417 47.1997 61.3453 47.0942 63.4987C46.9888 65.6522 51.8487 67.6401 57.9491 67.9387C64.0495 68.2374 69.0803 66.7338 69.1858 64.5803Z" fill="#0F0A26"/>
<path opacity="0.9216" d="M68.9254 64.4624C69.028 62.3801 64.3108 60.4555 58.3892 60.1638C52.4677 59.8721 47.5842 61.3238 47.4816 63.4061C47.3791 65.4884 52.0963 67.413 58.0178 67.7047C63.9393 67.9964 68.8228 66.5447 68.9254 64.4624Z" fill="#0F0A26"/>
<path opacity="0.9412" d="M68.663 64.3429C68.7627 62.3317 64.1882 60.4705 58.4455 60.1859C52.7028 59.9013 47.9667 61.301 47.867 63.3122C47.7673 65.3234 52.3419 67.1846 58.0845 67.4692C63.8272 67.7538 68.5634 66.3541 68.663 64.3429Z" fill="#0F0A26"/>
<path opacity="0.9608" d="M68.4006 64.2217C68.4973 62.2816 64.0654 60.4839 58.5016 60.2065C52.9378 59.9291 48.349 61.277 48.2523 63.2171C48.1556 65.1572 52.5875 66.9549 58.1513 67.2323C63.7151 67.5097 68.3038 66.1618 68.4006 64.2217Z" fill="#0F0A26"/>
<path opacity="0.9804" d="M68.1345 64.1144C68.2284 62.2456 63.9397 60.5112 58.5553 60.2406C53.1709 59.9699 48.7298 61.2655 48.6359 63.1343C48.542 65.0031 52.8307 66.7375 58.2151 67.0081C63.5995 67.2788 68.0405 65.9832 68.1345 64.1144Z" fill="#0F0A26"/>
<path d="M67.8753 63.9975C67.9663 62.1998 63.8202 60.5287 58.6147 60.2649C53.4091 60.0012 49.1154 61.2447 49.0243 63.0424C48.9332 64.8401 53.0793 66.5112 58.2849 66.7749C63.4904 67.0387 67.7842 65.7952 67.8753 63.9975Z" fill="#0F0A26"/>
</g>
<path d="M54.2514 10.5483H97.0655C99.0252 10.5483 100.433 12.4336 99.8776 14.3127L90.7937 45.0189C90.1657 47.1414 88.0733 48.4798 85.8831 48.1598L44.4486 42.106C42.4962 41.8208 41.2691 39.8486 41.8756 37.9711L49.6543 13.8941C50.2987 11.8998 52.1555 10.5483 54.2514 10.5483Z" fill="url(#paint0_linear_1_2185)"/>
<path d="M53.5873 9.63208H96.4015C98.3612 9.63208 99.7694 11.5173 99.2135 13.3965L90.1296 44.1026C89.5017 46.2252 87.4092 47.5635 85.2191 47.2435L43.7845 41.1898C41.8322 40.9046 40.605 38.9324 41.2116 37.0548L48.9903 12.9779C49.6346 10.9835 51.4914 9.63208 53.5873 9.63208Z" fill="url(#paint1_linear_1_2185)"/>
<path d="M85.8655 45.6983C85.7271 45.6983 85.5872 45.688 85.4493 45.6677L44.0147 39.6139C43.542 39.545 43.1429 39.2837 42.8905 38.8784C42.6381 38.4726 42.5801 37.9983 42.7268 37.5438L50.5055 13.4668C50.9394 12.1254 52.1776 11.2241 53.5874 11.2241H96.4016C96.8287 11.2241 97.22 11.42 97.4756 11.7621C97.7311 12.1042 97.8083 12.5354 97.6871 12.9449L88.6027 43.6505C88.2461 44.8566 87.1208 45.6983 85.8655 45.6983Z" fill="url(#paint2_linear_1_2185)"/>
<path d="M43.4155 44.7647L83.902 50.7073C85.8785 50.9974 86.5927 53.4808 85.0722 54.7766L61.9087 74.5183C60.2991 75.8902 58.0552 76.2413 56.1034 75.4268L19.3298 61.6538C17.3802 60.8403 17.2659 58.121 19.1406 57.1468L38.2761 45.6298C39.8559 44.8088 41.6541 44.5061 43.4155 44.7647Z" fill="url(#paint3_linear_1_2185)"/>
<path d="M43.4155 44.5547L83.902 50.4974C85.8785 50.7875 86.5927 53.2709 85.0722 54.5667L61.9087 74.3083C60.2991 75.6802 58.0552 76.0314 56.1034 75.2169L19.3298 61.4439C17.3802 60.6303 17.2659 57.9111 19.1406 56.9369L38.2761 45.4198C39.8559 44.5989 41.6541 44.2961 43.4155 44.5547Z" fill="url(#paint4_linear_1_2185)"/>
<path d="M43.4155 42.4646L83.902 48.4073C85.8785 48.6974 86.5927 51.1808 85.0722 52.4766L61.9087 72.2183C60.2991 73.5901 58.0552 73.9413 56.1034 73.1268L19.3298 59.3538C17.3802 58.5402 17.2659 55.821 19.1406 54.8468L38.2761 43.3298C39.8559 42.5088 41.6541 42.2061 43.4155 42.4646Z" fill="url(#paint5_linear_1_2185)"/>
<path d="M85.0724 52.2835L61.909 72.0252C60.2993 73.397 58.0554 73.7482 56.1036 72.9337L19.33 59.1607C18.3681 58.7592 17.8549 57.8935 17.8052 57.0027C17.7864 57.9593 18.2985 58.9232 19.33 59.3537L56.1036 73.1267C58.0554 73.9412 60.2993 73.59 61.909 72.2182L85.0725 52.4765C85.667 51.9698 85.9157 51.282 85.885 50.6143C85.8629 51.2195 85.6097 51.8256 85.0724 52.2835Z" fill="url(#paint6_linear_1_2185)"/>
<path d="M45.4183 44.1032C44.5197 43.9056 44.0669 43.8051 43.1537 43.6001C43.0267 43.5716 42.8142 43.6213 42.681 43.7103C42.0059 44.1611 41.6839 44.3765 41.056 44.7946C40.9321 44.8771 40.9352 44.9672 41.0613 44.9967C41.9679 45.209 42.4182 45.3133 43.3129 45.5186C43.4375 45.5472 43.6393 45.5024 43.7652 45.4181C44.4035 44.9901 44.7286 44.7709 45.4028 44.3161C45.5356 44.2263 45.5434 44.1307 45.4183 44.1032Z" fill="url(#paint7_linear_1_2185)"/>
<path d="M48.9447 44.8666C48.0671 44.6794 47.6253 44.5844 46.7348 44.3909C46.611 44.364 46.4018 44.4157 46.2691 44.5057C45.5958 44.962 45.27 45.1825 44.6292 45.6136C44.5027 45.6987 44.5013 45.7899 44.6247 45.8179C45.5127 46.0194 45.9541 46.1186 46.8314 46.3142C46.9535 46.3414 47.1553 46.2932 47.283 46.2062C47.9305 45.7645 48.2576 45.5398 48.9262 45.0788C49.058 44.9879 49.0668 44.8926 48.9447 44.8666Z" fill="url(#paint8_linear_1_2185)"/>
<path d="M52.3927 45.5919C51.5332 45.4135 51.1009 45.3231 50.2304 45.1394C50.1094 45.1139 49.904 45.1675 49.7725 45.2587C49.1059 45.7214 48.7789 45.9474 48.1297 46.3926C48.0017 46.4804 47.9968 46.573 48.1179 46.5997C48.9896 46.7923 49.4229 46.8872 50.2854 47.0749C50.4053 47.1009 50.6066 47.0493 50.7352 46.9594C51.3878 46.5029 51.7147 46.2723 52.3735 45.8042C52.5033 45.7119 52.5121 45.6167 52.3927 45.5919Z" fill="url(#paint9_linear_1_2185)"/>
<path d="M51.5514 47.3493C52.4088 47.5345 52.8354 47.626 53.685 47.8074C53.8031 47.8326 54.0035 47.7777 54.1326 47.6845C54.7867 47.2124 55.1116 46.9753 55.7571 46.4992C55.8843 46.4053 55.8922 46.3099 55.775 46.286C54.9309 46.1147 54.5068 46.028 53.6534 45.8524C53.5349 45.828 53.3335 45.8835 53.2042 45.9762C52.5484 46.4462 52.2218 46.6783 51.5687 47.1385C51.4399 47.2293 51.4322 47.3235 51.5514 47.3493Z" fill="url(#paint10_linear_1_2185)"/>
<path d="M54.932 48.0729C55.7773 48.2524 56.1982 48.3414 57.0371 48.5183C57.1537 48.5429 57.3533 48.4846 57.482 48.3883C58.135 47.8994 58.4566 47.6554 59.0862 47.1703C59.2104 47.0746 59.2166 46.9785 59.101 46.9554C58.2695 46.7894 57.8521 46.7057 57.0131 46.5365C56.8965 46.513 56.6994 46.5703 56.573 46.6646C55.931 47.1428 55.6069 47.3815 54.9527 47.8577C54.8238 47.9515 54.8145 48.0478 54.932 48.0729Z" fill="url(#paint11_linear_1_2185)"/>
<path d="M58.2692 48.7779C59.1047 48.9536 59.5211 49.0409 60.3515 49.215C60.467 49.2392 60.6653 49.1776 60.7935 49.0777C61.4435 48.5712 61.7608 48.3198 62.3725 47.8245C62.4932 47.7269 62.497 47.6298 62.3829 47.6073C61.5611 47.4449 61.1491 47.3633 60.3216 47.1988C60.2065 47.1759 60.0139 47.235 59.8907 47.3312C59.2654 47.8186 58.9447 48.0644 58.2923 48.5575C58.1636 48.6547 58.153 48.7535 58.2692 48.7779Z" fill="url(#paint12_linear_1_2185)"/>
<path d="M65.6317 48.2478C64.8171 48.0873 64.4088 48.007 63.5901 47.8455C63.4762 47.823 63.2879 47.8839 63.1682 47.9821C62.5611 48.4799 62.2449 48.7331 61.5959 49.2442C61.4679 49.345 61.4567 49.4465 61.5718 49.4706C62.3996 49.6441 62.8126 49.7306 63.6368 49.9036C63.7513 49.9276 63.9487 49.8628 64.0761 49.7592C64.7218 49.2339 65.0343 48.9746 65.6269 48.4684C65.7438 48.3686 65.7451 48.2701 65.6317 48.2478Z" fill="url(#paint13_linear_1_2185)"/>
<path d="M68.8577 48.8842C68.047 48.7239 67.6413 48.6439 66.8284 48.4837C66.7154 48.4615 66.5314 48.5241 66.4155 48.6245C65.8276 49.1336 65.5164 49.3949 64.8717 49.9249C64.7446 50.0294 64.7331 50.1341 64.8475 50.1582C65.6701 50.3312 66.0804 50.4177 66.9008 50.5913C67.0148 50.6155 67.2113 50.5474 67.3376 50.4399C67.9787 49.8949 68.2862 49.6271 68.8592 49.1088C68.9722 49.0066 68.9704 48.9065 68.8577 48.8842Z" fill="url(#paint14_linear_1_2185)"/>
<path d="M72.074 49.5229C71.2646 49.3612 70.86 49.2807 70.0502 49.1202C69.9375 49.0978 69.7575 49.1622 69.6453 49.265C69.077 49.7864 68.7708 50.0563 68.1307 50.6064C68.0045 50.7148 67.9931 50.823 68.107 50.8472C68.9263 51.0215 69.3356 51.1089 70.1539 51.2849C70.2677 51.3093 70.4636 51.238 70.5892 51.1265C71.2261 50.5606 71.5286 50.2839 72.0826 49.7524C72.1918 49.6476 72.1865 49.5454 72.074 49.5229Z" fill="url(#paint15_linear_1_2185)"/>
<path d="M71.3579 51.5449C72.1762 51.7221 72.5853 51.8113 73.4041 51.9913C73.518 52.0163 73.7138 51.9419 73.8387 51.8259C74.4723 51.2382 74.7705 50.9519 75.3064 50.4062C75.412 50.2986 75.4033 50.194 75.2906 50.1711C74.4795 50.0062 74.0746 49.9245 73.265 49.7618C73.1524 49.7391 72.9759 49.8052 72.8676 49.9106C72.3182 50.4455 72.0168 50.7245 71.3808 51.2956C71.2556 51.4082 71.2442 51.5202 71.3579 51.5449Z" fill="url(#paint16_linear_1_2185)"/>
<path d="M78.5189 50.8352C77.7036 50.6654 77.2969 50.5814 76.4846 50.4149C76.3718 50.3918 76.1983 50.4595 76.0934 50.5678C75.5616 51.1172 75.2644 51.4058 74.6313 51.9991C74.5063 52.1161 74.4954 52.2322 74.6093 52.2575C75.4287 52.4395 75.8388 52.5313 76.6602 52.717C76.7743 52.7428 76.9705 52.6652 77.0952 52.5448C77.7275 51.9341 78.0225 51.6378 78.5422 51.0768C78.6445 50.9661 78.6323 50.8588 78.5189 50.8352Z" fill="url(#paint17_linear_1_2185)"/>
<path d="M42.6185 45.9819C41.7283 45.7723 41.2806 45.6659 40.3793 45.4495C40.254 45.4194 40.0549 45.4594 39.9356 45.5382C39.3306 45.938 39.0358 46.1317 38.447 46.5142C38.3309 46.5896 38.3362 46.6766 38.4586 46.7088C39.3383 46.9404 39.7758 47.0545 40.6471 47.2798C40.7684 47.3111 40.9638 47.273 41.0842 47.1946C41.6944 46.7964 41.9992 46.5952 42.6203 46.1824C42.7429 46.101 42.7424 46.0111 42.6185 45.9819Z" fill="url(#paint18_linear_1_2185)"/>
<path d="M46.122 46.7951C45.2477 46.5949 44.8082 46.4935 43.9241 46.2876C43.8013 46.259 43.6009 46.3027 43.4776 46.385C42.8517 46.802 42.544 47.0057 41.9275 47.4091C41.806 47.4885 41.8054 47.5778 41.9258 47.6087C42.7923 47.8306 43.2237 47.94 44.0828 48.1567C44.2022 48.1868 44.4004 48.1443 44.5253 48.0616C45.1594 47.6419 45.4754 47.4303 46.1137 46.9996C46.2397 46.9146 46.2435 46.823 46.122 46.7951Z" fill="url(#paint19_linear_1_2185)"/>
<path d="M49.5662 47.5746C48.7059 47.382 48.2738 47.2847 47.4048 47.0876C47.284 47.0602 47.0832 47.1077 46.9566 47.1936C46.3148 47.6287 45.9963 47.8429 45.3571 48.268C45.2312 48.3518 45.2255 48.4438 45.3443 48.4735C46.1993 48.6874 46.6249 48.7931 47.4732 49.0028C47.5912 49.032 47.7912 48.985 47.9202 48.8979C48.5738 48.4557 48.899 48.2332 49.5502 47.7837C49.6786 47.695 49.6857 47.6013 49.5662 47.5746Z" fill="url(#paint20_linear_1_2185)"/>
<path d="M48.7187 49.3098C49.5632 49.5174 49.9841 49.6202 50.8228 49.8248C50.9395 49.8533 51.1412 49.8019 51.2732 49.7101C51.9432 49.2444 52.2756 49.0107 52.9363 48.5413C53.0666 48.4488 53.0764 48.3527 52.9585 48.3268C52.1102 48.1402 51.6842 48.0462 50.8286 47.8561C50.7097 47.8297 50.5087 47.8809 50.3798 47.9705C49.7259 48.4248 49.3989 48.6499 48.7409 49.0978C48.6112 49.1861 48.6012 49.2809 48.7187 49.3098Z" fill="url(#paint21_linear_1_2185)"/>
<path d="M52.0537 50.1248C52.8892 50.3278 53.3058 50.4287 54.1365 50.6298C54.2519 50.6577 54.4551 50.6021 54.5899 50.5055C55.2731 50.0153 55.6118 49.7698 56.2792 49.2796C56.4108 49.183 56.4225 49.0841 56.306 49.0588C55.4676 48.8765 55.047 48.7848 54.2027 48.6001C54.0853 48.5744 53.8843 48.6294 53.7537 48.7229C53.0912 49.1973 52.757 49.4339 52.0837 49.9054C51.9509 49.9983 51.9375 50.0965 52.0537 50.1248Z" fill="url(#paint22_linear_1_2185)"/>
<path d="M55.3578 50.925C56.1859 51.1252 56.5989 51.225 57.423 51.4244C57.5374 51.4521 57.7419 51.3921 57.8788 51.2905C58.5738 50.7749 58.9174 50.5171 59.5897 50.005C59.7222 49.9041 59.7352 49.8021 59.6199 49.7772C58.7895 49.5974 58.3733 49.5073 57.5381 49.3261C57.422 49.301 57.2214 49.3596 57.0896 49.4573C56.4209 49.9527 56.081 50.2012 55.3946 50.6975C55.2593 50.7952 55.2427 50.8972 55.3578 50.925Z" fill="url(#paint23_linear_1_2185)"/>
<path d="M62.9052 50.4888C62.081 50.3098 61.668 50.2204 60.8401 50.0411C60.7251 50.0162 60.5248 50.0785 60.3921 50.1805C59.7189 50.698 59.3741 50.959 58.6766 51.4809C58.5391 51.5838 58.5199 51.6898 58.6342 51.7175C59.4561 51.9166 59.8662 52.0161 60.6849 52.2155C60.7987 52.2432 61.0043 52.179 61.1434 52.0721C61.8485 51.53 62.1967 51.2594 62.8724 50.7245C63.0057 50.619 63.0199 50.5137 62.9052 50.4888Z" fill="url(#paint24_linear_1_2185)"/>
<path d="M66.1705 51.2007C65.3502 51.0208 64.9396 50.9312 64.117 50.7521C64.0026 50.7272 63.8026 50.7931 63.6692 50.8997C62.9927 51.4402 62.6434 51.7141 61.9358 52.2628C61.7963 52.371 61.7748 52.4813 61.8884 52.5091C62.7055 52.7089 63.1133 52.809 63.9282 53.0101C64.0415 53.0381 64.2483 52.9696 64.3893 52.8573C65.1044 52.2877 65.4569 52.0037 66.1358 51.445C66.2698 51.3348 66.2846 51.2257 66.1705 51.2007Z" fill="url(#paint25_linear_1_2185)"/>
<path d="M69.4228 51.9196C68.6046 51.7371 68.1952 51.6465 67.3759 51.4658C67.262 51.4407 67.0621 51.5101 66.9281 51.6215C66.2482 52.1862 65.8948 52.4736 65.1772 53.05C65.0358 53.1636 65.0122 53.2788 65.1253 53.3069C65.9389 53.5091 66.3454 53.6107 67.1576 53.8153C67.2705 53.8437 67.4788 53.771 67.6219 53.6531C68.3472 53.055 68.7041 52.7571 69.3867 52.1734C69.5213 52.0583 69.5366 51.9449 69.4228 51.9196Z" fill="url(#paint26_linear_1_2185)"/>
<path d="M75.9256 53.4059C74.6226 53.0995 73.9724 52.9492 72.6725 52.6524C72.4505 52.6018 72.3394 52.5765 72.1175 52.526C71.5213 52.3905 71.2233 52.3232 70.6271 52.1892C70.5133 52.1636 70.3135 52.2366 70.1786 52.353C69.4951 52.9428 69.1371 53.2442 68.409 53.8495C68.2654 53.9688 68.2398 54.089 68.3527 54.1177C68.944 54.268 69.2396 54.3436 69.8307 54.4958C70.0509 54.5524 70.1607 54.5809 70.3809 54.6378C71.6693 54.9711 72.3132 55.1399 73.6018 55.4843C73.7147 55.5144 73.927 55.4334 74.0749 55.3036C74.8249 54.645 75.1928 54.3178 75.8865 53.6811C76.0233 53.5555 76.0397 53.4327 75.9256 53.4059Z" fill="url(#paint27_linear_1_2185)"/>
<path d="M39.9737 47.7148C39.1102 47.4835 38.6766 47.3665 37.8057 47.129C37.6846 47.0959 37.4923 47.1293 37.3763 47.2032C36.7878 47.5787 36.4935 47.764 35.89 48.1375C35.771 48.2111 35.7695 48.2998 35.887 48.3352C36.7326 48.5901 37.1541 48.716 37.995 48.9653C38.112 48.9999 38.3071 48.9656 38.4305 48.8888C39.0557 48.4991 39.3618 48.3051 39.9731 47.9131C40.0936 47.8358 40.0939 47.747 39.9737 47.7148Z" fill="url(#paint28_linear_1_2185)"/>
<path d="M43.3815 48.6163C42.5289 48.3934 42.101 48.2807 41.2417 48.0527C41.1222 48.021 40.9265 48.0589 40.8047 48.1373C40.1866 48.5347 39.8771 48.7315 39.2455 49.1266C39.1209 49.2045 39.1141 49.2955 39.2306 49.3297C40.0688 49.5759 40.4868 49.6977 41.3205 49.9394C41.4363 49.973 41.6344 49.9343 41.7626 49.853C42.4121 49.441 42.7318 49.2352 43.3689 48.8205C43.4945 48.7388 43.5 48.6472 43.3815 48.6163Z" fill="url(#paint29_linear_1_2185)"/>
<path d="M46.7484 49.4879C45.9054 49.2716 45.4826 49.1626 44.6337 48.9423C44.5157 48.9117 44.3173 48.9541 44.1906 49.037C43.5479 49.4574 43.2254 49.6661 42.5705 50.0838C42.4413 50.1661 42.4302 50.2599 42.5456 50.2932C43.3769 50.5324 43.7914 50.651 44.6186 50.8868C44.7335 50.9196 44.9341 50.8766 45.0662 50.7907C45.736 50.3553 46.067 50.1374 46.7256 49.699C46.8555 49.6125 46.8656 49.518 46.7484 49.4879Z" fill="url(#paint30_linear_1_2185)"/>
<path d="M45.8339 51.2323C46.6588 51.4663 47.0702 51.5826 47.8912 51.8142C48.0054 51.8464 48.2079 51.7992 48.3432 51.7086C49.0297 51.2489 49.3705 51.0182 50.0471 50.5551C50.1806 50.4638 50.1946 50.3659 50.0785 50.3366C49.2443 50.1252 48.8258 50.0189 47.9863 49.8046C47.8696 49.7748 47.669 49.8218 47.5382 49.9094C46.875 50.3537 46.5413 50.5747 45.8672 51.0159C45.7343 51.1029 45.7192 51.1998 45.8339 51.2323Z" fill="url(#paint31_linear_1_2185)"/>
<path d="M49.0982 52.1544C49.9172 52.3849 50.3259 52.4998 51.1414 52.729C51.2548 52.7609 51.4587 52.7093 51.5969 52.6138C52.2974 52.1288 52.6464 51.8849 53.3386 51.3962C53.4751 51.2999 53.4922 51.1982 53.3773 51.1693C52.5503 50.9611 52.1358 50.8566 51.3044 50.6466C51.1888 50.6174 50.9864 50.6688 50.8522 50.7613C50.1715 51.2305 49.8285 51.4644 49.1385 51.9301C49.0025 52.022 48.9845 52.1223 49.0982 52.1544Z" fill="url(#paint32_linear_1_2185)"/>
<path d="M52.3396 53.066C53.1533 53.2949 53.5593 53.4091 54.3699 53.6378C54.4827 53.6695 54.6879 53.6138 54.8285 53.513C55.5409 53.0019 55.8974 52.7442 56.6031 52.2289C56.7421 52.1273 56.7621 52.0215 56.648 51.9928C55.8273 51.786 55.4161 51.6826 54.5916 51.4751C54.4771 51.4463 54.2731 51.5021 54.136 51.5997C53.4403 52.0948 53.0894 52.342 52.3858 52.8332C52.2471 52.93 52.2264 53.0342 52.3396 53.066Z" fill="url(#paint33_linear_1_2185)"/>
<path d="M59.8968 52.8141C59.0813 52.607 58.6727 52.5037 57.8542 52.297C57.7403 52.2682 57.5349 52.3284 57.3952 52.4313C56.6865 52.9533 56.3284 53.2143 55.6131 53.732C55.4721 53.8342 55.4491 53.9425 55.5615 53.9743C56.3705 54.2032 56.7742 54.3177 57.5805 54.5475C57.6926 54.5794 57.8989 54.5196 58.0416 54.4134C58.765 53.8749 59.1283 53.6031 59.8461 53.06C59.9876 52.953 60.0102 52.8429 59.8968 52.8141Z" fill="url(#paint34_linear_1_2185)"/>
<path d="M63.128 53.64C62.3164 53.4309 61.91 53.3268 61.096 53.1192C60.9829 53.0903 60.7762 53.1549 60.6341 53.2632C59.9133 53.8132 59.5485 54.0886 58.8225 54.6338C58.6794 54.7413 58.6543 54.8542 58.7661 54.8863C59.571 55.117 59.9726 55.2327 60.7751 55.4653C60.8867 55.4976 61.0943 55.4336 61.2389 55.3219C61.9728 54.7551 62.3426 54.4685 63.0724 53.8968C63.2161 53.7841 63.2409 53.6691 63.128 53.64Z" fill="url(#paint35_linear_1_2185)"/>
<path d="M66.3462 54.4775C65.5373 54.2646 65.1324 54.1589 64.3221 53.9486C64.2093 53.9194 64.0011 53.9882 63.8566 54.1023C63.124 54.6812 62.7526 54.9714 62.0161 55.5453C61.871 55.6585 61.8439 55.7763 61.9553 55.8088C62.7564 56.043 63.1564 56.1607 63.9555 56.398C64.0665 56.4311 64.2754 56.3629 64.4224 56.2454C65.1669 55.6492 65.5435 55.3474 66.2854 54.7459C66.4317 54.6273 66.4587 54.5071 66.3462 54.4775Z" fill="url(#paint36_linear_1_2185)"/>
<path d="M69.5545 55.3334C68.7472 55.115 68.3434 55.0068 67.5352 54.7921C67.4229 54.7622 67.2131 54.8354 67.0663 54.9554C66.3211 55.5643 65.9429 55.87 65.1954 56.4735C65.0481 56.5924 65.0188 56.7155 65.1297 56.7488C65.9278 56.9882 66.3264 57.1089 67.1228 57.3526C67.2334 57.3865 67.4437 57.3142 67.593 57.1907C68.3496 56.5641 68.7334 56.2465 69.4886 55.6142C69.6375 55.4895 69.6667 55.3638 69.5545 55.3334Z" fill="url(#paint37_linear_1_2185)"/>
<path d="M72.7603 56.2147C71.9535 55.989 71.55 55.8775 70.7429 55.6566C70.6309 55.6259 70.419 55.7033 70.2694 55.8295C69.5107 56.4695 69.1249 56.7911 68.3652 57.4252C68.2153 57.5503 68.1841 57.679 68.2946 57.7133C69.09 57.9598 69.4875 58.0842 70.2815 58.336C70.3919 58.371 70.6042 58.2948 70.7562 58.165C71.5265 57.5069 71.9185 57.1729 72.6891 56.5087C72.8409 56.3777 72.8725 56.246 72.7603 56.2147Z" fill="url(#paint38_linear_1_2185)"/>
<path d="M37.2965 49.3958C36.4628 49.1407 36.0449 49.0119 35.2073 48.7513C35.0909 48.7151 34.8973 48.7457 34.7739 48.8202C34.1482 49.1978 33.8275 49.3882 33.1557 49.7793C33.0232 49.8564 33.007 49.9504 33.121 49.9886C33.9408 50.2633 34.3505 50.3993 35.1692 50.669C35.2832 50.7065 35.4858 50.6721 35.6205 50.5927C36.3038 50.19 36.6328 49.9927 37.2772 49.6001C37.4043 49.5226 37.4126 49.4313 37.2965 49.3958Z" fill="url(#paint39_linear_1_2185)"/>
<path d="M40.5963 50.3938C39.7683 50.1461 39.3534 50.0212 38.5219 49.769C38.4062 49.7339 38.2092 49.7688 38.0812 49.8472C37.4312 50.2448 37.1 50.4444 36.4137 50.851C36.2782 50.9311 36.2597 51.0266 36.3735 51.0637C37.1915 51.3307 37.6002 51.4631 38.4169 51.7262C38.5304 51.7628 38.7342 51.7252 38.8711 51.6427C39.5652 51.2238 39.903 51.0168 40.5679 50.6036C40.6989 50.5221 40.7113 50.4283 40.5963 50.3938Z" fill="url(#paint40_linear_1_2185)"/>
<path d="M43.873 51.3664C43.0506 51.1242 42.6385 51.0024 41.8126 50.757C41.6979 50.7229 41.4982 50.7619 41.3663 50.8444C40.6972 51.2628 40.3576 51.4722 39.6615 51.8952C39.5241 51.9786 39.5042 52.0759 39.6175 52.1122C40.4335 52.3733 40.841 52.5029 41.6552 52.7612C41.7685 52.7971 41.9728 52.7565 42.111 52.6705C42.8119 52.2344 43.1563 52.0173 43.8373 51.5825C43.9716 51.4968 43.9874 51.4 43.873 51.3664Z" fill="url(#paint41_linear_1_2185)"/>
<path d="M42.8532 53.1403C43.6666 53.3972 44.0728 53.5251 44.8844 53.7802C44.9973 53.8158 45.2015 53.772 45.3403 53.6824C46.0443 53.2283 46.3938 53.0005 47.0875 52.5432C47.2242 52.453 47.2427 52.353 47.1291 52.3199C46.312 52.0816 45.9025 51.962 45.0821 51.7215C44.9681 51.6881 44.7664 51.7313 44.6314 51.8181C43.947 52.2582 43.6013 52.478 42.8993 52.9183C42.7609 53.0051 42.7401 53.1045 42.8532 53.1403Z" fill="url(#paint42_linear_1_2185)"/>
<path d="M46.0782 54.1551C46.8889 54.4096 47.2938 54.5366 48.1025 54.7905C48.215 54.8258 48.4187 54.779 48.5576 54.6857C49.2621 54.2125 49.615 53.9735 50.3188 53.4928C50.4575 53.398 50.4783 53.2943 50.3654 53.2615C49.553 53.0253 49.146 52.907 48.3307 52.6697C48.2173 52.6367 48.0141 52.684 47.8768 52.7753C47.1805 53.2382 46.8301 53.4687 46.1257 53.9274C45.9868 54.0178 45.9655 54.1197 46.0782 54.1551Z" fill="url(#paint43_linear_1_2185)"/>
<path d="M49.2918 55.1641C50.0994 55.418 50.5027 55.5449 51.3083 55.7994C51.4202 55.8347 51.6231 55.785 51.7616 55.6877C52.4647 55.1944 52.8203 54.9438 53.5322 54.4385C53.6725 54.3389 53.6952 54.2312 53.5829 54.1984C52.775 53.9625 52.3704 53.8447 51.5596 53.6088C51.4469 53.576 51.2426 53.6273 51.1035 53.7233C50.3975 54.21 50.0439 54.4517 49.3396 54.9297C49.2008 55.024 49.1794 55.1288 49.2918 55.1641Z" fill="url(#paint44_linear_1_2185)"/>
<path d="M56.7832 55.1376C55.9795 54.9003 55.577 54.782 54.7707 54.5458C54.6586 54.513 54.4533 54.5684 54.3126 54.6692C53.599 55.1806 53.2428 55.4341 52.5404 55.9325C52.4019 56.0307 52.3809 56.1388 52.4927 56.1742C53.297 56.4292 53.6987 56.557 54.5006 56.8136C54.6122 56.8493 54.814 56.7966 54.952 56.6951C55.6525 56.1807 56.0101 55.9179 56.7289 55.3871C56.8705 55.2825 56.8951 55.1706 56.7832 55.1376Z" fill="url(#paint45_linear_1_2185)"/>
<path d="M59.9678 56.0858C59.1679 55.8453 58.7673 55.7257 57.965 55.4875C57.8534 55.4543 57.6474 55.5137 57.5054 55.6196C56.7851 56.1568 56.4269 56.4226 55.7274 56.9423C55.5894 57.0448 55.5686 57.1564 55.6799 57.1922C56.4807 57.4502 56.8805 57.5797 57.6788 57.8403C57.7898 57.8766 57.9903 57.8209 58.1278 57.7151C58.8252 57.1786 59.1846 56.9031 59.9099 56.3457C60.0529 56.2358 60.079 56.1192 59.9678 56.0858Z" fill="url(#paint46_linear_1_2185)"/>
<path d="M63.1368 57.0499C62.3404 56.8045 61.9416 56.6828 61.143 56.4407C61.032 56.407 60.8252 56.4703 60.6819 56.5815C59.9551 57.1456 59.5951 57.4242 58.8985 57.9663C58.7611 58.0732 58.7408 58.1887 58.8516 58.2252C59.6485 58.4878 60.0463 58.62 60.8406 58.8864C60.951 58.9235 61.1503 58.8649 61.2873 58.7546C61.9819 58.1947 62.3435 57.9062 63.0754 57.3212C63.2197 57.2058 63.2476 57.0841 63.1368 57.0499Z" fill="url(#paint47_linear_1_2185)"/>
<path d="M66.294 58.0372C65.5006 57.7851 65.1035 57.6603 64.3082 57.4126C64.1977 57.3781 63.9901 57.4454 63.8453 57.5622C63.1115 58.154 62.7494 58.4459 62.0554 59.0115C61.9184 59.1231 61.8982 59.2428 62.0085 59.2802C62.8012 59.5493 63.197 59.6849 63.9869 59.9589C64.0968 59.997 64.295 59.9356 64.4316 59.8205C65.1247 59.2364 65.4887 58.9341 66.2287 58.3204C66.3745 58.1993 66.4042 58.0722 66.294 58.0372Z" fill="url(#paint48_linear_1_2185)"/>
<path d="M69.4393 59.0547C68.6489 58.7942 68.2531 58.6654 67.4609 58.4105C67.3508 58.375 67.142 58.4462 66.9957 58.5686C66.2535 59.1894 65.8887 59.4952 65.1958 60.0853C65.0592 60.2016 65.039 60.3262 65.1486 60.3647C65.9368 60.6419 66.3303 60.7819 67.1157 61.0652C67.225 61.1046 67.4224 61.0404 67.5591 60.9202C68.2524 60.3108 68.62 59.9942 69.3699 59.3508C69.5175 59.2239 69.5493 59.0909 69.4393 59.0547Z" fill="url(#paint49_linear_1_2185)"/>
<path d="M34.3941 51.1195C33.5779 50.8461 33.1696 50.7083 32.3532 50.43C32.2397 50.3913 32.0348 50.4242 31.8934 50.5043C31.1767 50.9109 30.8029 51.1195 30.0091 51.5548C29.8527 51.6407 29.8158 51.7431 29.9294 51.7825C30.7473 52.0659 31.1569 52.2064 31.9771 52.4853C32.0912 52.5242 32.3109 52.485 32.4655 52.3989C33.2499 51.9618 33.6232 51.7504 34.3438 51.3359C34.486 51.2541 34.5077 51.1576 34.3941 51.1195Z" fill="url(#paint50_linear_1_2185)"/>
<path d="M37.6345 52.1922C36.8191 51.925 36.4111 51.7907 35.5951 51.5199C35.4816 51.4822 35.2756 51.5179 35.1334 51.6001C34.4121 52.0175 34.0394 52.2298 33.2585 52.6675C33.1047 52.7538 33.0707 52.8556 33.185 52.8941C34.0064 53.1707 34.4178 53.3081 35.241 53.5815C35.3554 53.6196 35.5722 53.5796 35.7235 53.4928C36.4914 53.0527 36.8616 52.8372 37.5834 52.4111C37.7255 52.3272 37.7479 52.2293 37.6345 52.1922Z" fill="url(#paint51_linear_1_2185)"/>
<path d="M40.8704 53.2433C40.0561 52.9808 39.6488 52.849 38.8337 52.5838C38.7204 52.547 38.5141 52.5853 38.3719 52.6699C37.6507 53.0989 37.2815 53.3155 36.5184 53.7565C36.368 53.8434 36.3379 53.945 36.4523 53.9828C37.2765 54.2546 37.6889 54.3898 38.514 54.6594C38.6287 54.6969 38.8419 54.6561 38.9891 54.5686C39.736 54.1245 40.1012 53.9044 40.8196 53.4658C40.9612 53.3794 40.9836 53.2798 40.8704 53.2433Z" fill="url(#paint52_linear_1_2185)"/>
<path d="M53.7364 57.3727C53.0417 57.1464 52.6939 57.0336 51.9977 56.8087C51.888 56.7732 51.833 56.7554 51.7233 56.7201C51.2487 56.5669 51.0113 56.4904 50.536 56.3377C49.7284 56.0782 49.3243 55.9487 48.5151 55.6899C48.0388 55.5376 47.8005 55.4614 47.3235 55.3091C46.5134 55.0504 46.1078 54.9211 45.2962 54.6619C44.0067 54.2502 43.3612 54.0441 42.0685 53.6289C41.9554 53.5926 41.7496 53.6337 41.6083 53.7208C40.8912 54.1625 40.5274 54.3838 39.7863 54.8291C39.6401 54.9168 39.6141 55.0184 39.7289 55.0558C41.0403 55.4826 41.6965 55.6949 43.0086 56.1197C43.8344 56.387 44.2474 56.5206 45.0729 56.788C45.5588 56.9455 45.8018 57.0242 46.2874 57.1818C47.1126 57.4496 47.5249 57.5837 48.349 57.8527C48.8341 58.011 49.0766 58.0904 49.5611 58.2493C49.6732 58.2861 49.7292 58.3045 49.8413 58.3413C50.5523 58.5748 50.9075 58.692 51.6171 58.9273C51.7313 58.9651 51.9244 58.9216 52.0498 58.8289C52.6861 58.3589 53.0175 58.1155 53.6958 57.6172C53.8295 57.519 53.8482 57.4092 53.7364 57.3727Z" fill="url(#paint53_linear_1_2185)"/>
<path d="M56.9234 58.4212C56.1228 58.1549 55.7221 58.0226 54.9191 57.7592C54.8075 57.7225 54.6079 57.7738 54.4749 57.8728C53.7996 58.3752 53.4705 58.6204 52.8418 59.0925C52.7179 59.1855 52.7113 59.291 52.8253 59.3291C53.6457 59.6032 54.0553 59.741 54.8732 60.0185C54.9869 60.0571 55.1741 60.0129 55.2935 59.9185C55.899 59.4395 56.2206 59.1889 56.8861 58.6732C57.0173 58.5716 57.0346 58.4583 56.9234 58.4212Z" fill="url(#paint54_linear_1_2185)"/>
<path d="M60.0947 59.4905C59.2984 59.218 58.8996 59.083 58.1006 58.8146C57.9896 58.7773 57.7921 58.831 57.6616 58.9335C56.9992 59.4536 56.6801 59.706 56.082 60.1874C55.964 60.2823 55.9625 60.3896 56.076 60.4285C56.8922 60.7084 57.2996 60.8494 58.1127 61.1338C58.2257 61.1734 58.4071 61.1287 58.5205 61.0323C59.0958 60.5432 59.4077 60.285 60.0605 59.7508C60.1891 59.6456 60.2053 59.5284 60.0947 59.4905Z" fill="url(#paint55_linear_1_2185)"/>
<path d="M63.2471 60.5877C62.4555 60.3075 62.059 60.1688 61.2643 59.8936C61.1539 59.8553 60.9587 59.9116 60.8306 60.0178C60.1808 60.5567 59.8712 60.8168 59.3032 61.3086C59.1911 61.4055 59.1942 61.515 59.3069 61.555C60.1179 61.8425 60.5226 61.9875 61.3299 62.2807C61.4421 62.3214 61.6175 62.2762 61.7252 62.1776C62.2714 61.6774 62.574 61.411 63.2153 60.8572C63.3418 60.7481 63.3571 60.6267 63.2471 60.5877Z" fill="url(#paint56_linear_1_2185)"/>
<path d="M66.3799 61.7193C65.5937 61.4294 65.1996 61.2862 64.41 61.0025C64.3002 60.9631 64.1069 61.0217 63.9809 61.1319C63.3421 61.6906 63.0416 61.959 62.5023 62.4621C62.3959 62.5614 62.4034 62.6735 62.5154 62.7148C63.3201 63.0116 63.7215 63.1617 64.5216 63.4654C64.6329 63.5076 64.8028 63.4618 64.9051 63.3608C65.4239 62.8484 65.7183 62.5733 66.3501 61.9989C66.4746 61.8856 66.4893 61.7596 66.3799 61.7193Z" fill="url(#paint57_linear_1_2185)"/>
<g opacity="0.35">
<path opacity="0.0196" d="M24.6427 50.888C24.7521 48.3535 19.4103 46.0646 12.7116 45.7756C6.01285 45.4866 0.493831 47.307 0.384494 49.8415C0.275158 52.376 5.61691 54.6649 12.3156 54.9539C19.0144 55.2429 24.5334 53.4225 24.6427 50.888Z" fill="#0F0A26"/>
<path opacity="0.0392" d="M24.517 50.8283C24.6249 48.3274 19.3506 46.0688 12.7366 45.7835C6.12254 45.4982 0.673342 47.2942 0.565458 49.7951C0.457574 52.2959 5.73185 54.5545 12.3459 54.8399C18.9599 55.1252 24.4091 53.3291 24.517 50.8283Z" fill="#0F0A26"/>
<path opacity="0.0588" d="M24.3947 50.7761C24.5013 48.3089 19.2947 46.08 12.7654 45.7977C6.23604 45.5154 0.856476 47.2866 0.749798 49.7537C0.64312 52.2209 5.84972 54.4498 12.3791 54.7321C18.9084 55.0145 24.288 53.2433 24.3947 50.7761Z" fill="#0F0A26"/>
<path opacity="0.0784" d="M24.2724 50.7236C24.3779 48.2901 19.2389 46.0909 12.7942 45.8116C6.34954 45.5323 1.03959 47.2786 0.934128 49.7121C0.828662 52.1456 5.96761 54.3448 12.4123 54.6241C18.857 54.9034 24.1669 53.1571 24.2724 50.7236Z" fill="#0F0A26"/>
<path opacity="0.098" d="M24.1457 50.6638C24.2497 48.264 19.1782 46.0951 12.8182 45.8194C6.45822 45.5438 1.21811 47.2658 1.1141 49.6657C1.0101 52.0655 6.08158 54.2344 12.4416 54.5101C18.8016 54.7857 24.0417 53.0637 24.1457 50.6638Z" fill="#0F0A26"/>
<path opacity="0.1176" d="M24.0233 50.611C24.1261 48.2448 19.1223 46.1057 12.847 45.8331C6.57166 45.5605 1.4012 47.2577 1.29841 49.6239C1.19563 51.99 6.19944 54.1292 12.4748 54.4018C18.7501 54.6744 23.9205 52.9772 24.0233 50.611Z" fill="#0F0A26"/>
<path opacity="0.1373" d="M23.9009 50.5584C24.0025 48.2259 19.0663 46.1165 12.8757 45.847C6.68508 45.5774 1.58427 47.2498 1.48271 49.5823C1.38116 51.9148 6.31732 54.0242 12.5079 54.2937C18.6986 54.5632 23.7994 52.8909 23.9009 50.5584Z" fill="#0F0A26"/>
<path opacity="0.1569" d="M23.7753 50.498C23.8754 48.1992 19.0066 46.1201 12.9007 45.8542C6.79474 45.5884 1.76374 47.2365 1.66365 49.5353C1.56356 51.8342 6.43228 53.9133 12.5382 54.1791C18.6442 54.445 23.6752 52.7969 23.7753 50.498Z" fill="#0F0A26"/>
<path opacity="0.1765" d="M23.6448 50.4481C23.7437 48.1832 18.9431 46.1341 12.9224 45.8713C6.90176 45.6085 1.94092 47.2316 1.84207 49.4966C1.74322 51.7615 6.54379 53.8107 12.5645 54.0734C18.5851 54.3362 23.546 52.7131 23.6448 50.4481Z" fill="#0F0A26"/>
<path opacity="0.1961" d="M23.5224 50.3946C23.62 48.1633 18.8871 46.144 12.9511 45.8843C7.01513 45.6247 2.12394 47.223 2.02634 49.4543C1.92873 51.6856 6.66168 53.7049 12.5977 53.9645C18.5336 54.2242 23.4248 52.6259 23.5224 50.3946Z" fill="#0F0A26"/>
<path opacity="0.2157" d="M23.3957 50.3342C23.4919 48.1366 18.8264 46.1475 12.9751 45.8916C7.12377 45.6356 2.30242 47.2097 2.20629 49.4073C2.11016 51.6049 6.77565 53.594 12.6269 53.8499C18.4783 54.1059 23.2996 52.5318 23.3957 50.3342Z" fill="#0F0A26"/>
<path opacity="0.2353" d="M23.2733 50.2806C23.3682 48.1166 18.7703 46.1574 13.0037 45.9046C7.2371 45.6517 2.48542 47.201 2.39054 49.365C2.29566 51.529 6.89352 53.4882 12.6601 53.741C18.4268 53.9938 23.1785 52.4445 23.2733 50.2806Z" fill="#0F0A26"/>
<path opacity="0.2549" d="M23.151 50.2271C23.2446 48.0968 18.7144 46.1675 13.0324 45.9178C7.35043 45.6681 2.66839 47.1926 2.57478 49.3229C2.48116 51.4532 7.01142 53.3826 12.6934 53.6323C18.3754 53.882 23.0574 52.3574 23.151 50.2271Z" fill="#0F0A26"/>
<path opacity="0.2745" d="M23.0276 50.1731C23.1199 48.0765 18.6573 46.177 13.06 45.9305C7.46272 45.6839 2.85037 47.1838 2.75802 49.2804C2.66568 51.377 7.12832 53.2765 12.7256 53.523C18.3229 53.7696 22.9352 52.2698 23.0276 50.1731Z" fill="#0F0A26"/>
<path opacity="0.2941" d="M22.9009 50.1122C22.9917 48.0492 18.5965 46.18 13.0839 45.9372C7.57133 45.6944 3.02882 47.1699 2.93796 49.2329C2.8471 51.2959 7.24229 53.1651 12.7549 53.4079C18.2675 53.6507 22.81 52.1751 22.9009 50.1122Z" fill="#0F0A26"/>
<path opacity="0.3137" d="M22.7775 50.0578C22.867 48.0285 18.5395 46.1892 13.1115 45.9496C7.6836 45.71 3.21077 47.1608 3.12119 49.1901C3.03161 51.2194 7.35919 53.0587 12.7871 53.2984C18.215 53.538 22.6879 52.0871 22.7775 50.0578Z" fill="#0F0A26"/>
<path opacity="0.3333" d="M22.6551 50.0032C22.7434 48.0075 18.4834 46.1981 13.1401 45.9617C7.79683 45.7253 3.39368 47.1514 3.30538 49.1471C3.21709 51.1427 7.47708 52.9521 12.8204 53.1886C18.1636 53.425 22.5668 51.9988 22.6551 50.0032Z" fill="#0F0A26"/>
<path opacity="0.3529" d="M22.5307 49.9485C22.6177 47.9865 18.4253 46.207 13.1667 45.9738C7.90807 45.7406 3.57461 47.1421 3.48761 49.104C3.40061 51.066 7.59301 52.8455 12.8516 53.0787C18.1102 53.3119 22.4437 51.9105 22.5307 49.9485Z" fill="#0F0A26"/>
<path opacity="0.3725" d="M22.4082 49.8939C22.4939 47.9656 18.3691 46.216 13.1952 45.986C8.02125 45.7561 3.75748 47.1329 3.67178 49.0612C3.58608 50.9895 7.71089 52.7391 12.8848 52.9691C18.0587 53.1991 22.3225 51.8222 22.4082 49.8939Z" fill="#0F0A26"/>
<path opacity="0.3922" d="M22.2847 49.8386C22.3691 47.944 18.3119 46.2243 13.2226 45.9976C8.13341 45.7709 3.93936 47.123 3.85496 49.0177C3.77057 50.9123 7.82779 52.632 12.917 52.8587C18.0063 53.0854 22.2003 51.7333 22.2847 49.8386Z" fill="#0F0A26"/>
<path opacity="0.4118" d="M22.1603 49.7832C22.2434 47.9223 18.2538 46.2325 13.2492 46.0091C8.2446 45.7857 4.12024 47.1132 4.03715 48.9741C3.95407 50.8351 7.94373 52.5249 12.9483 52.7483C17.9529 52.9717 22.0772 51.6442 22.1603 49.7832Z" fill="#0F0A26"/>
<path opacity="0.4314" d="M22.0368 49.7278C22.1186 47.9004 18.1965 46.2406 13.2766 46.0205C8.35672 45.8003 4.30208 47.1032 4.22031 48.9306C4.13855 50.7579 8.06063 52.4177 12.9805 52.6379C17.9004 52.858 21.9551 51.5551 22.0368 49.7278Z" fill="#0F0A26"/>
<path opacity="0.451" d="M21.9133 49.672C21.9938 47.8784 18.1392 46.2485 13.304 46.0317C8.46882 45.8149 4.48389 47.0931 4.40346 48.8868C4.32302 50.6805 8.17753 52.3103 13.0127 52.5271C17.848 52.744 21.8329 51.4657 21.9133 49.672Z" fill="#0F0A26"/>
<path opacity="0.4706" d="M21.7888 49.616C21.8679 47.856 18.081 46.2561 13.3304 46.0426C8.57991 45.8291 4.66471 47.0828 4.58561 48.8428C4.50651 50.6028 8.29345 52.2026 13.044 52.4161C17.7945 52.6297 21.7097 51.376 21.7888 49.616Z" fill="#0F0A26"/>
<path opacity="0.4902" d="M21.6654 49.5596C21.7431 47.8333 18.0237 46.2635 13.3579 46.0533C8.69198 45.8431 4.84649 47.0722 4.76873 48.7985C4.69097 50.5249 8.41038 52.0947 13.0763 52.3049C17.7421 52.515 21.5876 51.286 21.6654 49.5596Z" fill="#0F0A26"/>
<path opacity="0.5098" d="M21.5409 49.5032C21.6173 47.8105 17.9654 46.2707 13.3842 46.0638C8.80302 45.857 5.02728 47.0615 4.95086 48.7542C4.87445 50.4469 8.52629 51.9868 13.1075 52.1936C17.6887 52.4004 21.4644 51.1959 21.5409 49.5032Z" fill="#0F0A26"/>
<path opacity="0.5294" d="M21.4205 49.453C21.4958 47.794 17.9116 46.2838 13.4151 46.0799C8.91855 45.876 5.21242 47.0556 5.13719 48.7146C5.06196 50.3736 8.64612 51.8838 13.1426 52.0877C17.6392 52.2916 21.3453 51.112 21.4205 49.453Z" fill="#0F0A26"/>
<path opacity="0.549" d="M21.295 49.3957C21.3689 47.7703 17.8522 46.2902 13.4404 46.0897C9.02856 45.8892 5.39218 47.0443 5.31831 48.6696C5.24445 50.2949 8.76108 51.7751 13.1729 51.9756C17.5848 52.1761 21.2211 51.021 21.295 49.3957Z" fill="#0F0A26"/>
<path opacity="0.5686" d="M21.1705 49.3383C21.243 47.7467 17.7939 46.2966 13.4667 46.0995C9.13954 45.9024 5.5729 47.0329 5.5004 48.6246C5.42791 50.2163 8.87702 51.6664 13.2042 51.8634C17.5314 52.0605 21.098 50.93 21.1705 49.3383Z" fill="#0F0A26"/>
<path opacity="0.5882" d="M21.0492 49.287C21.1204 47.729 17.739 46.3087 13.4965 46.1146C9.25397 45.9205 5.75696 47.0262 5.68569 48.5842C5.61442 50.1422 8.99587 51.5626 13.2384 51.7567C17.4809 51.9508 20.9779 50.8451 21.0492 49.287Z" fill="#0F0A26"/>
<path opacity="0.6078" d="M20.9246 49.229C20.9945 47.7047 17.6805 46.3144 13.5227 46.1238C9.36487 45.9332 5.93763 47.0144 5.86775 48.5387C5.79786 50.0631 9.11179 51.4534 13.2696 51.644C17.4274 51.8346 20.8547 50.7534 20.9246 49.229Z" fill="#0F0A26"/>
<path opacity="0.6275" d="M20.7926 49.1734C20.8611 47.6829 17.615 46.3229 13.5423 46.1357C9.46955 45.9486 6.11243 47.0052 6.04394 48.4957C5.97544 49.9863 9.22153 51.3463 13.2943 51.5334C17.367 51.7206 20.7241 50.664 20.7926 49.1734Z" fill="#0F0A26"/>
<path opacity="0.6471" d="M20.6713 49.1212C20.7385 47.6643 17.5601 46.3341 13.572 46.15C9.58389 45.966 6.2964 46.9978 6.22916 48.4546C6.16193 49.9115 9.34041 51.2417 13.3285 51.4258C17.3166 51.6098 20.6041 50.578 20.6713 49.1212Z" fill="#0F0A26"/>
<path opacity="0.6667" d="M20.5479 49.0685C20.6139 47.6452 17.503 46.3448 13.5996 46.1639C9.69621 45.983 6.47838 46.99 6.41241 48.4133C6.34645 49.8365 9.45732 51.1369 13.3607 51.3178C17.2642 51.4988 20.482 50.4917 20.5479 49.0685Z" fill="#0F0A26"/>
<path opacity="0.6863" d="M20.4233 49.0082C20.4879 47.6186 17.4445 46.3484 13.6257 46.171C9.80699 45.9936 6.65896 46.9763 6.59441 48.3658C6.52986 49.7554 9.57324 51.0256 13.392 51.203C17.2107 51.3804 20.3588 50.3977 20.4233 49.0082Z" fill="#0F0A26"/>
<path opacity="0.7059" d="M20.301 48.9546C20.3642 47.5987 17.3884 46.3583 13.6543 46.1841C9.92021 46.0099 6.84185 46.9679 6.77859 48.3238C6.71534 49.6796 9.69115 50.92 13.4252 51.0942C17.1593 51.2684 20.2377 50.3105 20.301 48.9546Z" fill="#0F0A26"/>
<path opacity="0.7255" d="M20.1775 48.9004C20.2395 47.5782 17.3312 46.3677 13.6818 46.1967C10.0324 46.0257 7.02372 46.959 6.96178 48.2812C6.89983 49.6034 9.80806 50.8139 13.4575 50.9849C17.1069 51.1559 20.1156 50.2226 20.1775 48.9004Z" fill="#0F0A26"/>
<path opacity="0.7451" d="M20.0541 48.8453C20.1147 47.5567 17.274 46.3761 13.7093 46.2084C10.1445 46.0407 7.20557 46.9493 7.14494 48.2379C7.08431 49.5264 9.92496 50.707 13.4897 50.8747C17.0545 51.0425 19.9934 50.1338 20.0541 48.8453Z" fill="#0F0A26"/>
<path opacity="0.7647" d="M19.9316 48.7898C19.9908 47.5349 17.2178 46.3843 13.7377 46.2199C10.2576 46.0554 7.38834 46.9394 7.32905 48.1943C7.26975 49.4492 10.0428 50.5999 13.5229 50.7643C17.003 50.9287 19.8723 50.0447 19.9316 48.7898Z" fill="#0F0A26"/>
<path opacity="0.7843" d="M19.8081 48.7338C19.8661 47.5125 17.1605 46.3919 13.7651 46.2308C10.3696 46.0697 7.57011 46.9291 7.51216 48.1503C7.45421 49.3716 10.1598 50.4922 13.5552 50.6533C16.9506 50.8144 19.7502 49.955 19.8081 48.7338Z" fill="#0F0A26"/>
<path opacity="0.8039" d="M19.6836 48.6769C19.7402 47.4893 17.1022 46.3987 13.7914 46.2409C10.4806 46.0831 7.75086 46.918 7.69426 48.1056C7.63767 49.2931 10.2757 50.3838 13.5865 50.5415C16.8972 50.6993 19.627 49.8645 19.6836 48.6769Z" fill="#0F0A26"/>
<path opacity="0.8235" d="M19.56 48.6194C19.6153 47.4655 17.0448 46.4049 13.8187 46.2505C10.5926 46.0961 7.93254 46.9064 7.87732 48.0603C7.82211 49.2142 10.3926 50.2748 13.6187 50.4292C16.8448 50.5836 19.5048 49.7733 19.56 48.6194Z" fill="#0F0A26"/>
<path opacity="0.8431" d="M19.4327 48.5706C19.4866 47.4504 16.984 46.4197 13.8428 46.2685C10.7017 46.1172 8.11158 46.9026 8.05764 48.0228C8.00369 49.143 10.5064 50.1737 13.6475 50.3249C16.7886 50.4762 19.3787 49.6908 19.4327 48.5706Z" fill="#0F0A26"/>
<path opacity="0.8627" d="M19.3071 48.5116C19.3597 47.4251 16.9245 46.4245 13.868 46.2767C10.8116 46.1289 8.29123 46.8898 8.23869 47.9763C8.18615 49.0628 10.6213 50.0634 13.6778 50.2112C16.7342 50.359 19.2546 49.5981 19.3071 48.5116Z" fill="#0F0A26"/>
<path opacity="0.8824" d="M19.1847 48.4579C19.2359 47.4051 16.8683 46.4344 13.8965 46.2898C10.9247 46.1452 8.47407 46.8814 8.42284 47.9343C8.37161 48.9871 10.7392 49.9578 13.711 50.1024C16.6828 50.247 19.1335 49.5107 19.1847 48.4579Z" fill="#0F0A26"/>
<path opacity="0.902" d="M19.0623 48.4033C19.1122 47.3842 16.8121 46.4434 13.925 46.302C11.0378 46.1607 8.65685 46.8723 8.60695 47.8915C8.55705 48.9106 10.8571 49.8514 13.7443 49.9928C16.6314 50.1341 19.0124 49.4225 19.0623 48.4033Z" fill="#0F0A26"/>
<path opacity="0.9216" d="M18.9388 48.3475C18.9874 47.362 16.7548 46.4512 13.9523 46.3131C11.1498 46.1751 8.8386 46.8621 8.79005 47.8476C8.7415 48.8332 10.974 49.744 13.7765 49.882C16.579 50.0201 18.8903 49.3331 18.9388 48.3475Z" fill="#0F0A26"/>
<path opacity="0.9412" d="M18.8153 48.2906C18.8625 47.3388 16.6975 46.4579 13.9796 46.3232C11.2618 46.1886 9.02029 46.851 8.97311 47.8029C8.92594 48.7547 11.0909 49.6356 13.8088 49.7703C16.5266 49.9049 18.7681 49.2425 18.8153 48.2906Z" fill="#0F0A26"/>
<path opacity="0.9608" d="M18.6918 48.2323C18.7376 47.3141 16.6401 46.4633 14.0069 46.3321C11.3737 46.2008 9.20192 46.8387 9.15614 47.7569C9.11036 48.6751 11.2079 49.5259 13.8411 49.6572C16.4743 49.7884 18.646 49.1505 18.6918 48.2323Z" fill="#0F0A26"/>
<path opacity="0.9804" d="M18.5635 48.182C18.608 47.2976 16.5782 46.4767 14.03 46.3486C11.4817 46.2205 9.37984 46.8337 9.33538 47.7181C9.29092 48.6026 11.3207 49.4234 13.869 49.5515C16.4172 49.6796 18.5191 49.0664 18.5635 48.182Z" fill="#0F0A26"/>
<path d="M18.4421 48.1276C18.4852 47.2768 16.523 46.4859 14.0593 46.3611C11.5957 46.2363 9.56354 46.8248 9.52043 47.6756C9.47733 48.5264 11.4396 49.3173 13.9032 49.4421C16.3669 49.5669 18.399 48.9784 18.4421 48.1276Z" fill="#0F0A26"/>
</g>
<g opacity="0.35">
<path opacity="0.0196" d="M61.0578 34.503C61.1671 31.9684 55.8253 29.6796 49.1266 29.3906C42.4279 29.1016 36.9089 30.922 36.7995 33.4565C36.6902 35.991 42.032 38.2799 48.7307 38.5689C55.4294 38.8579 60.9484 37.0375 61.0578 34.503Z" fill="#0F0A26"/>
<path opacity="0.0392" d="M60.9291 34.4445C61.037 31.9437 55.7627 29.685 49.1487 29.3997C42.5346 29.1144 37.0855 30.9104 36.9776 33.4113C36.8697 35.9121 42.144 38.1708 48.758 38.4561C55.372 38.7414 60.8212 36.9454 60.9291 34.4445Z" fill="#0F0A26"/>
<path opacity="0.0588" d="M60.8087 34.3911C60.9154 31.9239 55.7088 29.695 49.1794 29.4127C42.6501 29.1304 37.2705 30.9015 37.1639 33.3687C37.0572 35.8359 42.2638 38.0648 48.7931 38.3471C55.3225 38.6294 60.702 36.8583 60.8087 34.3911Z" fill="#0F0A26"/>
<path opacity="0.0784" d="M60.6874 34.3381C60.7929 31.9046 55.6539 29.7054 49.2093 29.4261C42.7646 29.1468 37.4546 30.8931 37.3492 33.3266C37.2437 35.7601 42.3827 37.9593 48.8273 38.2386C55.272 38.5179 60.582 36.7716 60.6874 34.3381Z" fill="#0F0A26"/>
<path opacity="0.098" d="M60.5588 34.2793C60.6628 31.8795 55.5913 29.7106 49.2313 29.4349C42.8713 29.1593 37.6312 30.8813 37.5272 33.2812C37.4232 35.681 42.4947 37.8499 48.8547 38.1255C55.2147 38.4012 60.4548 36.6792 60.5588 34.2793Z" fill="#0F0A26"/>
<path opacity="0.1176" d="M60.4384 34.2258C60.5411 31.8596 55.5373 29.7204 49.262 29.4478C42.9867 29.1752 37.8162 30.8724 37.7135 33.2386C37.6107 35.6048 42.6145 37.7439 48.8898 38.0165C55.1651 38.2891 60.3356 36.5919 60.4384 34.2258Z" fill="#0F0A26"/>
<path opacity="0.1373" d="M60.3169 34.1721C60.4185 31.8396 55.4823 29.7303 49.2917 29.4607C43.1011 29.1912 38.0003 30.8636 37.8987 33.1961C37.7972 35.5286 42.7333 37.6379 48.9239 37.9075C55.1146 38.177 60.2154 36.5046 60.3169 34.1721Z" fill="#0F0A26"/>
<path opacity="0.1569" d="M60.1884 34.113C60.2884 31.8142 55.4197 29.7351 49.3138 29.4692C43.2078 29.2034 38.1768 30.8514 38.0767 33.1503C37.9766 35.4492 42.8454 37.5283 48.9513 37.7941C55.0573 38.06 60.0883 36.4119 60.1884 34.113Z" fill="#0F0A26"/>
<path opacity="0.1765" d="M60.0608 34.0661C60.1597 31.8011 55.3591 29.752 49.3384 29.4892C43.3178 29.2265 38.3569 30.8496 38.2581 33.1145C38.1592 35.3795 42.9598 37.4286 48.9805 37.6914C55.0011 37.9541 59.962 36.331 60.0608 34.0661Z" fill="#0F0A26"/>
<path opacity="0.1961" d="M59.9394 34.012C60.037 31.7808 55.3041 29.7614 49.3681 29.5018C43.4321 29.2421 38.5409 30.8404 38.4433 33.0717C38.3457 35.303 43.0787 37.3223 49.0146 37.582C54.9506 37.8416 59.8418 36.2433 59.9394 34.012Z" fill="#0F0A26"/>
<path opacity="0.2157" d="M59.8098 33.9529C59.9059 31.7552 55.2404 29.7662 49.3891 29.5102C43.5378 29.2543 38.7165 30.8283 38.6204 33.026C38.5242 35.2236 43.1897 37.2126 49.041 37.4686C54.8923 37.7245 59.7137 36.1505 59.8098 33.9529Z" fill="#0F0A26"/>
<path opacity="0.2353" d="M59.6884 33.8987C59.7832 31.7348 55.1854 29.7756 49.4188 29.5227C43.6521 29.2699 38.9005 30.8192 38.8056 32.9832C38.7107 35.1471 43.3086 37.1063 49.0752 37.3592C54.8418 37.612 59.5935 36.0627 59.6884 33.8987Z" fill="#0F0A26"/>
<path opacity="0.2549" d="M59.566 33.8446C59.6597 31.7143 55.1294 29.7849 49.4474 29.5352C43.7655 29.2855 39.0834 30.8101 38.9898 32.9404C38.8962 35.0707 43.4265 37 49.1084 37.2497C54.7904 37.4994 59.4724 35.9749 59.566 33.8446Z" fill="#0F0A26"/>
<path opacity="0.2745" d="M59.4446 33.7901C59.5369 31.6934 55.0743 29.7939 49.477 29.5474C43.8797 29.3009 39.2674 30.8007 39.175 32.8973C39.0827 34.9939 43.5453 36.8935 49.1426 37.14C54.7399 37.3865 59.3522 35.8867 59.4446 33.7901Z" fill="#0F0A26"/>
<path opacity="0.2941" d="M59.314 33.7303C59.4048 31.6673 55.0096 29.7981 49.497 29.5553C43.9844 29.3125 39.4419 30.7881 39.351 32.8511C39.2602 34.914 43.6554 36.7833 49.168 37.026C54.6806 37.2688 59.2231 35.7933 59.314 33.7303Z" fill="#0F0A26"/>
<path opacity="0.3137" d="M59.1925 33.6755C59.2821 31.6462 54.9545 29.8069 49.5266 29.5672C44.0986 29.3276 39.6258 30.7785 39.5362 32.8078C39.4466 34.8371 43.7742 36.6764 49.2022 36.916C54.6301 37.1556 59.1029 35.7048 59.1925 33.6755Z" fill="#0F0A26"/>
<path opacity="0.3333" d="M59.0691 33.6206C59.1574 31.625 54.8974 29.8155 49.5542 29.5791C44.2109 29.3427 39.8077 30.7689 39.7194 32.7645C39.6311 34.7601 43.8911 36.5696 49.2344 36.806C54.5777 37.0424 58.9808 35.6163 59.0691 33.6206Z" fill="#0F0A26"/>
<path opacity="0.3529" d="M58.9457 33.5657C59.0327 31.6037 54.8403 29.8242 49.5817 29.591C44.3231 29.3578 39.9897 30.7592 39.9026 32.7212C39.8156 34.6832 44.008 36.4627 49.2666 36.6959C54.5252 36.9291 58.8587 35.5276 58.9457 33.5657Z" fill="#0F0A26"/>
<path opacity="0.3725" d="M58.8222 33.5109C58.9079 31.5825 54.7831 29.8329 49.6092 29.603C44.4353 29.373 40.1715 30.7498 40.0858 32.6781C40.0001 34.6065 44.1249 36.3561 49.2989 36.586C54.4728 36.816 58.7365 35.4392 58.8222 33.5109Z" fill="#0F0A26"/>
<path opacity="0.3922" d="M58.6997 33.4553C58.7841 31.5607 54.7269 29.841 49.6377 29.6143C44.5485 29.3876 40.3544 30.7397 40.27 32.6344C40.1856 34.529 44.2428 36.2487 49.3321 36.4754C54.4213 36.7021 58.6153 35.35 58.6997 33.4553Z" fill="#0F0A26"/>
<path opacity="0.4118" d="M58.5754 33.3999C58.6585 31.539 54.6688 29.8492 49.6642 29.6258C44.6596 29.4024 40.5353 30.7299 40.4522 32.5908C40.3691 34.4518 44.3588 36.1416 49.3633 36.365C54.3679 36.5884 58.4923 35.2609 58.5754 33.3999Z" fill="#0F0A26"/>
<path opacity="0.4314" d="M58.4519 33.3442C58.5336 31.5169 54.6116 29.8571 49.6917 29.6369C44.7718 29.4168 40.7171 30.7197 40.6354 32.547C40.5536 34.3744 44.4757 36.0342 49.3956 36.2543C54.3155 36.4745 58.3701 35.1716 58.4519 33.3442Z" fill="#0F0A26"/>
<path opacity="0.451" d="M58.3284 33.2882C58.4088 31.4946 54.5543 29.8647 49.7191 29.6479C44.8839 29.4311 40.8989 30.7093 40.8185 32.503C40.7381 34.2967 44.5926 35.9265 49.4278 36.1433C54.263 36.3602 58.2479 35.0819 58.3284 33.2882Z" fill="#0F0A26"/>
<path opacity="0.4706" d="M58.2039 33.2322C58.283 31.4722 54.496 29.8724 49.7455 29.6588C44.9949 29.4453 41.0798 30.699 41.0007 32.459C40.9215 34.219 44.7085 35.8188 49.459 36.0324C54.2096 36.2459 58.1248 34.9922 58.2039 33.2322Z" fill="#0F0A26"/>
<path opacity="0.4902" d="M58.0785 33.1758C58.1562 31.4495 54.4368 29.8797 49.7709 29.6695C45.1051 29.4593 41.2596 30.6884 41.1818 32.4147C41.1041 34.1411 44.8235 35.7109 49.4893 35.9211C54.1552 36.1313 58.0007 34.9022 58.0785 33.1758Z" fill="#0F0A26"/>
<path opacity="0.5098" d="M57.9539 33.1194C58.0304 31.4267 54.3785 29.8869 49.7973 29.68C45.2161 29.4732 41.4404 30.6778 41.3639 32.3704C41.2875 34.0631 44.9394 35.603 49.5206 35.8098C54.1018 36.0166 57.8775 34.8121 57.9539 33.1194Z" fill="#0F0A26"/>
<path opacity="0.5294" d="M57.8356 33.068C57.9108 31.409 54.3266 29.8988 49.8301 29.6949C45.3336 29.491 41.6275 30.6706 41.5522 32.3296C41.477 33.9886 45.0612 35.4988 49.5577 35.7027C54.0542 35.9066 57.7603 34.727 57.8356 33.068Z" fill="#0F0A26"/>
<path opacity="0.549" d="M57.71 33.0109C57.7839 31.3856 54.2673 29.9054 49.8554 29.7049C45.4436 29.5044 41.8072 30.6595 41.7334 32.2848C41.6595 33.9102 45.1761 35.3903 49.588 35.5908C53.9998 35.7913 57.6362 34.6363 57.71 33.0109Z" fill="#0F0A26"/>
<path opacity="0.5686" d="M57.5846 32.9538C57.6571 31.3621 54.208 29.9121 49.8808 29.715C45.5536 29.5179 41.987 30.6484 41.9145 32.2401C41.842 33.8318 45.2911 35.2818 49.6183 35.4789C53.9454 35.676 57.5121 34.5455 57.5846 32.9538Z" fill="#0F0A26"/>
<path opacity="0.5882" d="M57.4652 32.9011C57.5365 31.343 54.155 29.9227 49.9125 29.7286C45.67 29.5345 42.173 30.6402 42.1017 32.1982C42.0304 33.7563 45.4119 35.1766 49.6544 35.3707C53.8969 35.5648 57.3939 34.4591 57.4652 32.9011Z" fill="#0F0A26"/>
<path opacity="0.6078" d="M57.3386 32.8433C57.4085 31.3189 54.0946 29.9287 49.9368 29.7381C45.7789 29.5474 42.3517 30.6286 42.2818 32.153C42.2119 33.6774 45.5259 35.0676 49.6837 35.2582C53.8415 35.4489 57.2687 34.3676 57.3386 32.8433Z" fill="#0F0A26"/>
<path opacity="0.6275" d="M57.2067 32.7923C57.2752 31.3018 54.0291 29.9418 49.9564 29.7546C45.8836 29.5675 42.5265 30.6241 42.458 32.1146C42.3895 33.6052 45.6356 34.9652 49.7083 35.1523C53.7811 35.3395 57.1382 34.2829 57.2067 32.7923Z" fill="#0F0A26"/>
<path opacity="0.6471" d="M57.0864 32.7388C57.1536 31.282 53.9751 29.9517 49.987 29.7677C45.9989 29.5836 42.7114 30.6155 42.6442 32.0723C42.577 33.5292 45.7554 34.8594 49.7435 35.0435C53.7316 35.2275 57.0191 34.1957 57.0864 32.7388Z" fill="#0F0A26"/>
<path opacity="0.6667" d="M56.9649 32.6852C57.0309 31.2619 53.92 29.9615 50.0166 29.7806C46.1132 29.5997 42.8954 30.6067 42.8294 32.03C42.7634 33.4532 45.8743 34.7536 49.7777 34.9345C53.6811 35.1155 56.899 34.1084 56.9649 32.6852Z" fill="#0F0A26"/>
<path opacity="0.6863" d="M56.8374 32.6259C56.9019 31.2363 53.8585 29.9661 50.0398 29.7887C46.2211 29.6113 43.073 30.5939 43.0085 31.9835C42.9439 33.3731 45.9873 34.6433 49.8061 34.8207C53.6248 34.9981 56.7728 34.0154 56.8374 32.6259Z" fill="#0F0A26"/>
<path opacity="0.7059" d="M56.716 32.5715C56.7793 31.2156 53.8034 29.9753 50.0694 29.8011C46.3353 29.6269 43.2569 30.5848 43.1936 31.9407C43.1304 33.2966 46.1062 34.537 49.8403 34.7112C53.5744 34.8854 56.6528 33.9274 56.716 32.5715Z" fill="#0F0A26"/>
<path opacity="0.7255" d="M56.5926 32.5166C56.6545 31.1944 53.7463 29.9839 50.0969 29.8129C46.4474 29.6419 43.4388 30.5752 43.3768 31.8974C43.3149 33.2196 46.2231 34.4301 49.8725 34.6011C53.522 34.7721 56.5306 33.8388 56.5926 32.5166Z" fill="#0F0A26"/>
<path opacity="0.7451" d="M56.4701 32.4612C56.5307 31.1727 53.6901 29.9921 50.1253 29.8244C46.5605 29.6566 43.6216 30.5653 43.561 31.8538C43.5003 33.1424 46.341 34.323 49.9057 34.4907C53.4705 34.6584 56.4095 33.7498 56.4701 32.4612Z" fill="#0F0A26"/>
<path opacity="0.7647" d="M56.3476 32.4053C56.4069 31.1504 53.6338 29.9998 50.1537 29.8353C46.6736 29.6709 43.8044 30.5549 43.7451 31.8098C43.6858 33.0647 46.4589 34.2153 49.9389 34.3798C53.419 34.5442 56.2883 33.6602 56.3476 32.4053Z" fill="#0F0A26"/>
<path opacity="0.7843" d="M56.2232 32.349C56.2811 31.1278 53.5755 30.0071 50.1801 29.846C46.7847 29.6849 43.9851 30.5443 43.9272 31.7655C43.8692 32.9868 46.5748 34.1074 49.9703 34.2685C53.3657 34.4297 56.1652 33.5703 56.2232 32.349Z" fill="#0F0A26"/>
<path opacity="0.8039" d="M56.0977 32.2921C56.1543 31.1045 53.5162 30.0139 50.2055 29.8561C46.8947 29.6984 44.1649 30.5332 44.1083 31.7208C44.0517 32.9084 46.6898 33.999 50.0005 34.1568C53.3113 34.3145 56.0411 33.4797 56.0977 32.2921Z" fill="#0F0A26"/>
<path opacity="0.8235" d="M55.9731 32.2346C56.0283 31.0807 53.4578 30.0201 50.2318 29.8657C47.0057 29.7113 44.3456 30.5216 44.2904 31.6755C44.2352 32.8295 46.8057 33.89 50.0318 34.0444C53.2579 34.1988 55.9179 33.3885 55.9731 32.2346Z" fill="#0F0A26"/>
<path opacity="0.8431" d="M55.8487 32.188C55.9026 31.0679 53.4 30.0372 50.2589 29.8859C47.1177 29.7346 44.5276 30.5201 44.4737 31.6402C44.4197 32.7604 46.9224 33.7911 50.0635 33.9424C53.2046 34.0936 55.7948 33.3082 55.8487 32.188Z" fill="#0F0A26"/>
<path opacity="0.8627" d="M55.7212 32.1295C55.7737 31.043 53.3386 30.0424 50.2821 29.8946C47.2256 29.7468 44.7053 30.5078 44.6528 31.5943C44.6002 32.6807 47.0354 33.6813 50.0918 33.8291C53.1483 33.977 55.6687 33.216 55.7212 32.1295Z" fill="#0F0A26"/>
<path opacity="0.8824" d="M55.6007 32.0746C55.6519 31.0218 53.2844 30.0511 50.3125 29.9065C47.3407 29.7619 44.8901 30.4981 44.8389 31.551C44.7876 32.6038 47.1552 33.5745 50.127 33.7191C53.0988 33.8637 55.5495 33.1274 55.6007 32.0746Z" fill="#0F0A26"/>
<path opacity="0.902" d="M55.4783 32.0195C55.5282 31.0004 53.2282 30.0596 50.341 29.9182C47.4538 29.7769 45.0729 30.4885 45.023 31.5077C44.9731 32.5268 47.2731 33.4676 50.1603 33.609C53.0475 33.7503 55.4284 33.0387 55.4783 32.0195Z" fill="#0F0A26"/>
<path opacity="0.9216" d="M55.3548 31.963C55.4034 30.9775 53.1709 30.0667 50.3683 29.9286C47.5658 29.7906 45.2546 30.4776 45.2061 31.4631C45.1575 32.4486 47.39 33.3595 50.1925 33.4975C52.9951 33.6356 55.3063 32.9486 55.3548 31.963Z" fill="#0F0A26"/>
<path opacity="0.9412" d="M55.2303 31.9059C55.2775 30.954 53.1125 30.0732 50.3947 29.9385C47.6768 29.8038 45.4353 30.4662 45.3882 31.4181C45.341 32.37 47.506 33.2508 50.2238 33.3855C52.9417 33.5202 55.1832 32.8577 55.2303 31.9059Z" fill="#0F0A26"/>
<path opacity="0.9608" d="M55.1049 31.8476C55.1507 30.9294 53.0532 30.0786 50.42 29.9473C47.7868 29.816 45.615 30.4539 45.5692 31.3721C45.5234 32.2903 47.621 33.1411 50.2542 33.2724C52.8874 33.4037 55.0591 32.7658 55.1049 31.8476Z" fill="#0F0A26"/>
<path opacity="0.9804" d="M54.9796 31.7997C55.024 30.9152 52.9943 30.0944 50.446 29.9663C47.8977 29.8382 45.7959 30.4514 45.7514 31.3358C45.7069 32.2203 47.7367 33.0411 50.285 33.1692C52.8333 33.2973 54.9351 32.6841 54.9796 31.7997Z" fill="#0F0A26"/>
<path d="M54.8581 31.7441C54.9012 30.8933 52.939 30.1024 50.4753 29.9776C48.0117 29.8527 45.9796 30.4412 45.9364 31.292C45.8933 32.1428 47.8556 32.9337 50.3192 33.0585C52.7829 33.1834 54.815 32.5948 54.8581 31.7441Z" fill="#0F0A26"/>
</g>
<path d="M57.4298 0.692736C48.4905 1.14811 39.5679 1.87507 30.6463 2.58893C28.9883 2.71999 27.5421 4.14643 27.3953 5.83331C26.9422 10.8144 26.4649 15.7921 25.9794 20.7702C25.8034 22.5785 26.9794 24.0876 28.6 24.1406C33.9005 24.3159 39.2008 24.4971 44.5018 24.6506C46.1285 28.6729 46.9182 30.7723 48.5642 34.7171C49.0051 35.774 50.3532 35.3887 50.496 34.1451C50.9066 30.5651 51.146 28.6496 51.62 24.8299C52.8521 24.8561 53.4692 24.8681 54.7063 24.8893C56.3464 24.9173 57.911 23.1527 58.1913 20.9561C58.9346 15.184 59.6569 9.40668 60.1953 3.61127C60.3555 1.83322 59.0936 0.60934 57.4298 0.692736Z" fill="url(#paint58_linear_1_2185)"/>
<path d="M56.9347 0.00401469C47.9953 0.459393 39.0727 1.18635 30.1512 1.90025C28.4931 2.03132 27.0469 3.45775 26.9002 5.14463C26.4471 10.1258 25.9698 15.1034 25.4842 20.0815C25.3083 21.8898 26.4843 23.3989 28.1049 23.4519C33.4054 23.6272 38.7057 23.8084 44.0067 23.9619C45.6334 27.9842 46.4231 30.0836 48.0691 34.0284C48.51 35.0853 49.8581 34.7 50.0009 33.4564C50.4115 29.8764 50.6509 27.961 51.1249 24.1412C52.357 24.1674 52.974 24.1794 54.2111 24.2006C55.8512 24.2286 57.4159 22.464 57.6962 20.2674C58.4395 14.4954 59.1618 8.718 59.7002 2.9226C59.8603 1.14454 58.5985 -0.0793806 56.9347 0.00401469Z" fill="url(#paint59_linear_1_2185)"/>
<path d="M43.876 23.7872C38.575 23.6337 33.2747 23.4525 27.9742 23.2772C27.1887 23.2515 26.5094 22.8817 26.0361 22.3035C26.51 22.9812 27.2434 23.4237 28.1053 23.4518C33.3853 23.6264 38.6651 23.8068 43.9458 23.9599C43.9222 23.9015 43.9 23.8465 43.876 23.7872Z" fill="url(#paint60_linear_1_2185)"/>
<path d="M59.1262 0.90918C59.4617 1.39794 59.6341 2.02598 59.569 2.74787C59.0307 8.54328 58.3083 14.3206 57.565 20.0927C57.2848 22.2893 55.7201 24.0539 54.08 24.0259C52.8429 24.0047 52.2259 23.9928 50.9938 23.9665C50.5197 27.7862 50.2803 29.7017 49.8697 33.2817C49.7457 34.3621 48.7126 34.7932 48.1543 34.1952C48.6617 35.0369 49.8662 34.6285 50.0006 33.4564C50.4114 29.8764 50.6508 27.9609 51.1247 24.1412C52.3568 24.1674 52.9739 24.1794 54.211 24.2006C55.851 24.2286 57.4158 22.464 57.6961 20.2674C58.4394 14.4953 59.1616 8.71798 59.7001 2.92257C59.7731 2.11163 59.5481 1.41814 59.1262 0.90918Z" fill="url(#paint61_linear_1_2185)"/>
<path d="M56.1927 5.84698C47.4196 6.29461 38.6553 6.89412 29.8913 7.48928C29.6713 7.50412 29.5102 7.32853 29.5311 7.0982C29.5521 6.86779 29.7472 6.66928 29.9674 6.6538C38.736 6.0312 47.5051 5.4035 56.2842 4.94336C56.5055 4.93188 56.6651 5.12291 56.6397 5.37259C56.6144 5.62226 56.4139 5.83579 56.1927 5.84698Z" fill="white"/>
<path d="M55.9093 8.49376C47.1582 8.88824 38.4124 9.38976 29.6668 9.88929C29.4472 9.90175 29.2875 9.72075 29.3097 9.48583C29.3319 9.25091 29.5278 9.05027 29.7475 9.03692C38.5004 8.50078 47.2537 7.96184 56.0132 7.5458C56.2344 7.53538 56.3909 7.73763 56.3621 7.99964C56.3333 8.26174 56.1303 8.48386 55.9093 8.49376Z" fill="white"/>
<path d="M55.5948 11.2499C46.8719 11.5691 38.1514 11.9499 29.4308 12.3313C29.2119 12.3408 29.0533 12.1546 29.0765 11.9159C29.0997 11.6773 29.2961 11.4758 29.5152 11.4651C38.2452 11.0398 46.9755 10.6141 55.709 10.2661C55.9298 10.2574 56.0836 10.4695 56.052 10.7415C56.0203 11.0135 55.8154 11.2419 55.5948 11.2499Z" fill="white"/>
<path d="M55.2556 14.0919C46.5656 14.3216 37.8759 14.5621 29.1863 14.8066C28.968 14.8128 28.8105 14.6216 28.8344 14.3801C28.8584 14.1385 29.0548 13.9372 29.2733 13.9298C37.9743 13.6346 46.6755 13.3416 55.3776 13.0807C55.5979 13.0741 55.7495 13.2944 55.7156 13.5741C55.6819 13.8538 55.4757 14.0862 55.2556 14.0919Z" fill="white"/>
<path d="M54.8994 16.9951C46.2455 17.1114 37.5913 17.2089 28.937 17.306C28.7196 17.3085 28.5631 17.1128 28.5875 16.8693C28.6117 16.6257 28.8079 16.4255 29.0257 16.4216C37.6928 16.2714 46.3599 16.1223 55.0269 15.9649C55.2466 15.9608 55.3964 16.1879 55.361 16.4728C55.3257 16.7578 55.1189 16.992 54.8994 16.9951Z" fill="white"/>
<path d="M38.0835 20.4052C29.4707 20.8718 20.8583 21.3426 12.2433 21.7673C10.6938 21.8406 9.31067 23.1396 9.15655 24.6668C8.7118 29.0386 8.29074 33.4141 7.90349 37.7914C7.76677 39.3291 8.93086 40.6461 10.4843 40.7354C11.5544 40.797 12.0873 40.8296 13.1496 40.8978C12.9564 43.2649 12.7536 46.0935 12.6224 48.1248C12.5593 49.1013 13.6972 49.662 14.3929 49.0065C17.4938 46.085 19.0258 44.6572 22.1548 41.5583C26.6682 41.9251 31.1792 42.3204 35.6912 42.7047C37.1883 42.8308 38.5536 41.4703 38.7544 39.622C39.3417 34.2566 39.9655 28.8955 40.5553 23.5304C40.7553 21.697 39.6413 20.3217 38.0835 20.4052Z" fill="url(#paint62_linear_1_2185)"/>
<path d="M37.4918 19.8825C28.8789 20.3491 20.2666 20.8199 11.6515 21.2446C10.102 21.3179 8.71887 22.6169 8.56475 24.1441C8.12001 28.5159 7.69895 32.8914 7.3117 37.2687C7.17497 38.8064 8.33906 40.1234 9.89249 40.2127C10.9626 40.2743 11.4955 40.3069 12.5578 40.3751C12.3646 42.7422 12.1618 45.5708 12.0306 47.6021C11.9675 48.5786 13.1054 49.1393 13.8011 48.4838C16.902 45.5623 18.434 44.1345 21.563 41.0355C26.0764 41.4024 30.5874 41.7977 35.0994 42.182C36.5965 42.3081 37.9618 40.9476 38.1626 39.0993C38.7499 33.7339 39.3737 28.3728 39.9635 23.0077C40.1635 21.1743 39.0496 19.799 37.4918 19.8825Z" fill="url(#paint63_linear_1_2185)"/>
<path d="M22.206 33.2793C22.2106 33.0817 22.2131 32.9829 22.2178 32.7854C22.2095 31.7773 22.6363 30.6504 23.6049 29.5275C24.4854 28.5066 24.9936 27.7422 25.0782 26.8799C25.174 25.9026 24.6702 25.2596 23.5827 25.2786C22.9603 25.2895 22.2354 25.5391 21.7655 25.9034C21.6433 25.4365 21.5818 25.2041 21.459 24.7412C22.0952 24.2778 23.1023 23.9446 24.0277 23.9123C26.0366 23.8422 26.811 25.172 26.6648 26.6435C26.5341 27.9603 25.7714 28.9406 24.8402 30.0139C23.9798 31.0057 23.6211 31.863 23.5792 32.8411C23.5678 33.0328 23.5621 33.1287 23.5508 33.3204C23.0132 33.3038 22.7442 33.2955 22.206 33.2793ZM22.4669 37.1569C21.884 37.1234 21.5179 36.592 21.5784 35.9321C21.6425 35.234 22.119 34.7597 22.721 34.7844C23.3233 34.8092 23.6882 35.3254 23.622 36.0332C23.5593 36.7024 23.118 37.1943 22.4841 37.1579C22.4773 37.1575 22.4738 37.1572 22.4669 37.1569Z" fill="white"/>
<path d="M39.5031 20.8875C39.8225 21.4232 39.9748 22.1145 39.8902 22.8895C39.3004 28.2545 38.6766 33.6157 38.0893 38.981C37.8885 40.8293 36.5232 42.1899 35.026 42.0638C30.5141 41.6794 26.0031 41.2841 21.4897 40.9173C18.3607 44.0163 16.8286 45.4441 13.7278 48.3656C13.2319 48.8329 12.5132 48.6803 12.1631 48.2013C12.474 48.7713 13.2681 48.9877 13.8031 48.4838C16.9038 45.5623 18.4359 44.1345 21.565 41.0355C26.0784 41.4024 30.5894 41.7977 35.1013 42.182C36.5985 42.3081 37.9637 40.9475 38.1646 39.0992C38.7518 33.7339 39.3757 28.3727 39.9655 23.0077C40.0565 22.1742 39.8737 21.4376 39.5031 20.8875Z" fill="url(#paint64_linear_1_2185)"/>
<path d="M12.4835 40.2567C11.4212 40.1885 10.8883 40.1559 9.81819 40.0943C8.8951 40.0413 8.11218 39.5528 7.65527 38.844C8.0984 39.6174 8.91917 40.1565 9.89338 40.2126C10.9335 40.2724 11.4701 40.3052 12.4745 40.3696C12.4775 40.3326 12.4806 40.2936 12.4835 40.2567Z" fill="url(#paint65_linear_1_2185)"/>
<path d="M83.9901 29.0448C73.8718 28.012 63.7434 27.2529 53.5995 26.5214C53.3073 26.4974 53.1287 26.3031 53.2004 26.0871C53.2722 25.871 53.5667 25.715 53.8583 25.739C63.9959 26.464 74.1205 27.2003 84.2342 28.2108C84.5011 28.2441 84.6639 28.4564 84.5969 28.6871C84.5299 28.9177 84.2579 29.0787 83.9901 29.0448Z" fill="url(#paint66_linear_1_2185)"/>
<path d="M71.1592 38.7731C64.2231 37.892 57.2847 37.0559 50.3398 36.2473C50.0951 36.2187 49.9349 36.0603 49.9832 35.8934C49.9978 35.8432 50.0051 35.8181 50.0199 35.7678C50.0685 35.6008 50.3072 35.4881 50.5515 35.516C57.4998 36.3048 64.4416 37.1194 71.3811 37.9811C71.6099 38.0112 71.7527 38.184 71.7018 38.3656C71.6864 38.4203 71.6787 38.4476 71.6635 38.5021C71.613 38.6831 71.3878 38.8038 71.1592 38.7731Z" fill="url(#paint67_linear_1_2185)"/>
<path d="M80.2533 42.207C70.151 40.7704 60.0469 39.4039 49.9156 38.1871C49.6193 38.1512 49.4191 37.9589 49.4711 37.7579C49.5229 37.5569 49.807 37.4228 50.1028 37.4583C60.2305 38.6592 70.3294 40.0102 80.4248 41.4576C80.7022 41.5012 80.8873 41.7075 80.8407 41.9141C80.7938 42.1207 80.5319 42.25 80.2533 42.207Z" fill="url(#paint68_linear_1_2185)"/>
<path d="M81.9209 37.3545C71.5269 35.8581 61.1141 34.7184 50.6689 33.6439C51.2667 31.764 51.5985 30.8148 52.2617 28.8679C62.7215 29.6975 73.1575 30.5212 83.5771 31.7694C82.9028 34.0082 82.541 35.1744 81.9209 37.3545Z" fill="url(#paint69_linear_1_2185)"/>
<path d="M79.5373 34.5792C70.8857 33.5169 62.2224 32.6688 53.5434 31.8647C53.2724 31.8389 53.104 31.6619 53.1678 31.4691C53.1753 31.4468 53.1791 31.4358 53.1863 31.4135C53.2503 31.2205 53.5225 31.084 53.7934 31.1089C62.4775 31.8782 71.1469 32.6848 79.8049 33.7108C80.0574 33.7443 80.2065 33.9528 80.1381 34.1754C80.1302 34.2011 80.1263 34.214 80.1184 34.2397C80.05 34.4623 79.79 34.6138 79.5373 34.5792Z" fill="#8C8C8C"/>
<path d="M76.6093 19.5243C76.2217 23.0109 73.0344 25.7977 69.5108 25.6831C65.9872 25.5686 63.4347 22.5814 63.7768 19.1122C64.1189 15.6429 67.2445 13.0234 70.8256 13.1226C74.4067 13.2218 76.9968 16.0377 76.6093 19.5243Z" fill="url(#paint70_linear_1_2185)"/>
<path d="M76.027 19.5034C75.9169 20.4949 75.5414 21.4269 75.0072 22.2287C74.9092 22.3759 74.8046 22.52 74.6949 22.6592C74.2692 23.1999 73.7468 23.6725 73.1732 24.0491C72.9504 24.1954 72.7131 24.331 72.4737 24.4476C71.5946 24.8761 70.6009 25.12 69.5803 25.0874C69.3897 25.0813 69.204 25.0671 69.0241 25.044C67.9824 24.9103 67.0517 24.4924 66.3004 23.8747C66.1011 23.7108 65.9108 23.5323 65.7393 23.3422C65.3209 22.8786 64.9758 22.3357 64.7376 21.7461C64.416 20.9505 64.278 20.0616 64.3695 19.1371C64.6812 15.9885 67.5266 13.5987 70.7757 13.6882C74.0249 13.7777 76.3783 16.3406 76.027 19.5034Z" fill="url(#paint71_linear_1_2185)"/>
<path d="M67.4262 19.5413C67.2394 20.9085 67.1431 21.597 66.9475 22.9799C66.9475 22.9799 66.7421 23.049 66.439 23.1412C66.2408 23.2016 65.9983 23.2705 65.739 23.3421C65.315 22.878 64.975 22.3369 64.7373 21.746C65.5808 21.2246 67.4262 19.5413 67.4262 19.5413Z" fill="#202F7A"/>
<path d="M73.1725 24.049C72.1256 24.7379 70.8798 25.1288 69.5797 25.0872C69.3891 25.0811 69.2034 25.0669 69.0235 25.0438C67.9818 24.9102 67.0513 24.4944 66.2998 23.8746C66.3425 23.6382 66.3919 23.3888 66.4387 23.1412C66.6149 22.2109 66.779 21.305 66.8304 20.9412C66.9095 20.3808 67.1021 19.8955 67.4066 19.5616C67.4118 19.5534 67.4208 19.5495 67.4259 19.5412C67.5903 19.3621 67.7928 19.2303 68.0318 19.1621C68.1379 19.1318 68.3297 19.1085 68.5757 19.0944C68.7181 19.0863 68.8776 19.0822 69.0541 19.0789C69.093 19.0758 69.1317 19.077 69.1748 19.0739C69.6307 19.0702 70.1662 19.081 70.7035 19.1087C70.7053 19.1087 70.706 19.1088 70.7078 19.1088C70.9724 19.1204 71.2406 19.1364 71.4953 19.1562C71.4971 19.1562 71.4978 19.1562 71.4996 19.1563C71.6437 19.1688 71.7922 19.1814 71.9271 19.1979C71.9289 19.1979 71.9299 19.198 71.9315 19.198C72.2238 19.2232 72.4911 19.2586 72.7152 19.2964C72.9395 19.3341 73.1284 19.4554 73.2415 19.6267C73.3452 19.7683 73.3944 19.9379 73.3862 20.1268C73.3095 21.6837 73.266 22.4693 73.1725 24.049Z" fill="url(#paint72_linear_1_2185)"/>
<path d="M68.338 15.825C68.338 15.825 67.9669 16.8701 67.979 17.2376C67.9911 17.605 67.8876 18.5643 68.1791 18.778C68.4706 18.9916 69.0477 18.8478 69.0477 18.8478C69.0536 19.0641 69.0563 19.1723 69.0618 19.3891C69.064 19.4798 69.0958 19.5654 69.1522 19.6332C69.5849 20.1528 70.3564 20.2541 70.9709 19.8705C71.0477 19.8226 71.0861 19.7986 71.1629 19.7507C71.3798 19.6153 71.5101 19.375 71.4987 19.1304C71.4743 18.5984 71.4614 18.333 71.4344 17.8042C71.4344 17.8042 72.0922 16.9555 71.9279 16.5838C71.7635 16.212 69.7736 15.6543 69.7736 15.6543C69.2151 15.7056 68.9357 15.7312 68.3773 15.7818C68.3616 15.7991 68.3537 15.8077 68.338 15.825Z" fill="url(#paint73_linear_1_2185)"/>
<path d="M67.8917 15.6576C67.8917 15.6576 68.0838 16.4333 69.0938 16.3801C70.1038 16.327 70.4532 16.0961 70.4532 16.0961C70.4532 16.0961 70.1927 16.5365 70.4758 16.7685C70.7588 17.0004 70.5618 17.5766 70.5618 17.5766C70.7007 17.5875 70.7703 17.593 70.9092 17.604C70.9092 17.604 71.1605 16.8041 71.4463 16.8272C71.7323 16.8502 71.2382 17.7027 71.4782 17.93C71.7182 18.1572 72.5468 17.1392 72.3767 16.0071C72.2068 14.875 71.7433 14.8226 71.7433 14.8226C71.7433 14.8226 71.719 14.1967 70.7548 14.1179C69.7906 14.0392 68.3729 14.8939 68.0486 14.7162C67.7242 14.5384 67.5824 15.075 67.8917 15.6576Z" fill="#202F7A"/>
<path d="M71.6555 18.6667C71.6487 18.6889 69.915 19.4685 69.915 19.4685C70.0197 19.8752 70.0719 20.0791 70.175 20.4876C70.8872 19.9629 71.2434 19.701 71.9536 19.1791C71.8347 18.9739 71.7751 18.8714 71.6555 18.6667Z" fill="#202F7A"/>
<path d="M69.3418 19.5108C69.0133 19.8244 68.849 19.9814 68.5205 20.2956C68.5465 19.726 68.5591 19.4418 68.5831 18.8754C68.782 18.8569 68.8815 18.8476 69.0804 18.8291C69.1853 19.1014 69.2378 19.2377 69.3418 19.5108Z" fill="#202F7A"/>
<path d="M75.0069 22.2288C74.9093 22.3781 74.8043 22.5201 74.6946 22.6593C74.2689 23.2 73.7465 23.6726 73.1728 24.0492C72.95 24.1955 72.7159 24.3321 72.4734 24.4477C72.059 22.2894 72.7248 19.8133 73.3458 19.8401C74.1744 19.8757 74.6933 20.9253 75.0069 22.2288Z" fill="#202F7A"/>
<defs>
<linearGradient id="paint0_linear_1_2185" x1="41.7197" y1="29.3776" x2="99.9999" y2="29.3776" gradientUnits="userSpaceOnUse">
<stop stop-color="#6772B5"/>
<stop offset="1" stop-color="#313F95"/>
</linearGradient>
<linearGradient id="paint1_linear_1_2185" x1="41.0557" y1="28.4614" x2="99.3359" y2="28.4614" gradientUnits="userSpaceOnUse">
<stop offset="0.3836" stop-color="#7983BE"/>
<stop offset="1" stop-color="#BCBEDD"/>
</linearGradient>
<linearGradient id="paint2_linear_1_2185" x1="42.6474" y1="28.4612" x2="97.7432" y2="28.4612" gradientUnits="userSpaceOnUse">
<stop stop-color="#6772B5"/>
<stop offset="1" stop-color="#313F95"/>
</linearGradient>
<linearGradient id="paint3_linear_1_2185" x1="93.5951" y1="49.9499" x2="38.1629" y2="63.0864" gradientUnits="userSpaceOnUse">
<stop offset="0.3836" stop-color="#7983BE"/>
<stop offset="1" stop-color="#BCBEDD"/>
</linearGradient>
<linearGradient id="paint4_linear_1_2185" x1="93.5951" y1="49.7399" x2="38.1629" y2="62.8765" gradientUnits="userSpaceOnUse">
<stop stop-color="#FAFAFC"/>
<stop offset="1" stop-color="#DDDDED"/>
</linearGradient>
<linearGradient id="paint5_linear_1_2185" x1="17.7989" y1="57.9674" x2="85.8914" y2="57.9674" gradientUnits="userSpaceOnUse">
<stop stop-color="#FAFAFC"/>
<stop offset="1" stop-color="#DDDDED"/>
</linearGradient>
<linearGradient id="paint6_linear_1_2185" x1="17.8047" y1="62.0871" x2="85.8876" y2="62.0871" gradientUnits="userSpaceOnUse">
<stop stop-color="#FAFAFC"/>
<stop offset="0.5391" stop-color="white"/>
<stop offset="1" stop-color="#DDDDED"/>
</linearGradient>
<linearGradient id="paint7_linear_1_2185" x1="106.809" y1="49.0397" x2="38.9298" y2="44.2562" gradientUnits="userSpaceOnUse">
<stop stop-color="#6772B5"/>
<stop offset="1" stop-color="#313F95"/>
</linearGradient>
<linearGradient id="paint8_linear_1_2185" x1="104.047" y1="49.3881" x2="36.9132" y2="44.6571" gradientUnits="userSpaceOnUse">
<stop stop-color="#6772B5"/>
<stop offset="1" stop-color="#313F95"/>
</linearGradient>
<linearGradient id="paint9_linear_1_2185" x1="101.264" y1="49.7017" x2="34.9677" y2="45.0298" gradientUnits="userSpaceOnUse">
<stop stop-color="#6772B5"/>
<stop offset="1" stop-color="#313F95"/>
</linearGradient>
<linearGradient id="paint10_linear_1_2185" x1="98.5171" y1="49.9905" x2="33.1184" y2="45.3818" gradientUnits="userSpaceOnUse">
<stop stop-color="#6772B5"/>
<stop offset="1" stop-color="#313F95"/>
</linearGradient>
<linearGradient id="paint11_linear_1_2185" x1="95.8505" y1="50.2636" x2="31.3751" y2="45.7199" gradientUnits="userSpaceOnUse">
<stop stop-color="#6772B5"/>
<stop offset="1" stop-color="#313F95"/>
</linearGradient>
<linearGradient id="paint12_linear_1_2185" x1="93.3003" y1="50.53" x2="29.7365" y2="46.0506" gradientUnits="userSpaceOnUse">
<stop stop-color="#6772B5"/>
<stop offset="1" stop-color="#313F95"/>
</linearGradient>
<linearGradient id="paint13_linear_1_2185" x1="90.8886" y1="50.7968" x2="28.1908" y2="46.3784" gradientUnits="userSpaceOnUse">
<stop stop-color="#6772B5"/>
<stop offset="1" stop-color="#313F95"/>
</linearGradient>
<linearGradient id="paint14_linear_1_2185" x1="88.6241" y1="51.0711" x2="26.7144" y2="46.7083" gradientUnits="userSpaceOnUse">
<stop stop-color="#6772B5"/>
<stop offset="1" stop-color="#313F95"/>
</linearGradient>
<linearGradient id="paint15_linear_1_2185" x1="86.5099" y1="51.3589" x2="25.2713" y2="47.0434" gradientUnits="userSpaceOnUse">
<stop stop-color="#6772B5"/>
<stop offset="1" stop-color="#313F95"/>
</linearGradient>
<linearGradient id="paint16_linear_1_2185" x1="84.5311" y1="51.6657" x2="23.8143" y2="47.387" gradientUnits="userSpaceOnUse">
<stop stop-color="#6772B5"/>
<stop offset="1" stop-color="#313F95"/>
</linearGradient>
<linearGradient id="paint17_linear_1_2185" x1="82.6645" y1="51.9954" x2="22.2859" y2="47.7405" gradientUnits="userSpaceOnUse">
<stop stop-color="#6772B5"/>
<stop offset="1" stop-color="#313F95"/>
</linearGradient>
<linearGradient id="paint18_linear_1_2185" x1="101.24" y1="50.6444" x2="36.1107" y2="46.0547" gradientUnits="userSpaceOnUse">
<stop stop-color="#6772B5"/>
<stop offset="1" stop-color="#313F95"/>
</linearGradient>
<linearGradient id="paint19_linear_1_2185" x1="99.5347" y1="51.1358" x2="34.1087" y2="46.5252" gradientUnits="userSpaceOnUse">
<stop stop-color="#6772B5"/>
<stop offset="1" stop-color="#313F95"/>
</linearGradient>
<linearGradient id="paint20_linear_1_2185" x1="97.6324" y1="51.5827" x2="32.0323" y2="46.9598" gradientUnits="userSpaceOnUse">
<stop stop-color="#6772B5"/>
<stop offset="1" stop-color="#313F95"/>
</linearGradient>
<linearGradient id="paint21_linear_1_2185" x1="95.5902" y1="51.9953" x2="29.9083" y2="47.3667" gradientUnits="userSpaceOnUse">
<stop stop-color="#6772B5"/>
<stop offset="1" stop-color="#313F95"/>
</linearGradient>
<linearGradient id="paint22_linear_1_2185" x1="93.4551" y1="52.3837" x2="27.7536" y2="47.7537" gradientUnits="userSpaceOnUse">
<stop stop-color="#6772B5"/>
<stop offset="1" stop-color="#313F95"/>
</linearGradient>
<linearGradient id="paint23_linear_1_2185" x1="91.2725" y1="52.7569" x2="25.5742" y2="48.1271" gradientUnits="userSpaceOnUse">
<stop stop-color="#6772B5"/>
<stop offset="1" stop-color="#313F95"/>
</linearGradient>
<linearGradient id="paint24_linear_1_2185" x1="89.0658" y1="53.1232" x2="23.3627" y2="48.4931" gradientUnits="userSpaceOnUse">
<stop stop-color="#6772B5"/>
<stop offset="1" stop-color="#313F95"/>
</linearGradient>
<linearGradient id="paint25_linear_1_2185" x1="86.8522" y1="53.4903" x2="21.1011" y2="48.8568" gradientUnits="userSpaceOnUse">
<stop stop-color="#6772B5"/>
<stop offset="1" stop-color="#313F95"/>
</linearGradient>
<linearGradient id="paint26_linear_1_2185" x1="84.6355" y1="53.8649" x2="18.76" y2="49.2226" gradientUnits="userSpaceOnUse">
<stop stop-color="#6772B5"/>
<stop offset="1" stop-color="#313F95"/>
</linearGradient>
<linearGradient id="paint27_linear_1_2185" x1="79.2062" y1="54.337" x2="28.0498" y2="50.7319" gradientUnits="userSpaceOnUse">
<stop stop-color="#6772B5"/>
<stop offset="1" stop-color="#313F95"/>
</linearGradient>
<linearGradient id="paint28_linear_1_2185" x1="97.2568" y1="52.2304" x2="33.2947" y2="47.723" gradientUnits="userSpaceOnUse">
<stop stop-color="#6772B5"/>
<stop offset="1" stop-color="#313F95"/>
</linearGradient>
<linearGradient id="paint29_linear_1_2185" x1="95.9071" y1="52.846" x2="31.2106" y2="48.2868" gradientUnits="userSpaceOnUse">
<stop stop-color="#6772B5"/>
<stop offset="1" stop-color="#313F95"/>
</linearGradient>
<linearGradient id="paint30_linear_1_2185" x1="94.2791" y1="53.4141" x2="29.0074" y2="48.8143" gradientUnits="userSpaceOnUse">
<stop stop-color="#6772B5"/>
<stop offset="1" stop-color="#313F95"/>
</linearGradient>
<linearGradient id="paint31_linear_1_2185" x1="92.4356" y1="53.9456" x2="26.7179" y2="49.3144" gradientUnits="userSpaceOnUse">
<stop stop-color="#6772B5"/>
<stop offset="1" stop-color="#313F95"/>
</linearGradient>
<linearGradient id="paint32_linear_1_2185" x1="90.4322" y1="54.4514" x2="24.3662" y2="49.7957" gradientUnits="userSpaceOnUse">
<stop stop-color="#6772B5"/>
<stop offset="1" stop-color="#313F95"/>
</linearGradient>
<linearGradient id="paint33_linear_1_2185" x1="88.3152" y1="54.9413" x2="21.9589" y2="50.2651" gradientUnits="userSpaceOnUse">
<stop stop-color="#6772B5"/>
<stop offset="1" stop-color="#313F95"/>
</linearGradient>
<linearGradient id="paint34_linear_1_2185" x1="86.1173" y1="55.4241" x2="19.4987" y2="50.7295" gradientUnits="userSpaceOnUse">
<stop stop-color="#6772B5"/>
<stop offset="1" stop-color="#313F95"/>
</linearGradient>
<linearGradient id="paint35_linear_1_2185" x1="83.8606" y1="55.9084" x2="16.9723" y2="51.1947" gradientUnits="userSpaceOnUse">
<stop stop-color="#6772B5"/>
<stop offset="1" stop-color="#313F95"/>
</linearGradient>
<linearGradient id="paint36_linear_1_2185" x1="81.5553" y1="56.4013" x2="14.356" y2="51.6657" gradientUnits="userSpaceOnUse">
<stop stop-color="#6772B5"/>
<stop offset="1" stop-color="#313F95"/>
</linearGradient>
<linearGradient id="paint37_linear_1_2185" x1="79.1995" y1="56.9095" x2="11.61" y2="52.1464" gradientUnits="userSpaceOnUse">
<stop stop-color="#6772B5"/>
<stop offset="1" stop-color="#313F95"/>
</linearGradient>
<linearGradient id="paint38_linear_1_2185" x1="76.7828" y1="57.4388" x2="8.6927" y2="52.6405" gradientUnits="userSpaceOnUse">
<stop stop-color="#6772B5"/>
<stop offset="1" stop-color="#313F95"/>
</linearGradient>
<linearGradient id="paint39_linear_1_2185" x1="95.2396" y1="53.9421" x2="30.2035" y2="49.3589" gradientUnits="userSpaceOnUse">
<stop stop-color="#6772B5"/>
<stop offset="1" stop-color="#313F95"/>
</linearGradient>
<linearGradient id="paint40_linear_1_2185" x1="93.5499" y1="54.6294" x2="27.9542" y2="50.0068" gradientUnits="userSpaceOnUse">
<stop stop-color="#6772B5"/>
<stop offset="1" stop-color="#313F95"/>
</linearGradient>
<linearGradient id="paint41_linear_1_2185" x1="91.6003" y1="55.2735" x2="25.6448" y2="50.6256" gradientUnits="userSpaceOnUse">
<stop stop-color="#6772B5"/>
<stop offset="1" stop-color="#313F95"/>
</linearGradient>
<linearGradient id="paint42_linear_1_2185" x1="89.4612" y1="55.8857" x2="23.3162" y2="51.2244" gradientUnits="userSpaceOnUse">
<stop stop-color="#6772B5"/>
<stop offset="1" stop-color="#313F95"/>
</linearGradient>
<linearGradient id="paint43_linear_1_2185" x1="87.1975" y1="56.4776" x2="20.9958" y2="51.8123" gradientUnits="userSpaceOnUse">
<stop stop-color="#6772B5"/>
<stop offset="1" stop-color="#313F95"/>
</linearGradient>
<linearGradient id="paint44_linear_1_2185" x1="84.8597" y1="57.0602" x2="18.6988" y2="52.3978" gradientUnits="userSpaceOnUse">
<stop stop-color="#6772B5"/>
<stop offset="1" stop-color="#313F95"/>
</linearGradient>
<linearGradient id="paint45_linear_1_2185" x1="82.4875" y1="57.6431" x2="16.43" y2="52.988" gradientUnits="userSpaceOnUse">
<stop stop-color="#6772B5"/>
<stop offset="1" stop-color="#313F95"/>
</linearGradient>
<linearGradient id="paint46_linear_1_2185" x1="80.108" y1="58.2351" x2="14.183" y2="53.5893" gradientUnits="userSpaceOnUse">
<stop stop-color="#6772B5"/>
<stop offset="1" stop-color="#313F95"/>
</linearGradient>
<linearGradient id="paint47_linear_1_2185" x1="77.7363" y1="58.8443" x2="11.9392" y2="54.2076" gradientUnits="userSpaceOnUse">
<stop stop-color="#6772B5"/>
<stop offset="1" stop-color="#313F95"/>
</linearGradient>
<linearGradient id="paint48_linear_1_2185" x1="75.3801" y1="59.4781" x2="9.666" y2="54.8472" gradientUnits="userSpaceOnUse">
<stop stop-color="#6772B5"/>
<stop offset="1" stop-color="#313F95"/>
</linearGradient>
<linearGradient id="paint49_linear_1_2185" x1="73.0302" y1="60.1434" x2="7.32682" y2="55.5132" gradientUnits="userSpaceOnUse">
<stop stop-color="#6772B5"/>
<stop offset="1" stop-color="#313F95"/>
</linearGradient>
<linearGradient id="paint50_linear_1_2185" x1="95.5685" y1="55.9254" x2="26.5387" y2="51.0608" gradientUnits="userSpaceOnUse">
<stop stop-color="#6772B5"/>
<stop offset="1" stop-color="#313F95"/>
</linearGradient>
<linearGradient id="paint51_linear_1_2185" x1="92.8368" y1="56.5969" x2="24.0582" y2="51.75" gradientUnits="userSpaceOnUse">
<stop stop-color="#6772B5"/>
<stop offset="1" stop-color="#313F95"/>
</linearGradient>
<linearGradient id="paint52_linear_1_2185" x1="89.973" y1="57.2367" x2="21.683" y2="52.4242" gradientUnits="userSpaceOnUse">
<stop stop-color="#6772B5"/>
<stop offset="1" stop-color="#313F95"/>
</linearGradient>
<linearGradient id="paint53_linear_1_2185" x1="71.1617" y1="57.9921" x2="26.1225" y2="54.8181" gradientUnits="userSpaceOnUse">
<stop stop-color="#6772B5"/>
<stop offset="1" stop-color="#313F95"/>
</linearGradient>
<linearGradient id="paint54_linear_1_2185" x1="76.05" y1="60.3802" x2="12.5501" y2="55.9054" gradientUnits="userSpaceOnUse">
<stop stop-color="#6772B5"/>
<stop offset="1" stop-color="#313F95"/>
</linearGradient>
<linearGradient id="paint55_linear_1_2185" x1="73.6589" y1="61.0711" x2="11.3366" y2="56.6792" gradientUnits="userSpaceOnUse">
<stop stop-color="#6772B5"/>
<stop offset="1" stop-color="#313F95"/>
</linearGradient>
<linearGradient id="paint56_linear_1_2185" x1="71.447" y1="61.8035" x2="10.2913" y2="57.4938" gradientUnits="userSpaceOnUse">
<stop stop-color="#6772B5"/>
<stop offset="1" stop-color="#313F95"/>
</linearGradient>
<linearGradient id="paint57_linear_1_2185" x1="69.4126" y1="62.5838" x2="9.38288" y2="58.3534" gradientUnits="userSpaceOnUse">
<stop stop-color="#6772B5"/>
<stop offset="1" stop-color="#313F95"/>
</linearGradient>
<linearGradient id="paint58_linear_1_2185" x1="25.9619" y1="18.0096" x2="60.209" y2="18.0096" gradientUnits="userSpaceOnUse">
<stop stop-color="#F58B21"/>
<stop offset="1" stop-color="#A06B17"/>
</linearGradient>
<linearGradient id="paint59_linear_1_2185" x1="25.4668" y1="17.3209" x2="59.7139" y2="17.3209" gradientUnits="userSpaceOnUse">
<stop stop-color="#F58B21"/>
<stop offset="1" stop-color="#F5B419"/>
</linearGradient>
<linearGradient id="paint60_linear_1_2185" x1="26.0362" y1="23.1317" x2="43.9458" y2="23.1317" gradientUnits="userSpaceOnUse">
<stop stop-color="#F58B21"/>
<stop offset="0.4665" stop-color="white"/>
<stop offset="1" stop-color="#F5B419"/>
</linearGradient>
<linearGradient id="paint61_linear_1_2185" x1="48.1543" y1="17.7751" x2="59.7137" y2="17.7751" gradientUnits="userSpaceOnUse">
<stop stop-color="#F58B21"/>
<stop offset="0.4665" stop-color="white"/>
<stop offset="1" stop-color="#F5B419"/>
</linearGradient>
<linearGradient id="paint62_linear_1_2185" x1="7.89252" y1="34.8457" x2="40.5785" y2="34.8457" gradientUnits="userSpaceOnUse">
<stop stop-color="#6772B5"/>
<stop offset="1" stop-color="#313F95"/>
</linearGradient>
<linearGradient id="paint63_linear_1_2185" x1="7.30079" y1="34.3229" x2="39.9867" y2="34.3229" gradientUnits="userSpaceOnUse">
<stop offset="0.3836" stop-color="#7983BE"/>
<stop offset="1" stop-color="#BCBEDD"/>
</linearGradient>
<linearGradient id="paint64_linear_1_2185" x1="12.1631" y1="34.827" x2="39.9886" y2="34.827" gradientUnits="userSpaceOnUse">
<stop offset="0.0372" stop-color="#7983BE"/>
<stop offset="0.4274" stop-color="white"/>
<stop offset="1" stop-color="#BCBEDD"/>
</linearGradient>
<linearGradient id="paint65_linear_1_2185" x1="7.65531" y1="39.6068" x2="12.4835" y2="39.6068" gradientUnits="userSpaceOnUse">
<stop offset="0.0372" stop-color="#7983BE"/>
<stop offset="0.4274" stop-color="white"/>
<stop offset="1" stop-color="#BCBEDD"/>
</linearGradient>
<linearGradient id="paint66_linear_1_2185" x1="77.68" y1="34.8085" x2="64.9865" y2="24.1295" gradientUnits="userSpaceOnUse">
<stop stop-color="#EFEFF6"/>
<stop offset="1" stop-color="#CECFE6"/>
</linearGradient>
<linearGradient id="paint67_linear_1_2185" x1="67.1089" y1="42.4203" x2="58.0569" y2="34.805" gradientUnits="userSpaceOnUse">
<stop stop-color="#EFEFF6"/>
<stop offset="1" stop-color="#CECFE6"/>
</linearGradient>
<linearGradient id="paint68_linear_1_2185" x1="74.2658" y1="47.5435" x2="61.0888" y2="36.4578" gradientUnits="userSpaceOnUse">
<stop stop-color="#EFEFF6"/>
<stop offset="1" stop-color="#CECFE6"/>
</linearGradient>
<linearGradient id="paint69_linear_1_2185" x1="76.8878" y1="40.9796" x2="63.0128" y2="29.3067" gradientUnits="userSpaceOnUse">
<stop stop-color="#EFEFF6"/>
<stop offset="1" stop-color="#CECFE6"/>
</linearGradient>
<linearGradient id="paint70_linear_1_2185" x1="74.369" y1="22.9005" x2="68.2944" y2="17.79" gradientUnits="userSpaceOnUse">
<stop stop-color="#EFEFF6"/>
<stop offset="1" stop-color="#CECFE6"/>
</linearGradient>
<linearGradient id="paint71_linear_1_2185" x1="73.9899" y1="22.5655" x2="68.4773" y2="17.9278" gradientUnits="userSpaceOnUse">
<stop stop-color="#F58B21"/>
<stop offset="1" stop-color="#F5B419"/>
</linearGradient>
<linearGradient id="paint72_linear_1_2185" x1="72.7345" y1="21.9376" x2="67.0191" y2="22.395" gradientUnits="userSpaceOnUse">
<stop stop-color="#EFEFF6"/>
<stop offset="1" stop-color="#BCBEDD"/>
</linearGradient>
<linearGradient id="paint73_linear_1_2185" x1="71.7735" y1="17.818" x2="69.1191" y2="18.0027" gradientUnits="userSpaceOnUse">
<stop stop-color="#EAA26C"/>
<stop offset="1" stop-color="#F2CE99"/>
</linearGradient>
</defs>
</svg>
