<svg width="29" height="29" viewBox="0 0 29 29" fill="none" xmlns="http://www.w3.org/2000/svg">
<path d="M20.2811 17.8275C20.3311 18.3775 19.9258 18.8639 19.3758 18.9139C18.8258 18.9639 18.3394 18.5585 18.2894 18.0085L20.2811 17.8275ZM18.6016 10.3984L18.6922 9.40251C19.1729 9.44622 19.5538 9.82712 19.5975 10.3079L18.6016 10.3984ZM10.9915 10.7107C10.4415 10.6607 10.0362 10.1743 10.0862 9.62428C10.1362 9.07426 10.6226 8.66892 11.1726 8.71892L10.9915 10.7107ZM11.1056 19.3087C10.715 19.6992 10.0819 19.6992 9.69136 19.3087C9.30083 18.9182 9.30083 18.285 9.69136 17.8945L11.1056 19.3087ZM18.2894 18.0085L17.6058 10.4889L19.5975 10.3079L20.2811 17.8275L18.2894 18.0085ZM18.5111 11.3943L10.9915 10.7107L11.1726 8.71892L18.6922 9.40251L18.5111 11.3943ZM19.3088 11.1055L11.1056 19.3087L9.69136 17.8945L17.8945 9.6913L19.3088 11.1055ZM14.5 2.375C7.80355 2.375 2.375 7.80355 2.375 14.5H0.375C0.375 6.69898 6.69898 0.375 14.5 0.375V2.375ZM2.375 14.5C2.375 21.1965 7.80355 26.625 14.5 26.625V28.625C6.69898 28.625 0.375 22.301 0.375 14.5H2.375ZM14.5 26.625C21.1965 26.625 26.625 21.1965 26.625 14.5H28.625C28.625 22.301 22.301 28.625 14.5 28.625V26.625ZM26.625 14.5C26.625 7.80355 21.1965 2.375 14.5 2.375V0.375C22.301 0.375 28.625 6.69898 28.625 14.5H26.625Z" fill="#6A1B9A"/>
</svg>
