<svg width="64" height="64" viewBox="0 0 64 64" fill="none" xmlns="http://www.w3.org/2000/svg">
<path d="M44.4315 39.6768C44.5065 40.5018 43.8985 41.2314 43.0735 41.3064C42.2485 41.3814 41.5189 40.7734 41.4439 39.9484L44.4315 39.6768ZM41.3752 22.6249L41.511 21.1311C42.2321 21.1967 42.8035 21.768 42.869 22.4891L41.3752 22.6249ZM24.0518 22.5563C23.2267 22.4813 22.6187 21.7516 22.6937 20.9266C22.7687 20.1016 23.4984 19.4936 24.3234 19.5686L24.0518 22.5563ZM23.6857 42.4357C23.0999 43.0215 22.1502 43.0215 21.5644 42.4357C20.9786 41.8499 20.9786 40.9002 21.5644 40.3144L23.6857 42.4357ZM41.4439 39.9484L39.8814 22.7607L42.869 22.4891L44.4315 39.6768L41.4439 39.9484ZM41.2394 24.1188L24.0518 22.5563L24.3234 19.5686L41.511 21.1311L41.2394 24.1188ZM42.4359 23.6856L23.6857 42.4357L21.5644 40.3144L40.3145 21.5643L42.4359 23.6856ZM32 3.5C16.2599 3.5 3.5 16.2599 3.5 32L0.499996 32C0.499997 14.603 14.603 0.499999 32 0.5L32 3.5ZM3.5 32C3.5 47.7401 16.2599 60.5 32 60.5L32 63.5C14.603 63.5 0.499996 49.397 0.499996 32L3.5 32ZM32 60.5C47.7401 60.5 60.5 47.7401 60.5 32L63.5 32C63.5 49.397 49.397 63.5 32 63.5L32 60.5ZM60.5 32C60.5 16.2599 47.7401 3.5 32 3.5L32 0.5C49.397 0.500001 63.5 14.603 63.5 32L60.5 32Z" fill="#F57C00"/>
</svg>
