<svg width="14" height="16" viewBox="0 0 14 16" fill="none" xmlns="http://www.w3.org/2000/svg">
<g clip-path="url(#clip0_190_265)">
<path d="M4.75 2H9.25V0.75C9.29167 0.291667 9.54167 0.041667 10 0C10.4583 0.041667 10.7083 0.291667 10.75 0.75V2H12C12.5625 2.02083 13.0312 2.21875 13.4062 2.59375C13.7812 2.96875 13.9792 3.4375 14 4V14C13.9792 14.5625 13.7812 15.0312 13.4062 15.4062C13.0312 15.7812 12.5625 15.9792 12 16H2C1.4375 15.9792 0.96875 15.7812 0.59375 15.4062C0.21875 15.0312 0.0208333 14.5625 0 14V4C0.0208333 3.4375 0.21875 2.96875 0.59375 2.59375C0.96875 2.21875 1.4375 2.02083 2 2H3.25V0.75C3.29167 0.291667 3.54167 0.041667 4 0C4.45833 0.041667 4.70833 0.291667 4.75 0.75V2ZM1.5 14C1.52083 14.3125 1.6875 14.4792 2 14.5H12C12.3125 14.4792 12.4792 14.3125 12.5 14V6H1.5V14Z" fill="#F57C00"/>
</g>
<defs>
<clipPath id="clip0_190_265">
<rect width="14" height="16" fill="white" transform="matrix(1 0 0 -1 0 16)"/>
</clipPath>
</defs>
</svg>
