<svg width="29" height="27" viewBox="0 0 29 27" fill="none" xmlns="http://www.w3.org/2000/svg">
<path d="M27.4173 25.745L24.834 23.3136M13.8548 24.5293C15.4662 24.5293 17.0619 24.2306 18.5507 23.6502C20.0394 23.0698 21.3922 22.2191 22.5316 21.1467C23.6711 20.0743 24.5749 18.8011 25.1916 17.3999C25.8083 15.9987 26.1257 14.4969 26.1257 12.9803C26.1257 11.4637 25.8083 9.96187 25.1916 8.56067C24.5749 7.15948 23.6711 5.88633 22.5316 4.8139C21.3922 3.74148 20.0394 2.89078 18.5507 2.31039C17.0619 1.73 15.4662 1.43127 13.8548 1.43127C10.6004 1.43127 7.47926 2.64804 5.17803 4.8139C2.8768 6.97976 1.58398 9.9173 1.58398 12.9803C1.58398 16.0433 2.8768 18.9808 5.17803 21.1467C7.47926 23.3125 10.6004 24.5293 13.8548 24.5293V24.5293Z" stroke="black" stroke-opacity="0.57" stroke-width="1.5" stroke-linecap="round" stroke-linejoin="round"/>
</svg>
