<svg width="39" height="39" viewBox="0 0 39 39" fill="none" xmlns="http://www.w3.org/2000/svg">
<path d="M37.9812 18.04L32.5412 16.44C30.0878 15.8 27.9278 14.5467 26.0612 12.68C24.1945 10.8134 22.9412 8.65337 22.3012 6.20004L20.7012 0.76004C20.4878 0.333374 20.1678 0.120041 19.7412 0.120041C19.3145 0.120041 18.9945 0.333374 18.7812 0.76004L17.1812 6.20004C16.5412 8.65337 15.2878 10.8134 13.4212 12.68C11.5545 14.5467 9.3945 15.8 6.94117 16.44L1.50117 18.04C0.967839 18.1467 0.701172 18.4667 0.701172 19C0.701172 19.5334 0.967839 19.8534 1.50117 19.96L6.94117 21.56C9.3945 22.2 11.5545 23.4534 13.4212 25.32C15.2878 27.1867 16.5412 29.3467 17.1812 31.8L18.7812 37.24C18.8878 37.7734 19.2078 38.04 19.7412 38.04C20.2745 38.04 20.5945 37.7734 20.7012 37.24L22.3012 31.8C22.9412 29.3467 24.1945 27.1867 26.0612 25.32C27.9278 23.4534 30.0878 22.2 32.5412 21.56L37.9812 19.96C38.5145 19.8534 38.7812 19.5334 38.7812 19C38.7812 18.4667 38.5145 18.1467 37.9812 18.04Z" fill="white"/>
</svg>
