<svg width="15" height="16" viewBox="0 0 15 16" fill="none" xmlns="http://www.w3.org/2000/svg">
<g clip-path="url(#clip0_190_269)">
<path d="M8.63965 9.5H5.63965C4.07715 9.54167 2.78548 10.0833 1.76465 11.125C0.722982 12.1458 0.181315 13.4375 0.139648 15C0.139648 15.2917 0.233398 15.5312 0.420898 15.7188C0.608398 15.9062 0.847982 16 1.13965 16H13.1396C13.4313 16 13.6709 15.9062 13.8584 15.7188C14.0459 15.5312 14.1396 15.2917 14.1396 15C14.098 13.4375 13.5563 12.1458 12.5146 11.125C11.4938 10.0833 10.2021 9.54167 8.63965 9.5ZM1.6709 14.5C1.81673 13.5 2.25423 12.6667 2.9834 12C3.71257 11.3542 4.59798 11.0208 5.63965 11H8.63965C9.68132 11.0208 10.5667 11.3542 11.2959 12C12.0251 12.6667 12.4626 13.5 12.6084 14.5H1.6709ZM7.13965 8C8.26465 7.97917 9.21257 7.59375 9.9834 6.84375C10.7334 6.07292 11.1188 5.125 11.1396 4C11.1188 2.875 10.7334 1.92708 9.9834 1.15625C9.21257 0.40625 8.26465 0.020833 7.13965 0C6.01465 0.020833 5.06673 0.40625 4.2959 1.15625C3.5459 1.92708 3.16048 2.875 3.13965 4C3.16048 5.125 3.5459 6.07292 4.2959 6.84375C5.06673 7.59375 6.01465 7.97917 7.13965 8ZM7.13965 1.5C7.84798 1.52083 8.44173 1.76042 8.9209 2.21875C9.37923 2.69792 9.61882 3.29167 9.63965 4C9.61882 4.70833 9.37923 5.30208 8.9209 5.78125C8.44173 6.23958 7.84798 6.47917 7.13965 6.5C6.43131 6.47917 5.83756 6.23958 5.3584 5.78125C4.90006 5.30208 4.66048 4.70833 4.63965 4C4.66048 3.29167 4.90006 2.69792 5.3584 2.21875C5.83756 1.76042 6.43131 1.52083 7.13965 1.5Z" fill="#F57C00"/>
</g>
<defs>
<clipPath id="clip0_190_269">
<rect width="14" height="16" fill="white" transform="matrix(1 0 0 -1 0.139648 16)"/>
</clipPath>
</defs>
</svg>
