<svg width="32" height="32" viewBox="0 0 32 32" fill="none" xmlns="http://www.w3.org/2000/svg">
<path d="M16 0.0625C12.8479 0.0625 9.76651 0.997218 7.14561 2.74845C4.5247 4.49969 2.48195 6.98879 1.27568 9.90098C0.0694056 12.8132 -0.24621 16.0177 0.368742 19.1093C0.983694 22.2008 2.50159 25.0406 4.73049 27.2695C6.95939 29.4984 9.79918 31.0163 12.8908 31.6313C15.9823 32.2462 19.1868 31.9306 22.099 30.7243C25.0112 29.5181 27.5003 27.4753 29.2516 24.8544C31.0028 22.2335 31.9375 19.1521 31.9375 16C31.9375 11.7731 30.2584 7.71935 27.2695 4.73049C24.2807 1.74162 20.2269 0.0625 16 0.0625ZM16.6832 9.85238C18.1319 9.85406 19.5209 10.4303 20.5453 11.4547C21.5697 12.4792 22.1459 13.8681 22.1476 15.3168H20.7813C20.7801 14.2303 20.348 13.1886 19.5797 12.4203C18.8114 11.652 17.7697 11.2199 16.6832 11.2188V9.85238ZM21.1085 25.5625C21.0671 25.5625 16.9648 25.4924 11.6894 20.3106C6.50763 15.0374 6.43751 10.9329 6.43751 10.8915C6.43751 10.3804 9.62501 6.4375 10.3294 6.4375C10.5738 6.4375 10.764 6.60325 10.9723 6.85187C11.4738 7.449 13.6912 10.9489 13.5892 11.5322C13.5403 11.8063 13.3076 12.0146 12.6404 12.5745C12.3116 12.833 12.0039 13.1172 11.7203 13.4245C11.8561 13.9868 12.058 14.531 12.3216 15.0459C13.304 17.0656 14.9361 18.697 16.9563 19.6784C17.4711 19.942 18.0154 20.1439 18.5776 20.2798C18.8849 19.9961 19.1692 19.6884 19.4276 19.3596C19.9876 18.6924 20.1958 18.4597 20.4699 18.4108C21.0533 18.3046 24.5531 20.5263 25.1503 21.0278C25.3989 21.2402 25.5646 21.4262 25.5646 21.6706C25.5625 22.375 21.6196 25.5625 21.1085 25.5625ZM24.1961 15.3168C24.1939 13.3249 23.4016 11.4153 21.9932 10.0068C20.5847 8.59839 18.6751 7.80613 16.6832 7.80388V6.4375C19.0373 6.44031 21.2941 7.37671 22.9587 9.0413C24.6233 10.7059 25.5597 12.9627 25.5625 15.3168H24.1961Z" fill="#F57C00"/>
</svg>
