 <svg
              width="106"
              height="106"
              viewBox="0 0 106 106"
              fill="none"
              xmlns="http://www.w3.org/2000/svg"
            >
              <path
                d="M95.54 7.71167H93.6828V5.85403C93.6828 5.36787 93.2884 4.97363 92.8021 4.97363C92.3167 4.97363 91.9215 5.36787 91.9215 5.85403V7.71167H90.0642C89.578 7.71167 89.1836 8.10591 89.1836 8.59206C89.1836 9.07822 89.578 9.47243 90.0642 9.47243H91.9215V11.3301C91.9215 11.8162 92.3159 12.2104 92.8021 12.2104C93.2884 12.2104 93.6828 11.8162 93.6828 11.3301V9.47243H95.54C96.0255 9.47243 96.4207 9.07822 96.4207 8.59206C96.4207 8.10591 96.0255 7.71167 95.54 7.71167Z"
                fill="#F57C00"
              />
              <path
                d="M10.8371 97.2863C10.1079 97.2863 9.5166 97.8782 9.5166 98.6072V101.671C9.5166 102.4 10.1079 102.992 10.8371 102.992C11.5663 102.992 12.1576 102.4 12.1576 101.671V98.6072C12.1576 97.8782 11.5663 97.2863 10.8371 97.2863Z"
                fill="#0189FF"
              />
              <path
                d="M7.38323 94.2145H4.3205C3.59127 94.2145 3 94.8056 3 95.5346C3 96.2645 3.59127 96.8556 4.3205 96.8556H7.38323C8.11247 96.8556 8.70373 96.2645 8.70373 95.5346C8.70373 94.8056 8.11115 94.2145 7.38323 94.2145Z"
                fill="#0189FF"
              />
              <path
                d="M10.8371 87.8685C10.1079 87.8685 9.5166 88.4597 9.5166 89.1887V92.25C9.5166 92.9798 10.1079 93.5709 10.8371 93.5709C11.5663 93.5709 12.1576 92.9798 12.1576 92.25V89.1887C12.1576 88.4597 11.5663 87.8685 10.8371 87.8685Z"
                fill="#0189FF"
              />
              <path
                d="M17.3569 94.0032H14.2941C13.5649 94.0032 12.9736 94.5943 12.9736 95.3233C12.9736 96.0524 13.5649 96.6443 14.2941 96.6443H17.3569C18.0861 96.6443 18.6773 96.0524 18.6773 95.3233C18.6773 94.5943 18.0861 94.0032 17.3569 94.0032Z"
                fill="#0189FF"
              />
              <path
                d="M53 103C80.6142 103 103 80.6142 103 53C103 25.3858 80.6142 3 53 3C25.3858 3 3 25.3858 3 53C3 80.6142 25.3858 103 53 103Z"
                fill="url(#paint0_linear_190_75)"
              />
              <path
                d="M53 106C82.2711 106 106 82.2711 106 53C106 23.7289 82.2711 0 53 0C23.7289 0 0 23.7289 0 53C0 82.2711 23.7289 106 53 106Z"
                fill="url(#paint1_linear_190_75)"
                fill-opacity="0.2"
              />
              <g clip-path="url(#clip0_190_75)">
                <path
                  d="M75.148 58.4141C74.5249 58.4155 73.9195 58.6211 73.4243 58.9992C72.9291 59.3773 72.5714 59.9072 72.4058 60.5078H69.7886L65.8199 55.9531C65.7477 55.8731 65.6598 55.809 65.5617 55.7646C65.4635 55.7202 65.3573 55.6966 65.2496 55.6953H54.6792V54.2344V50.3281H65.2496C65.3573 50.3268 65.4635 50.3032 65.5617 50.2588C65.6598 50.2144 65.7477 50.1503 65.8199 50.0703L69.7886 45.5156H72.4058C72.5892 46.183 73.0085 46.7612 73.5858 47.1429C74.1632 47.5247 74.8594 47.684 75.5453 47.5915C76.2312 47.499 76.8602 47.1608 77.3158 46.6397C77.7713 46.1186 78.0223 45.4499 78.0223 44.7578C78.0223 44.0657 77.7713 43.397 77.3158 42.8759C76.8602 42.3548 76.2312 42.0167 75.5453 41.9241C74.8594 41.8316 74.1632 41.9909 73.5858 42.3727C73.0085 42.7544 72.5892 43.3326 72.4058 44H69.4449C69.3372 44.0013 69.2309 44.0249 69.1328 44.0693C69.0346 44.1137 68.9467 44.1778 68.8745 44.2578L64.9058 48.8125H54.6792V45.9687H64.5855C64.6943 45.9695 64.8019 45.946 64.9005 45.9001C64.9992 45.8542 65.0864 45.7869 65.1558 45.7031L67.9214 42.4531C68.0398 42.3167 68.1038 42.1415 68.1011 41.9609V38.9375C68.7621 38.7542 69.3342 38.3376 69.7115 37.7648C70.0889 37.192 70.2458 36.5019 70.1533 35.8223C70.0609 35.1426 69.7252 34.5196 69.2085 34.0684C68.6919 33.6173 68.0292 33.3687 67.3433 33.3687C66.6574 33.3687 65.9948 33.6173 65.4781 34.0684C64.9614 34.5196 64.6258 35.1426 64.5333 35.8223C64.4408 36.5019 64.5977 37.192 64.9751 37.7648C65.3524 38.3376 65.9245 38.7542 66.5855 38.9375V41.7031L64.2417 44.4531H54.6792V40.8281H58.1402C58.2654 40.8288 58.389 40.7993 58.5005 40.7422C58.612 40.6851 58.7081 40.602 58.7808 40.5L59.7496 38.9375C60.0031 39.0143 60.2659 39.0563 60.5308 39.0625C61.096 39.0656 61.6494 38.9011 62.1211 38.5898C62.5929 38.2785 62.9618 37.8344 63.1813 37.3136C63.4008 36.7927 63.461 36.2185 63.3543 35.6635C63.2476 35.1085 62.9789 34.5975 62.582 34.1951C62.185 33.7927 61.6778 33.517 61.1243 33.4028C60.5707 33.2886 59.9958 33.3409 59.472 33.5533C58.9482 33.7656 58.4991 34.1285 58.1814 34.5959C57.8637 35.0634 57.6917 35.6145 57.6871 36.1797C57.6903 36.8993 57.97 37.5902 58.4683 38.1094L57.6871 39.3125H54.6792V33.5547C54.6792 33.5156 54.6792 33.4922 54.6792 33.4609C54.6868 33.4065 54.6868 33.3513 54.6792 33.2969C54.2279 32.0012 53.3827 30.8791 52.262 30.0876C51.1414 29.2961 49.8012 28.8749 48.4292 28.8828C47.1593 28.8921 45.9187 29.265 44.854 29.9572C43.7893 30.6495 42.9452 31.6322 42.4214 32.7891C41.436 32.4817 40.3921 32.4103 39.374 32.5806C38.3559 32.7509 37.3921 33.1581 36.5603 33.7694C35.7286 34.3806 35.0521 35.1789 34.5856 36.0997C34.1191 37.0205 33.8755 38.0381 33.8746 39.0703C33.8708 39.6756 33.955 40.2783 34.1246 40.8594C33.1953 41.1572 32.3435 41.657 31.6301 42.3227C30.9167 42.9884 30.3593 43.8037 29.9979 44.7101C29.6366 45.6165 29.4801 46.5916 29.5398 47.5656C29.5995 48.5396 29.8739 49.4883 30.3433 50.3437C29.5113 50.9905 28.864 51.8447 28.4664 52.8206C28.0688 53.7965 27.935 54.8599 28.0782 55.9039C28.2215 56.948 28.6369 57.9359 29.2826 58.7687C29.9284 59.6015 30.7819 60.2497 31.7574 60.6484C31.1602 61.5935 30.8128 62.6747 30.7477 63.7907C30.6826 64.9068 30.9021 66.0211 31.3854 67.0291C31.8687 68.0371 32.6001 68.9059 33.511 69.554C34.4219 70.2021 35.4825 70.6082 36.5933 70.7344C36.6326 71.7421 36.9249 72.7237 37.4433 73.5887C37.9617 74.4537 38.6895 75.1743 39.5596 75.6841C40.4297 76.1939 41.4142 76.4764 42.4222 76.5057C43.4303 76.535 44.4294 76.31 45.3277 75.8516C46.3829 76.6754 47.6842 77.1211 49.023 77.1172C50.2394 77.1114 51.4259 76.7394 52.4278 76.0496C53.4298 75.3599 54.2007 74.3843 54.6402 73.25C54.6471 73.1903 54.6471 73.13 54.6402 73.0703C54.6439 73.0392 54.6439 73.0077 54.6402 72.9766V66.7266H57.6871L58.4683 67.9297C57.97 68.4489 57.6903 69.1397 57.6871 69.8594C57.6855 70.4252 57.8519 70.9788 58.1651 71.4501C58.4784 71.9213 58.9244 72.289 59.4468 72.5066C59.9691 72.7243 60.5443 72.782 61.0995 72.6726C61.6546 72.5631 62.1649 72.2914 62.5655 71.8918C62.9662 71.4922 63.2393 70.9828 63.3503 70.4279C63.4612 69.873 63.4051 69.2977 63.1889 68.7748C62.9727 68.2518 62.6062 67.8048 62.1358 67.4902C61.6654 67.1757 61.1123 67.0078 60.5464 67.0078C60.2816 67.014 60.0187 67.056 59.7652 67.1328L58.7808 65.5C58.7117 65.3922 58.6171 65.303 58.5054 65.2403C58.3936 65.1776 58.2682 65.1434 58.1402 65.1406H54.6792V61.5937H64.2339L66.5777 64.3437V67.0625C65.906 67.246 65.3238 67.6671 64.9391 68.2474C64.5544 68.8278 64.3934 69.528 64.486 70.2181C64.5786 70.9082 64.9185 71.5413 65.4425 71.9997C65.9666 72.4581 66.6392 72.7108 67.3355 72.7108C68.0318 72.7108 68.7044 72.4581 69.2284 71.9997C69.7525 71.5413 70.0924 70.9082 70.185 70.2181C70.2775 69.528 70.1166 68.8278 69.7319 68.2474C69.3472 67.6671 68.765 67.246 68.0933 67.0625V64.0156C68.096 63.835 68.032 63.6598 67.9136 63.5234L65.148 60.2891C65.0785 60.2053 64.9913 60.138 64.8927 60.0921C64.7941 60.0461 64.6865 60.0227 64.5777 60.0234H54.6792V57.2109H64.9058L68.8745 61.7656C68.9467 61.8456 69.0346 61.9098 69.1328 61.9541C69.2309 61.9985 69.3372 62.0221 69.4449 62.0234H72.4058C72.5471 62.536 72.8289 62.9988 73.2193 63.3597C73.6097 63.7205 74.0932 63.9651 74.6153 64.0657C75.1373 64.1663 75.6771 64.1189 76.1737 63.9289C76.6702 63.739 77.1038 63.414 77.4254 62.9907C77.747 62.5673 77.9439 62.0625 77.9938 61.5332C78.0437 61.0039 77.9446 60.4712 77.7078 59.9952C77.4709 59.5192 77.1057 59.1189 76.6534 58.8396C76.2011 58.5602 75.6796 58.4128 75.148 58.4141ZM75.148 43.3906C75.4138 43.3906 75.6736 43.4694 75.8945 43.6171C76.1155 43.7647 76.2877 43.9746 76.3895 44.2201C76.4912 44.4657 76.5178 44.7359 76.4659 44.9965C76.4141 45.2572 76.2861 45.4966 76.0982 45.6845C75.9102 45.8725 75.6708 46.0004 75.4101 46.0523C75.1495 46.1041 74.8793 46.0775 74.6338 45.9758C74.3882 45.8741 74.1784 45.7019 74.0307 45.4809C73.883 45.2599 73.8042 45.0001 73.8042 44.7344C73.8042 44.378 73.9458 44.0362 74.1978 43.7842C74.4498 43.5322 74.7916 43.3906 75.148 43.3906ZM66.0074 36.1797C66.0058 35.9132 66.0835 35.6524 66.2306 35.4302C66.3776 35.208 66.5874 35.0346 66.8333 34.9319C67.0791 34.8292 67.3499 34.802 67.6113 34.8536C67.8727 34.9052 68.1129 35.0333 68.3013 35.2217C68.4897 35.4101 68.6178 35.6503 68.6694 35.9116C68.721 36.173 68.6937 36.4439 68.5911 36.6897C68.4884 36.9356 68.3149 37.1454 68.0928 37.2924C67.8706 37.4395 67.6097 37.5172 67.3433 37.5156C66.9896 37.5136 66.651 37.3722 66.4009 37.1221C66.1508 36.872 66.0094 36.5334 66.0074 36.1797ZM60.5386 34.8359C60.8044 34.8359 61.0642 34.9147 61.2852 35.0624C61.5061 35.21 61.6784 35.4199 61.7801 35.6654C61.8818 35.911 61.9084 36.1812 61.8565 36.4418C61.8047 36.7025 61.6767 36.9419 61.4888 37.1299C61.3009 37.3178 61.0614 37.4458 60.8008 37.4976C60.5401 37.5495 60.2699 37.5228 60.0244 37.4211C59.7788 37.3194 59.569 37.1472 59.4213 36.9262C59.2737 36.7052 59.1949 36.4454 59.1949 36.1797C59.1949 36.0026 59.2299 35.8272 59.2979 35.6636C59.3659 35.5001 59.4656 35.3516 59.5912 35.2267C59.7168 35.1018 59.8659 35.003 60.0298 34.936C60.1937 34.8689 60.3693 34.8349 60.5464 34.8359H60.5386ZM53.1558 40.0703V43.625C52.4871 43.2933 51.7428 43.144 50.998 43.192C50.2531 43.24 49.5342 43.4837 48.9136 43.8984C48.7513 44.0149 48.6398 44.1892 48.6021 44.3853C48.5643 44.5815 48.6031 44.7847 48.7105 44.9531C48.8268 45.1133 48.9996 45.2234 49.1939 45.2611C49.3882 45.2988 49.5896 45.2613 49.7574 45.1562C50.2717 44.8076 50.8904 44.6468 51.5093 44.7009C52.1283 44.7549 52.7097 45.0206 53.1558 45.4531V49.5312V52.6562C52.488 52.3202 51.7423 52.169 50.9964 52.2185C50.2504 52.2679 49.5312 52.5162 48.9136 52.9375C48.7955 53.0671 48.7244 53.2327 48.7118 53.4076C48.6992 53.5825 48.7458 53.7565 48.8441 53.9017C48.9424 54.0469 49.0867 54.1548 49.2538 54.2081C49.4208 54.2613 49.601 54.2568 49.7652 54.1953C50.276 53.8438 50.8927 53.6798 51.5107 53.7311C52.1286 53.7823 52.7098 54.0457 53.1558 54.4766V56.3984V60.8125V65.9297V72.7969C52.911 73.4021 52.537 73.9467 52.0599 74.3924C51.5828 74.8381 51.0141 75.1743 50.3936 75.3774C49.7731 75.5805 49.1157 75.6457 48.4674 75.5683C47.8191 75.491 47.1955 75.273 46.6402 74.9297C47.3345 74.3105 47.8055 73.48 47.9806 72.5664C48.1557 71.6528 48.0251 70.7069 47.6089 69.875C47.5852 69.7576 47.5347 69.6472 47.4614 69.5523C47.3882 69.4575 47.2941 69.3808 47.1864 69.3282C47.0788 69.2756 46.9605 69.2484 46.8407 69.2488C46.7209 69.2492 46.6027 69.2771 46.4954 69.3304C46.3882 69.3838 46.2946 69.4611 46.2219 69.5564C46.1493 69.6516 46.0995 69.7624 46.0765 69.88C46.0535 69.9975 46.0578 70.1189 46.0892 70.2345C46.1206 70.3501 46.1781 70.457 46.2574 70.5469C46.4173 70.8779 46.51 71.2374 46.5302 71.6045C46.5503 71.9716 46.4974 72.339 46.3746 72.6856C46.2519 73.0321 46.0616 73.3509 45.8148 73.6235C45.5681 73.896 45.2697 74.1169 44.9371 74.2734C44.8775 74.3114 44.8225 74.3559 44.773 74.4062C44.0996 74.789 43.3385 74.9905 42.5639 74.991C41.7894 74.9915 41.028 74.7911 40.3541 74.4093C39.6802 74.0275 39.1169 73.4773 38.7193 72.8127C38.3216 72.148 38.1033 71.3915 38.0855 70.6172C39.4136 70.2344 41.9214 69.2734 42.2886 67.3828C42.3213 67.1856 42.2772 66.9833 42.1653 66.8176C42.0534 66.6519 41.8822 66.5355 41.6871 66.4922C41.4965 66.4625 41.3018 66.5043 41.1402 66.6096C40.9787 66.7149 40.8618 66.8762 40.8121 67.0625C40.5855 68.1875 38.2261 69.0234 37.2886 69.2266C36.3128 69.2131 35.3615 68.9188 34.5486 68.3789C33.7357 67.8389 33.0956 67.0761 32.7049 66.1818C32.3143 65.2876 32.1895 64.2996 32.3457 63.3363C32.5019 62.373 32.9323 61.4751 33.5855 60.75C33.6806 60.6465 33.746 60.5194 33.7748 60.3819C33.8037 60.2444 33.795 60.1017 33.7496 59.9687C33.7041 59.8429 33.627 59.7308 33.5258 59.6432C33.4246 59.5557 33.3026 59.4956 33.1714 59.4687C32.2794 59.2938 31.4615 58.8523 30.8257 58.2027C30.1899 57.553 29.7661 56.7258 29.6103 55.8302C29.4546 54.9347 29.5742 54.0129 29.9533 53.1868C30.3325 52.3606 30.9534 51.669 31.7339 51.2031C32.0385 50.9984 32.3806 50.8561 32.7405 50.7845C33.1004 50.7129 33.471 50.7135 33.8307 50.7861C34.1904 50.8588 34.5321 51.0021 34.836 51.2078C35.1399 51.4135 35.4 51.6774 35.6011 51.9844C35.6722 52.0843 35.7659 52.166 35.8744 52.223C35.983 52.28 36.1035 52.3107 36.2261 52.3125C36.3793 52.3113 36.5287 52.2651 36.6558 52.1797C36.8168 52.062 36.9267 51.8872 36.9631 51.6911C36.9994 51.4951 36.9593 51.2925 36.8511 51.125C36.2946 50.2878 35.4617 49.6728 34.4978 49.3872C33.534 49.1016 32.5004 49.1637 31.5777 49.5625C31.2184 48.8926 31.0149 48.1504 30.9822 47.391C30.9495 46.6316 31.0885 45.8746 31.3888 45.1764C31.6891 44.4782 32.1431 43.8566 32.7168 43.3581C33.2906 42.8595 33.9694 42.4968 34.7027 42.2969C35.0003 42.7875 35.4186 43.1938 35.9178 43.4769C36.417 43.76 36.9804 43.9105 37.5542 43.9141C37.9461 43.9158 38.3352 43.847 38.7027 43.7109C38.8214 43.6997 38.9361 43.6614 39.0378 43.599C39.1395 43.5367 39.2255 43.4518 39.2893 43.351C39.3531 43.2502 39.393 43.1361 39.4059 43.0175C39.4188 42.8989 39.4043 42.779 39.3637 42.6668C39.323 42.5546 39.2572 42.4533 39.1713 42.3705C39.0853 42.2877 38.9816 42.2258 38.868 42.1893C38.7544 42.1528 38.634 42.1428 38.516 42.1601C38.3979 42.1774 38.2854 42.2215 38.1871 42.2891C37.7269 42.447 37.2231 42.4176 36.7845 42.2071C36.3459 41.9965 36.0078 41.6219 35.8433 41.1641C35.8462 41.1407 35.8462 41.1171 35.8433 41.0937C35.4382 40.1541 35.3269 39.1138 35.524 38.1097C35.7212 37.1056 36.2175 36.1846 36.9478 35.4679C37.6781 34.7511 38.6082 34.2721 39.6158 34.0938C40.6234 33.9154 41.6614 34.0461 42.5933 34.4687H42.6714H42.7496C44.9136 34.8906 45.5542 36.875 45.2183 38.6484C45.1877 38.8445 45.2329 39.0448 45.3446 39.2087C45.4563 39.3727 45.6262 39.488 45.8199 39.5312H45.9605C46.1422 39.5353 46.3196 39.4759 46.4622 39.3632C46.6048 39.2506 46.7036 39.0917 46.7417 38.9141C47.2339 36.2734 46.1011 34.0547 43.9449 33.2187C44.3632 32.3658 45.011 31.6464 45.8156 31.1413C46.6201 30.6362 47.5496 30.3654 48.4996 30.3594C49.5324 30.3576 50.5409 30.6728 51.3889 31.2624C52.2369 31.852 52.8836 32.6875 53.2417 33.6562L53.1558 40.0703ZM60.5386 68.4844C60.8047 68.4844 61.0648 68.5634 61.286 68.7114C61.5071 68.8594 61.6793 69.0697 61.7808 69.3157C61.8823 69.5617 61.9084 69.8323 61.8559 70.0932C61.8035 70.354 61.6747 70.5934 61.486 70.7811C61.2973 70.9687 61.0571 71.096 60.7959 71.147C60.5348 71.198 60.2643 71.1702 60.0189 71.0673C59.7735 70.9644 59.5642 70.791 59.4175 70.569C59.2708 70.347 59.1933 70.0864 59.1949 69.8203C59.1959 69.6438 59.2317 69.4693 59.3001 69.3067C59.3686 69.144 59.4685 68.9965 59.594 68.8724C59.7195 68.7484 59.8682 68.6502 60.0316 68.5837C60.195 68.5171 60.37 68.4833 60.5464 68.4844H60.5386ZM68.6792 69.8203C68.6808 70.0864 68.6033 70.347 68.4566 70.569C68.3099 70.791 68.1006 70.9644 67.8552 71.0673C67.6098 71.1702 67.3393 71.198 67.0782 71.147C66.817 71.096 66.5768 70.9687 66.3881 70.7811C66.1994 70.5934 66.0706 70.354 66.0182 70.0932C65.9657 69.8323 65.9918 69.5617 66.0933 69.3157C66.1948 69.0697 66.367 68.8594 66.5881 68.7114C66.8093 68.5634 67.0694 68.4844 67.3355 68.4844C67.512 68.4833 67.6869 68.5171 67.8503 68.5837C68.0137 68.6502 68.1625 68.7484 68.288 68.8724C68.4135 68.9965 68.5133 69.144 68.5818 69.3067C68.6503 69.4693 68.686 69.6438 68.6871 69.8203H68.6792ZM75.1402 62.6094C74.8741 62.6109 74.6135 62.5334 74.3915 62.3867C74.1695 62.24 73.9961 62.0307 73.8932 61.7853C73.7903 61.5399 73.7625 61.2695 73.8135 61.0083C73.8645 60.7471 73.9918 60.5069 74.1794 60.3182C74.367 60.1295 74.6065 60.0008 74.8673 59.9483C75.1282 59.8958 75.3988 59.922 75.6448 60.0234C75.8908 60.1249 76.1011 60.2971 76.2491 60.5183C76.3971 60.7394 76.4761 60.9995 76.4761 61.2656C76.4761 61.6193 76.3367 61.9588 76.0881 62.2103C75.8394 62.4619 75.5017 62.6053 75.148 62.6094H75.1402Z"
                  fill="white"
                />
              </g>
              <defs>
                <linearGradient
                  id="paint0_linear_190_75"
                  x1="7.42332"
                  y1="-37.3072"
                  x2="119.842"
                  y2="-26.3523"
                  gradientUnits="userSpaceOnUse"
                >
                  <stop stop-color="rgba(150, 38, 142, 0.8)" offset="0.0045" />
                  <stop stop-color="#6A1B9A" offset="0.5216" />
                </linearGradient>
                <linearGradient
                  id="paint1_linear_190_75"
                  x1="4.68872"
                  y1="-42.7256"
                  x2="123.853"
                  y2="-31.1135"
                  gradientUnits="userSpaceOnUse"
                >
                  <stop
                    stop-color="rgba(150, 38, 142, 0.8)"
                    offset="0.0045"
                    stop-opacity="0.8"
                  />
                  <stop stop-color="#6A1B9A" offset="0.5216" />
                </linearGradient>
                <clipPath id="clip0_190_75">
                  <rect
                    width="50"
                    height="50"
                    fill="white"
                    transform="translate(28 28)"
                  />
                </clipPath>
              </defs>
            </svg>