<svg
              width="106"
              height="106"
              viewBox="0 0 106 106"
              fill="none"
              xmlns="http://www.w3.org/2000/svg"
            >
              <path
                d="M95.54 7.71167H93.6828V5.85403C93.6828 5.36787 93.2884 4.97363 92.8021 4.97363C92.3167 4.97363 91.9215 5.36787 91.9215 5.85403V7.71167H90.0642C89.578 7.71167 89.1836 8.10591 89.1836 8.59206C89.1836 9.07822 89.578 9.47243 90.0642 9.47243H91.9215V11.3301C91.9215 11.8162 92.3159 12.2104 92.8021 12.2104C93.2884 12.2104 93.6828 11.8162 93.6828 11.3301V9.47243H95.54C96.0255 9.47243 96.4207 9.07822 96.4207 8.59206C96.4207 8.10591 96.0255 7.71167 95.54 7.71167Z"
                fill="#F57C00"
              />
              <path
                d="M10.8371 97.2863C10.1079 97.2863 9.5166 97.8782 9.5166 98.6072V101.671C9.5166 102.4 10.1079 102.992 10.8371 102.992C11.5663 102.992 12.1576 102.4 12.1576 101.671V98.6072C12.1576 97.8782 11.5663 97.2863 10.8371 97.2863Z"
                fill="#F57C00"
              />
              <path
                d="M7.38323 94.2145H4.3205C3.59127 94.2145 3 94.8056 3 95.5346C3 96.2645 3.59127 96.8556 4.3205 96.8556H7.38323C8.11247 96.8556 8.70373 96.2645 8.70373 95.5346C8.70373 94.8056 8.11115 94.2145 7.38323 94.2145Z"
                fill="#F57C00"
              />
              <path
                d="M10.8371 87.8685C10.1079 87.8685 9.5166 88.4597 9.5166 89.1887V92.25C9.5166 92.9798 10.1079 93.5709 10.8371 93.5709C11.5663 93.5709 12.1576 92.9798 12.1576 92.25V89.1887C12.1576 88.4597 11.5663 87.8685 10.8371 87.8685Z"
                fill="#F57C00"
              />
              <path
                d="M17.3569 94.0032H14.2941C13.5649 94.0032 12.9736 94.5943 12.9736 95.3233C12.9736 96.0524 13.5649 96.6443 14.2941 96.6443H17.3569C18.0861 96.6443 18.6773 96.0524 18.6773 95.3233C18.6773 94.5943 18.0861 94.0032 17.3569 94.0032Z"
                fill="#F57C00"
              />
              <path
                d="M53 106C82.2711 106 106 82.2711 106 53C106 23.7289 82.2711 0 53 0C23.7289 0 0 23.7289 0 53C0 82.2711 23.7289 106 53 106Z"
                fill="url(#paint0_linear_190_149)"
                fill-opacity="0.2"
              />
              <path
                d="M53 103C80.6142 103 103 80.6142 103 53C103 25.3858 80.6142 3 53 3C25.3858 3 3 25.3858 3 53C3 80.6142 25.3858 103 53 103Z"
                fill="url(#paint1_linear_190_149)"
              />
              <path
                d="M62.8461 32.0931C60.6138 30.5569 57.9978 29.7448 55.2807 29.7448C50.2391 29.7448 45.6796 32.5364 43.3813 37.0303C43.0104 37.7559 42.3436 37.6647 41.6931 37.6647C37.675 37.6647 34.1008 40.2181 32.7992 44.0186C32.6842 44.3546 32.4026 44.6231 32.0271 44.7551C29.5185 45.6368 27.9019 48.0174 28.0046 50.6788C28.1297 53.9271 30.8783 56.4669 34.144 56.4669H36.3439V59.1145H34.2017C33.8956 58.2117 33.0406 57.5599 32.0356 57.5599C30.7745 57.5599 29.7485 58.5858 29.7485 59.847C29.7485 61.1082 30.7745 62.1341 32.0356 62.1341C33.0406 62.1341 33.8957 61.4823 34.2017 60.5794H37.0763C37.4809 60.5794 37.8087 60.2514 37.8087 59.847V56.4669H44.4293V66.2446H40.0383C39.7206 65.1544 38.7129 64.3553 37.5215 64.3553C36.0759 64.3553 34.8998 65.5314 34.8998 66.977C34.8998 68.4226 36.0759 69.5986 37.5215 69.5986C38.7129 69.5986 39.7206 68.7995 40.0383 67.7094H45.1617C45.5663 67.7094 45.8941 67.3815 45.8941 66.977V56.4669H52.5047V70.1138C51.1396 70.4441 50.1224 71.6755 50.1224 73.1406C50.1224 74.8581 51.5197 76.2553 53.2371 76.2553C54.9546 76.2553 56.3519 74.8581 56.3519 73.1406C56.3519 71.6754 55.3347 70.444 53.9696 70.1138V56.4669H55.5659C55.9705 56.4669 56.2984 56.139 56.2984 55.7345C56.2984 55.33 55.9705 55.0021 55.5659 55.0021H34.144C31.659 55.0021 29.5614 53.0373 29.4683 50.6223C29.3906 48.6069 30.614 46.8045 32.5129 46.1371C33.3144 45.8554 33.9238 45.2562 34.1851 44.4932C35.2839 41.285 38.301 39.1295 41.6932 39.1295C42.1958 39.1295 43.8564 39.3192 44.6856 37.6973C46.7322 33.6955 50.7919 31.2096 55.2808 31.2096C57.6999 31.2096 60.0288 31.9323 62.0157 33.2997C62.349 33.5291 62.8049 33.4448 63.0342 33.1116C63.2634 32.7784 63.1793 32.3224 62.8461 32.0931ZM32.0356 60.6693C31.5821 60.6693 31.2133 60.3004 31.2133 59.847C31.2133 59.3935 31.5821 59.0247 32.0356 59.0247C32.4891 59.0247 32.8579 59.3935 32.8579 59.847C32.8579 60.3004 32.489 60.6693 32.0356 60.6693ZM37.5215 68.1338C36.8837 68.1338 36.3646 67.6149 36.3646 66.977C36.3646 66.3391 36.8836 65.8202 37.5215 65.8202C38.1593 65.8202 38.6784 66.3391 38.6784 66.977C38.6784 67.6149 38.1594 68.1338 37.5215 68.1338ZM54.887 73.1407C54.887 74.0505 54.1469 74.7906 53.2371 74.7906C52.3275 74.7906 51.5873 74.0505 51.5873 73.1407C51.5873 72.2309 52.3274 71.4908 53.2371 71.4908C54.1469 71.4908 54.887 72.2309 54.887 73.1407Z"
                fill="#6A1B9A"
              />
              <path
                d="M68.2524 55.002H58.9834C58.5788 55.002 58.251 55.3299 58.251 55.7344C58.251 56.1389 58.5788 56.4668 58.9834 56.4668H60.5799V66.9769C60.5799 67.3814 60.9077 67.7093 61.3123 67.7093H66.4356C66.7534 68.7995 67.761 69.5986 68.9525 69.5986C70.398 69.5986 71.5741 68.4225 71.5741 66.9769C71.5741 65.5313 70.398 64.3553 68.9525 64.3553C67.7611 64.3553 66.7534 65.1544 66.4356 66.2445H62.0447V56.4668H68.2524C68.4062 56.4668 68.5597 56.4628 68.7129 56.4554V59.8469C68.7129 60.2514 69.0407 60.5793 69.4453 60.5793H72.3198C72.626 61.4822 73.481 62.1341 74.486 62.1341C75.7471 62.1341 76.7732 61.1081 76.7732 59.8469C76.7732 58.5858 75.7471 57.5598 74.486 57.5598C73.481 57.5598 72.626 58.2116 72.3198 59.1145H70.1777V56.2719C74.6344 55.3655 78.0884 51.448 77.9977 46.7078C77.8955 41.3679 73.439 37.1333 68.0924 37.3279C67.6533 37.3441 67.2272 37.1007 67.0128 36.7086C66.5934 35.941 66.0952 35.2104 65.5317 34.537C65.2721 34.2267 64.8101 34.1857 64.5 34.4453C64.1898 34.7049 64.1487 35.1668 64.4083 35.477C64.9102 36.0769 65.354 36.7274 65.7274 37.4109C66.1903 38.2583 67.0957 38.7935 68.0531 38.7935C68.0837 38.7935 68.1145 38.793 68.1452 38.7919C72.664 38.6284 76.4463 42.2063 76.5331 46.736C76.6208 51.3107 72.7688 55.002 68.2524 55.002ZM68.9524 65.8201C69.5901 65.8201 70.1092 66.339 70.1092 66.9769C70.1092 67.6148 69.5902 68.1337 68.9524 68.1337C68.3145 68.1337 67.7954 67.6148 67.7954 66.9769C67.7954 66.339 68.3145 65.8201 68.9524 65.8201ZM74.486 59.0245C74.9395 59.0245 75.3084 59.3934 75.3084 59.8468C75.3084 60.3002 74.9395 60.6692 74.486 60.6692C74.0325 60.6692 73.6637 60.3002 73.6637 59.8468C73.6637 59.3934 74.0325 59.0245 74.486 59.0245Z"
                fill="#6A1B9A"
              />
              <defs>
                <linearGradient
                  id="paint0_linear_190_149"
                  x1="4.68872"
                  y1="-42.7256"
                  x2="123.853"
                  y2="-31.1135"
                  gradientUnits="userSpaceOnUse"
                >
                  <stop stop-color="white" />
                  <stop offset="0.5" stop-color="white" />
                </linearGradient>
                <linearGradient
                  id="paint1_linear_190_149"
                  x1="7.42332"
                  y1="-37.3072"
                  x2="119.842"
                  y2="-26.3523"
                  gradientUnits="userSpaceOnUse"
                >
                  <stop stop-color="white" stop-opacity="0.8" />
                  <stop offset="0.5" stop-color="white" />
                </linearGradient>
              </defs>
            </svg>