<svg width="106" height="106" viewBox="0 0 106 106" fill="none" xmlns="http://www.w3.org/2000/svg">
<path d="M95.54 7.71167H93.6828V5.85403C93.6828 5.36787 93.2884 4.97363 92.8021 4.97363C92.3167 4.97363 91.9215 5.36787 91.9215 5.85403V7.71167H90.0642C89.578 7.71167 89.1836 8.10591 89.1836 8.59206C89.1836 9.07822 89.578 9.47243 90.0642 9.47243H91.9215V11.3301C91.9215 11.8162 92.3159 12.2104 92.8021 12.2104C93.2884 12.2104 93.6828 11.8162 93.6828 11.3301V9.47243H95.54C96.0255 9.47243 96.4207 9.07822 96.4207 8.59206C96.4207 8.10591 96.0255 7.71167 95.54 7.71167Z" fill="#F57C00"/>
<path d="M10.8371 97.2863C10.1079 97.2863 9.5166 97.8782 9.5166 98.6072V101.671C9.5166 102.4 10.1079 102.992 10.8371 102.992C11.5663 102.992 12.1576 102.4 12.1576 101.671V98.6072C12.1576 97.8782 11.5663 97.2863 10.8371 97.2863Z" fill="#0189FF"/>
<path d="M7.38323 94.2145H4.3205C3.59127 94.2145 3 94.8056 3 95.5346C3 96.2645 3.59127 96.8556 4.3205 96.8556H7.38323C8.11247 96.8556 8.70373 96.2645 8.70373 95.5346C8.70373 94.8056 8.11115 94.2145 7.38323 94.2145Z" fill="#0189FF"/>
<path d="M10.8371 87.8685C10.1079 87.8685 9.5166 88.4597 9.5166 89.1887V92.25C9.5166 92.9798 10.1079 93.5709 10.8371 93.5709C11.5663 93.5709 12.1576 92.9798 12.1576 92.25V89.1887C12.1576 88.4597 11.5663 87.8685 10.8371 87.8685Z" fill="#0189FF"/>
<path d="M17.3569 94.0032H14.2941C13.5649 94.0032 12.9736 94.5943 12.9736 95.3233C12.9736 96.0524 13.5649 96.6443 14.2941 96.6443H17.3569C18.0861 96.6443 18.6773 96.0524 18.6773 95.3233C18.6773 94.5943 18.0861 94.0032 17.3569 94.0032Z" fill="#0189FF"/>
<path d="M53 106C82.2711 106 106 82.2711 106 53C106 23.7289 82.2711 0 53 0C23.7289 0 0 23.7289 0 53C0 82.2711 23.7289 106 53 106Z" fill="url(#paint0_linear_190_97)" fill-opacity="0.2"/>
<path d="M53 103C80.6142 103 103 80.6142 103 53C103 25.3858 80.6142 3 53 3C25.3858 3 3 25.3858 3 53C3 80.6142 25.3858 103 53 103Z" fill="url(#paint1_linear_190_97)"/>
<g clip-path="url(#clip0_190_97)">
<path d="M65.9172 28H32.5837C30.2837 28.0027 28.4197 29.8667 28.417 32.1667V58.8335C28.4168 60.734 29.7026 62.3937 31.5428 62.8685L31.9595 61.2551C30.855 60.9703 30.0832 59.9741 30.0837 58.8335V32.1667C30.0837 30.7859 31.2029 29.6667 32.5837 29.6667H65.9172C67.2979 29.6667 68.4172 30.7859 68.4172 32.1667V33H70.0838V32.1667C70.0811 29.8667 68.2172 28.0027 65.9172 28Z" fill="white"/>
<path d="M33.4167 31.3334H31.75V33H33.4167V31.3334Z" fill="white"/>
<path d="M36.7497 31.3334H35.083V33H36.7497V31.3334Z" fill="white"/>
<path d="M40.0837 31.3334H38.417V33H40.0837V31.3334Z" fill="white"/>
<path d="M77.3393 74.0777L69.4351 66.1735C69.8503 65.4323 70.1824 64.6475 70.4251 63.8335H71.7501V62.1668H70.7835C71.0973 60.1496 70.8554 58.085 70.0835 56.1951V48.0001H68.4168V53.3068C67.9219 52.6746 67.3635 52.0949 66.7501 51.5767V44.6667H65.0835V50.4117C64.55 50.1026 63.9926 49.8364 63.4168 49.6159V41.3334H61.7501V49.1101C61.2009 48.9915 60.644 48.9133 60.0834 48.8759V43H58.4168V48.8759C57.8562 48.9133 57.2993 48.9915 56.7501 49.1101V46.3334H55.0834V49.6159C54.5076 49.8364 53.9503 50.1026 53.4167 50.4117V45.5001H51.7501V51.5767C51.1367 52.0949 50.5783 52.6746 50.0834 53.3068V47.1667H48.4167V56.1951C47.6448 58.085 47.4029 60.1496 47.7167 62.1668H36.75V63.8335H48.075C49.9028 69.9983 56.382 73.5141 62.5467 71.6864C63.7615 71.3262 64.9094 70.7702 65.9451 70.0402L73.661 77.756C73.9864 78.0813 74.5139 78.0813 74.8393 77.756L77.3393 75.256C77.6646 74.9306 77.6646 74.4031 77.3393 74.0777ZM59.2501 70.5002C53.7297 70.4942 49.256 66.0206 49.2501 60.5001C49.2501 54.9773 53.7273 50.5001 59.2501 50.5001C64.7729 50.5001 69.2501 54.9773 69.2501 60.5001C69.2501 66.023 64.7729 70.5002 59.2501 70.5002ZM74.2502 75.9885L67.2401 68.9785C67.6943 68.5493 68.1137 68.0848 68.4943 67.5893L75.5718 74.6668L74.2502 75.9885Z" fill="white"/>
<path d="M59.2504 52.1667C54.6479 52.1667 50.917 55.8977 50.917 60.5001C50.917 65.1025 54.6479 68.8335 59.2504 68.8335C63.8528 68.8335 67.5837 65.1025 67.5837 60.5001C67.5787 55.8998 63.8507 52.1717 59.2504 52.1667ZM59.2504 67.1668C56.8716 67.1638 54.6747 65.8935 53.4853 63.8335H65.0154C63.826 65.8935 61.6291 67.1638 59.2504 67.1668ZM52.8028 62.1668C52.1323 59.6293 53.0276 56.9355 55.0837 55.3043V60.5001H56.7503V54.3243C57.2847 54.108 57.845 53.9624 58.417 53.8909V60.5001H60.0837V53.8909C60.6557 53.9624 61.216 54.108 61.7504 54.3243V60.5001H63.417V55.3043C65.4731 56.9355 66.3684 59.6293 65.6979 62.1668H52.8028Z" fill="white"/>
<path d="M70.9172 34.6667H37.5837C35.2837 34.6695 33.4197 36.5334 33.417 38.8334V65.5002C33.4197 67.8002 35.2837 69.6642 37.5837 69.6669H48.4171V68.0002H37.5837C36.2029 68.0002 35.0837 66.8809 35.0837 65.5002V38.8334C35.0837 37.4527 36.2029 36.3334 37.5837 36.3334H70.9172C72.2979 36.3334 73.4172 37.4527 73.4172 38.8334V65.5002C73.4171 66.1091 73.1949 66.6969 72.7922 67.1536L74.0422 68.2561C74.7138 67.4952 75.0843 66.5151 75.0838 65.5002V38.8334C75.0811 36.5334 73.2172 34.6695 70.9172 34.6667Z" fill="white"/>
<path d="M38.4167 38H36.75V39.6667H38.4167V38Z" fill="white"/>
<path d="M41.7497 38H40.083V39.6667H41.7497V38Z" fill="white"/>
<path d="M45.0837 38H43.417V39.6667H45.0837V38Z" fill="white"/>
<path d="M40.0837 55.5001H38.417V60.5001H40.0837V55.5001Z" fill="white"/>
<path d="M43.4167 50.5001H41.75V60.5002H43.4167V50.5001Z" fill="white"/>
<path d="M46.7497 53.0001H45.083V60.5002H46.7497V53.0001Z" fill="white"/>
</g>
<defs>
<linearGradient id="paint0_linear_190_97" x1="4.68872" y1="-42.7256" x2="123.853" y2="-31.1135" gradientUnits="userSpaceOnUse">
<stop stop-color="#96268E" stop-opacity="0.8"/>
<stop offset="0.5" stop-color="#6A1B9A"/>
</linearGradient>
<linearGradient id="paint1_linear_190_97" x1="7.42332" y1="-37.3072" x2="119.842" y2="-26.3523" gradientUnits="userSpaceOnUse">
<stop stop-color="#96268E" stop-opacity="0.8"/>
<stop offset="0.5" stop-color="#6A1B9A"/>
</linearGradient>
<clipPath id="clip0_190_97">
<rect width="50" height="50" fill="white" transform="translate(28 28)"/>
</clipPath>
</defs>
</svg>
