<svg width="106" height="106" viewBox="0 0 106 106" fill="none" xmlns="http://www.w3.org/2000/svg">
<path d="M95.54 7.71167H93.6828V5.85403C93.6828 5.36787 93.2884 4.97363 92.8021 4.97363C92.3167 4.97363 91.9215 5.36787 91.9215 5.85403V7.71167H90.0642C89.578 7.71167 89.1836 8.10591 89.1836 8.59206C89.1836 9.07822 89.578 9.47243 90.0642 9.47243H91.9215V11.3301C91.9215 11.8162 92.3159 12.2104 92.8021 12.2104C93.2884 12.2104 93.6828 11.8162 93.6828 11.3301V9.47243H95.54C96.0255 9.47243 96.4207 9.07822 96.4207 8.59206C96.4207 8.10591 96.0255 7.71167 95.54 7.71167Z" fill="#F57C00"/>
<path d="M10.8371 97.2863C10.1079 97.2863 9.5166 97.8782 9.5166 98.6072V101.671C9.5166 102.4 10.1079 102.992 10.8371 102.992C11.5663 102.992 12.1576 102.4 12.1576 101.671V98.6072C12.1576 97.8782 11.5663 97.2863 10.8371 97.2863Z" fill="#F57C00"/>
<path d="M7.38323 94.2145H4.3205C3.59127 94.2145 3 94.8056 3 95.5346C3 96.2645 3.59127 96.8556 4.3205 96.8556H7.38323C8.11247 96.8556 8.70373 96.2645 8.70373 95.5346C8.70373 94.8056 8.11115 94.2145 7.38323 94.2145Z" fill="#F57C00"/>
<path d="M10.8371 87.8685C10.1079 87.8685 9.5166 88.4597 9.5166 89.1887V92.25C9.5166 92.9798 10.1079 93.5709 10.8371 93.5709C11.5663 93.5709 12.1576 92.9798 12.1576 92.25V89.1887C12.1576 88.4597 11.5663 87.8685 10.8371 87.8685Z" fill="#F57C00"/>
<path d="M17.3569 94.0032H14.2941C13.5649 94.0032 12.9736 94.5943 12.9736 95.3233C12.9736 96.0524 13.5649 96.6443 14.2941 96.6443H17.3569C18.0861 96.6443 18.6773 96.0524 18.6773 95.3233C18.6773 94.5943 18.0861 94.0032 17.3569 94.0032Z" fill="#F57C00"/>
<path d="M53 106C82.2711 106 106 82.2711 106 53C106 23.7289 82.2711 0 53 0C23.7289 0 0 23.7289 0 53C0 82.2711 23.7289 106 53 106Z" fill="url(#paint0_linear_190_19)" fill-opacity="0.2"/>
<path d="M53 103C80.6142 103 103 80.6142 103 53C103 25.3858 80.6142 3 53 3C25.3858 3 3 25.3858 3 53C3 80.6142 25.3858 103 53 103Z" fill="url(#paint1_linear_190_19)"/>
<path d="M52.9701 36.0295C44.228 36.0295 37.1158 43.1417 37.1158 51.8837C37.1158 54.6805 37.8542 57.4302 39.251 59.8354C40.6059 62.1686 42.5473 64.1317 44.8652 65.5129C45.5446 65.9178 45.9187 66.5761 45.9187 67.3666V71.0181C45.9187 72.3317 46.7856 73.4467 47.9773 73.8211V73.8888C47.9773 76.048 49.7339 77.8048 51.8932 77.8048H54.047C56.2062 77.8048 57.963 76.0481 57.963 73.8888V73.8211C59.1546 73.4466 60.0214 72.3316 60.0214 71.0181V67.3666C60.0214 66.576 60.3956 65.9177 61.0751 65.5129C63.3931 64.1317 65.3345 62.1686 66.6894 59.8354C68.0862 57.4302 68.8245 54.6805 68.8245 51.8837C68.8246 43.1416 61.7123 36.0295 52.9701 36.0295ZM54.0471 76.0469H51.8933C50.7258 76.0469 49.7725 75.1147 49.737 73.9555H56.2035C56.168 75.1147 55.2146 76.0469 54.0471 76.0469ZM57.0841 72.1977H48.8563C48.2059 72.1977 47.6767 71.6685 47.6767 71.018V70.3928H58.2636V71.018C58.2636 71.6685 57.7345 72.1977 57.0841 72.1977ZM60.1755 64.0027C58.9605 64.7266 58.2637 65.9526 58.2637 67.3665V68.6349H47.6767V67.3665C47.6767 65.9526 46.9799 64.7266 45.765 64.0027C41.5144 61.4699 38.8737 56.8263 38.8737 51.8836C38.8737 44.1108 45.1974 37.7872 52.9702 37.7872C60.7432 37.7872 67.0669 44.1108 67.0669 51.8836C67.0668 56.8263 64.4262 61.4699 60.1755 64.0027ZM32.5582 39.9803C32.8008 39.56 33.3381 39.4158 33.7588 39.6586L37.1222 41.6004C37.5426 41.8431 37.6865 42.3806 37.4438 42.801C37.2811 43.0829 36.9856 43.2405 36.6818 43.2405C36.5328 43.2405 36.3817 43.2025 36.2433 43.1227L32.8799 41.1809C32.4595 40.9382 32.3154 40.4006 32.5582 39.9803ZM34.1631 52.6439H30.2793C29.7938 52.6439 29.4004 52.2505 29.4004 51.765C29.4004 51.2796 29.7938 50.8861 30.2793 50.8861H34.1631C34.6485 50.8861 35.042 51.2796 35.042 51.765C35.042 52.2505 34.6485 52.6439 34.1631 52.6439ZM37.4438 60.7292C37.6865 61.1496 37.5426 61.6871 37.1222 61.9298L33.7588 63.8717C33.6204 63.9516 33.4692 63.9896 33.3202 63.9896C33.0164 63.9896 32.721 63.832 32.5582 63.55C32.3155 63.1296 32.4595 62.5921 32.8799 62.3494L36.2433 60.4075C36.6639 60.1648 37.2013 60.3089 37.4438 60.7292ZM62.7357 49.3753H61.792C61.5987 48.6932 61.3277 48.0392 60.9814 47.42L61.6491 46.7524C61.9924 46.4092 61.9925 45.8527 61.6492 45.5095L59.3447 43.2048C59.1799 43.0399 58.9563 42.9474 58.7232 42.9474C58.4901 42.9474 58.2666 43.0399 58.1019 43.2048L57.434 43.8726C56.8144 43.5261 56.1605 43.2551 55.4787 43.0619V42.1183C55.4787 41.6328 55.0853 41.2394 54.5998 41.2394H51.3407C50.8553 41.2394 50.4618 41.6328 50.4618 42.1183V43.0619C49.7797 43.2551 49.1257 43.5261 48.5063 43.8725L47.8388 43.2049C47.4954 42.8616 46.9391 42.8616 46.5957 43.2049L44.291 45.5096C43.9478 45.8528 43.9478 46.4093 44.291 46.7525L44.9587 47.4201C44.6121 48.0397 44.3411 48.6937 44.148 49.3755H43.2047C42.7192 49.3755 42.3258 49.769 42.3258 50.2544V53.5137C42.3258 53.9991 42.7192 54.3926 43.2047 54.3926H44.1481C44.3413 55.0746 44.6123 55.7285 44.9587 56.3479L44.291 57.0155C43.9478 57.3589 43.9479 57.9153 44.291 58.2586L46.5957 60.5633C46.7605 60.7281 46.9842 60.8207 47.2172 60.8207C47.4502 60.8207 47.6739 60.7281 47.8387 60.5632L48.5063 59.8956C49.1259 60.2421 49.7799 60.5131 50.4617 60.7062V61.6497C50.4617 62.1352 50.8552 62.5286 51.3406 62.5286H54.5997C55.0852 62.5286 55.4786 62.1352 55.4786 61.6497V60.7061C56.1605 60.5129 56.8146 60.2419 57.434 59.8955L58.1018 60.5632C58.4451 60.9063 59.0014 60.9064 59.3447 60.5631L61.6492 58.2585C61.9924 57.9153 61.9925 57.3589 61.6492 57.0155L60.9815 56.3479C61.3279 55.7282 61.5989 55.0743 61.7921 54.3926H62.7357C63.2212 54.3926 63.6146 53.9991 63.6146 53.5137V50.2544C63.6146 49.7688 63.2212 49.3753 62.7357 49.3753ZM61.8568 52.6346H61.1004C60.6812 52.6346 60.3204 52.9306 60.2385 53.3416C60.0491 54.2917 59.6794 55.1835 59.1398 55.9922C58.9072 56.3407 58.9531 56.8051 59.2494 57.1014L59.7848 57.6368L58.7231 58.6984L58.1877 58.1631C57.8913 57.8667 57.4269 57.8207 57.0784 58.0536C56.2702 58.593 55.3784 58.9627 54.4279 59.1521C54.0169 59.2341 53.7209 59.5949 53.7209 60.0141V60.7705H52.2196V60.0141C52.2196 59.5948 51.9235 59.234 51.5124 59.1521C50.5623 58.9629 49.6706 58.5933 48.8619 58.0536C48.5135 57.8208 48.0489 57.8667 47.7525 58.1632L47.2173 58.6985L46.1556 57.6368L46.6909 57.1014C46.9872 56.805 47.0331 56.3406 46.8004 55.9921C46.261 55.184 45.8913 54.2923 45.7019 53.3416C45.6199 52.9306 45.2591 52.6346 44.8399 52.6346H44.0837V51.1331H44.8399C45.2592 51.1331 45.62 50.837 45.7019 50.4259C45.8911 49.4759 46.2607 48.5842 46.8004 47.7756C47.0331 47.4271 46.9872 46.9626 46.6909 46.6662L46.1556 46.1309L47.2173 45.0691L47.7525 45.6045C48.049 45.9009 48.5133 45.9467 48.8619 45.7141C49.6699 45.1747 50.5617 44.8051 51.5127 44.6154C51.9237 44.5334 52.2196 44.1727 52.2196 43.7535V42.9971H53.7209V43.7535C53.7209 44.1727 54.0169 44.5335 54.4279 44.6154C55.378 44.8048 56.2698 45.1745 57.0784 45.7141C57.4272 45.9468 57.8914 45.9009 58.1877 45.6045L58.7231 45.069L59.7848 46.1308L59.2493 46.6662C58.9528 46.9627 58.907 47.4271 59.1398 47.7758C59.679 48.5833 60.0487 49.475 60.2385 50.4262C60.3205 50.8371 60.6813 51.1331 61.1004 51.1331H61.8568V52.6346ZM52.9699 45.9269C49.6853 45.9269 47.0131 48.5992 47.0131 51.8839C47.0131 55.1686 49.6853 57.8408 52.9699 57.8408C56.2547 57.8408 58.927 55.1686 58.927 51.8839C58.927 48.5992 56.2547 45.9269 52.9699 45.9269ZM52.9699 56.083C50.6546 56.083 48.7709 54.1993 48.7709 51.8839C48.7709 49.5685 50.6546 47.6847 52.9699 47.6847C55.2854 47.6847 57.1691 49.5685 57.1691 51.8839C57.1691 54.1993 55.2854 56.083 52.9699 56.083ZM68.4967 42.801C68.254 42.3806 68.3979 41.8431 68.8184 41.6004L72.1815 39.6586C72.6021 39.4158 73.1395 39.5601 73.3821 39.9803C73.6248 40.4007 73.4809 40.9382 73.0605 41.1809L69.6973 43.1227C69.5589 43.2025 69.4077 43.2406 69.2587 43.2406C68.9548 43.2405 68.6595 43.0829 68.4967 42.801ZM76.5993 51.7811C76.5993 52.2665 76.2059 52.66 75.7204 52.66H71.8366C71.3512 52.66 70.9577 52.2665 70.9577 51.7811C70.9577 51.2956 71.3512 50.9021 71.8366 50.9021H75.7204C76.2059 50.9021 76.5993 51.2956 76.5993 51.7811ZM73.3821 63.55C73.2193 63.832 72.9239 63.9896 72.6201 63.9896C72.4711 63.9896 72.3199 63.9516 72.1815 63.8717L68.8184 61.9298C68.3979 61.6871 68.254 61.1496 68.4967 60.7292C68.7393 60.3088 69.2768 60.1647 69.6973 60.4075L73.0605 62.3494C73.4809 62.5922 73.6248 63.1297 73.3821 63.55ZM52.0912 32.9579V29.0742C52.0912 28.5888 52.4847 28.1953 52.9701 28.1953C53.4556 28.1953 53.849 28.5888 53.849 29.0742V32.9579C53.849 33.4434 53.4556 33.8368 52.9701 33.8368C52.4847 33.8368 52.0912 33.4433 52.0912 32.9579ZM40.8636 32.5537C40.6209 32.1333 40.7648 31.5958 41.1853 31.3531C41.6055 31.1104 42.1431 31.2545 42.3858 31.6747L44.3279 35.038C44.5706 35.4584 44.4267 35.9959 44.0062 36.2386C43.8679 36.3185 43.7167 36.3565 43.5677 36.3565C43.264 36.3565 42.9685 36.1989 42.8057 35.917L40.8636 32.5537ZM61.6128 35.0382L63.5545 31.6749C63.7972 31.2546 64.3343 31.1104 64.7551 31.3531C65.1755 31.5958 65.3194 32.1333 65.0768 32.5537L63.1351 35.917C62.9723 36.1989 62.6769 36.3566 62.373 36.3566C62.224 36.3566 62.0729 36.3187 61.9345 36.2388C61.5142 35.996 61.3701 35.4585 61.6128 35.0382Z" fill="#6A1B9A"/>
<defs>
<linearGradient id="paint0_linear_190_19" x1="4.68872" y1="-42.7256" x2="123.853" y2="-31.1135" gradientUnits="userSpaceOnUse">
<stop stop-color="white"/>
<stop offset="0.5" stop-color="white"/>
</linearGradient>
<linearGradient id="paint1_linear_190_19" x1="7.42332" y1="-37.3072" x2="119.842" y2="-26.3523" gradientUnits="userSpaceOnUse">
<stop stop-color="white"/>
<stop offset="0.5" stop-color="white"/>
</linearGradient>
</defs>
</svg>
