<svg width="106" height="106" viewBox="0 0 106 106" fill="none" xmlns="http://www.w3.org/2000/svg">
<path d="M95.54 7.71167H93.6828V5.85403C93.6828 5.36787 93.2884 4.97363 92.8021 4.97363C92.3167 4.97363 91.9215 5.36787 91.9215 5.85403V7.71167H90.0642C89.578 7.71167 89.1836 8.10591 89.1836 8.59206C89.1836 9.07822 89.578 9.47243 90.0642 9.47243H91.9215V11.3301C91.9215 11.8162 92.3159 12.2104 92.8021 12.2104C93.2884 12.2104 93.6828 11.8162 93.6828 11.3301V9.47243H95.54C96.0255 9.47243 96.4207 9.07822 96.4207 8.59206C96.4207 8.10591 96.0255 7.71167 95.54 7.71167Z" fill="#F57C00"/>
<path d="M10.8371 97.2863C10.1079 97.2863 9.5166 97.8782 9.5166 98.6072V101.671C9.5166 102.4 10.1079 102.992 10.8371 102.992C11.5663 102.992 12.1576 102.4 12.1576 101.671V98.6072C12.1576 97.8782 11.5663 97.2863 10.8371 97.2863Z" fill="#0189FF"/>
<path d="M7.38323 94.2145H4.3205C3.59127 94.2145 3 94.8056 3 95.5346C3 96.2645 3.59127 96.8556 4.3205 96.8556H7.38323C8.11247 96.8556 8.70373 96.2645 8.70373 95.5346C8.70373 94.8056 8.11115 94.2145 7.38323 94.2145Z" fill="#0189FF"/>
<path d="M10.8371 87.8685C10.1079 87.8685 9.5166 88.4597 9.5166 89.1887V92.25C9.5166 92.9798 10.1079 93.5709 10.8371 93.5709C11.5663 93.5709 12.1576 92.9798 12.1576 92.25V89.1887C12.1576 88.4597 11.5663 87.8685 10.8371 87.8685Z" fill="#0189FF"/>
<path d="M17.3569 94.0032H14.2941C13.5649 94.0032 12.9736 94.5943 12.9736 95.3233C12.9736 96.0524 13.5649 96.6443 14.2941 96.6443H17.3569C18.0861 96.6443 18.6773 96.0524 18.6773 95.3233C18.6773 94.5943 18.0861 94.0032 17.3569 94.0032Z" fill="#0189FF"/>
<path d="M53 106C82.2711 106 106 82.2711 106 53C106 23.7289 82.2711 0 53 0C23.7289 0 0 23.7289 0 53C0 82.2711 23.7289 106 53 106Z" fill="url(#paint0_linear_190_33)" fill-opacity="0.2"/>
<path d="M53 103C80.6142 103 103 80.6142 103 53C103 25.3858 80.6142 3 53 3C25.3858 3 3 25.3858 3 53C3 80.6142 25.3858 103 53 103Z" fill="url(#paint1_linear_190_33)"/>
<g clip-path="url(#clip0_190_33)">
<path d="M50.2656 46.75H28.7812C28.3125 46.75 28 46.3594 28 45.9688V40.9688C28 38.7813 29.7969 36.9062 32.0625 36.9062H52.9219C53.3906 36.9062 53.7031 37.2969 53.7031 37.6875C53.7031 38.0781 53.3125 38.4688 52.9219 38.4688H31.9844C30.6562 38.4688 29.5625 39.5625 29.5625 40.8906V45.1094H50.2656C50.7344 45.1094 51.0469 45.5 51.0469 45.8906C51.0469 46.2812 50.7344 46.75 50.2656 46.75Z" fill="white"/>
<path d="M31.9844 75.6562C30.8906 75.6562 29.875 75.2656 29.1719 74.4844C28.3906 73.7031 28 72.6875 28 71.5938V45.8906C28 45.4219 28.3906 45.1094 28.7812 45.1094H50.2656C50.7344 45.1094 51.0469 45.5 51.0469 45.8906C51.0469 46.2812 50.6562 46.6719 50.2656 46.6719H29.5625V71.5156C29.5625 72.1406 29.7969 72.7656 30.2656 73.2344C30.7344 73.7031 31.3594 73.9375 31.9844 73.9375H68.625C69.9531 73.9375 71.0469 72.8438 71.0469 71.5156V55.8906C71.0469 55.4219 71.4375 55.1094 71.8281 55.1094C72.2188 55.1094 72.6094 55.5 72.6094 55.8906V71.5156C72.6094 73.7031 70.8125 75.5781 68.5469 75.5781H31.9844V75.6562Z" fill="white"/>
<path d="M35.0312 42.6094H33.3125C32.8437 42.6094 32.5312 42.2188 32.5312 41.8281C32.5312 41.4375 32.9219 41.0469 33.3125 41.0469H35.0312C35.5 41.0469 35.8125 41.4375 35.8125 41.8281C35.8125 42.2188 35.5 42.6094 35.0312 42.6094Z" fill="white"/>
<path d="M38.8594 42.6094H37.1406C36.6719 42.6094 36.3594 42.2188 36.3594 41.8281C36.3594 41.4375 36.75 41.0469 37.1406 41.0469H38.8594C39.3281 41.0469 39.6406 41.4375 39.6406 41.8281C39.6406 42.2188 39.3281 42.6094 38.8594 42.6094Z" fill="white"/>
<path d="M42.6875 42.6094H40.9688C40.5 42.6094 40.1875 42.2188 40.1875 41.8281C40.1875 41.4375 40.5781 41.0469 40.9688 41.0469H42.6875C43.1562 41.0469 43.4687 41.4375 43.4687 41.8281C43.4687 42.2188 43.1562 42.6094 42.6875 42.6094Z" fill="white"/>
<path d="M47.2188 60.8906H35.8125C34.4844 60.8906 33.3906 59.7969 33.3906 58.4687V51.6719C33.3906 50.3437 34.4844 49.25 35.8125 49.25H47.2188C48.5469 49.25 49.6406 50.3437 49.6406 51.6719V58.4687C49.6406 59.7969 48.5469 60.8906 47.2188 60.8906ZM47.2188 50.8125H35.8125C35.3437 50.8125 35.0312 51.2031 35.0312 51.5938V58.4687C35.0312 58.9375 35.4219 59.25 35.8125 59.25H47.2188C47.6875 59.25 48 58.8594 48 58.4687V51.6719C48 51.2031 47.6094 50.8125 47.2188 50.8125Z" fill="white"/>
<path d="M55.4219 56.0469H54.5625C54.0937 56.0469 53.7812 55.6562 53.7812 55.2656C53.7812 54.875 54.1719 54.4844 54.5625 54.4844H55.4219C55.8906 54.4844 56.2031 54.875 56.2031 55.2656C56.2031 55.6562 55.8125 56.0469 55.4219 56.0469Z" fill="white"/>
<path d="M66.9062 61.2031H54.5625C54.0937 61.2031 53.7812 60.8125 53.7812 60.4219C53.7812 60.0312 54.1719 59.6406 54.5625 59.6406H66.9062C67.375 59.6406 67.6875 60.0312 67.6875 60.4219C67.6875 60.8125 67.2969 61.2031 66.9062 61.2031Z" fill="white"/>
<path d="M66.9062 66.3594H33.7813C33.3125 66.3594 33 65.9688 33 65.5781C33 65.1875 33.3906 64.7969 33.7813 64.7969H66.9062C67.375 64.7969 67.6875 65.1875 67.6875 65.5781C67.6875 65.9688 67.2969 66.3594 66.9062 66.3594Z" fill="white"/>
<path d="M66.9062 71.5156H33.7813C33.3125 71.5156 33 71.125 33 70.7344C33 70.3438 33.3906 69.9531 33.7813 69.9531H66.9062C67.375 69.9531 67.6875 70.3438 67.6875 70.7344C67.6875 71.125 67.2969 71.5156 66.9062 71.5156Z" fill="white"/>
<path d="M65.8125 56.3594H64.5625C63.5469 56.3594 62.6875 55.5781 62.5313 54.6406L62.2187 52.6875C62.2187 52.5312 62.0625 52.4531 61.9844 52.375C61.6719 52.2969 61.4375 52.1406 61.125 52.0625C60.9688 51.9844 60.8906 51.9844 60.7344 52.0625L59.1719 53.2344C58.3906 53.7812 57.2188 53.7031 56.5156 53L55.5781 52.0625C54.875 51.3594 54.7969 50.2656 55.3438 49.4062L56.5156 47.8438C56.5938 47.6875 56.5938 47.5312 56.5156 47.4531C56.3594 47.2188 56.2812 46.9062 56.125 46.5938C56.0469 46.4375 55.9687 46.3594 55.8125 46.3594L53.9375 46.0469C52.9219 45.8906 52.2188 45.0312 52.2188 44.0156V42.6875C52.2188 41.6719 52.9219 40.8125 53.9375 40.6563L55.8125 40.3438C55.9687 40.3438 56.0469 40.1875 56.125 40.1094C56.2031 39.7969 56.3594 39.5625 56.5156 39.25C56.5938 39.0938 56.5938 38.9375 56.5156 38.8594L55.3438 37.2969C54.7188 36.5156 54.875 35.4219 55.5 34.6406L56.4375 33.7031C57.1406 33 58.3125 32.9219 59.0937 33.5469L60.5781 34.7188C60.7344 34.875 60.8906 34.7969 60.9688 34.7188C61.2813 34.5625 61.5156 34.4844 61.8281 34.3281C61.9844 34.25 62.0625 34.1719 62.1406 34.0156L62.4531 32.0625C62.6875 31.125 63.5469 30.3438 64.5625 30.3438H65.8125C66.8281 30.3438 67.6875 31.125 67.8438 32.0625L68.1563 34.0156C68.1563 34.1719 68.3125 34.25 68.3906 34.3281C68.7031 34.4063 68.9375 34.5625 69.25 34.6406C69.4062 34.7188 69.4844 34.7188 69.6406 34.6406L71.2031 33.4688C71.9844 32.8438 73.1562 33 73.8594 33.7031L74.7969 34.6406C75.5 35.3438 75.5781 36.4375 75.0312 37.2969L73.8594 38.8594C73.7812 39.0156 73.7812 39.1719 73.8594 39.25C74.0156 39.4844 74.0938 39.7969 74.25 40.1094C74.3281 40.2656 74.4062 40.3438 74.5625 40.3438L76.4375 40.6563C77.4531 40.8125 78.1562 41.6719 78.1562 42.6875V44.0156C78.1562 45.0312 77.4531 45.8906 76.4375 46.0469L74.5625 46.3594C74.4062 46.3594 74.3281 46.5156 74.25 46.5938C74.1719 46.9062 74.0156 47.1406 73.9375 47.4531C73.8594 47.6094 73.8594 47.7656 73.9375 47.9219L75.1094 49.4844C75.6562 50.2656 75.5781 51.3594 74.9531 52.1406L73.7812 53C73.0781 53.7031 71.9062 53.7812 71.125 53.1562L69.6406 51.9844C69.4844 51.8281 69.3281 51.9062 69.25 51.9844C68.9375 52.1406 68.7031 52.2188 68.3906 52.375C68.2344 52.4531 68.1563 52.5312 68.1563 52.6875L67.8438 54.6406C67.6875 55.5781 66.8281 56.3594 65.8125 56.3594ZM60.8906 50.3438C61.2031 50.3438 61.5156 50.4219 61.75 50.5781C61.9844 50.6562 62.2187 50.8125 62.4531 50.8906C63.1562 51.125 63.625 51.75 63.7812 52.4531L64.0938 54.4062C64.0938 54.6406 64.3281 54.7969 64.4844 54.7969H65.7344C65.9687 54.7969 66.125 54.6406 66.125 54.4844L66.4375 52.5312C66.5156 51.8281 67.0625 51.2031 67.7656 50.9688C68 50.8906 68.2344 50.8125 68.4688 50.6562C69.0938 50.3438 69.9531 50.4219 70.5781 50.8906L72.1406 52.0625C72.375 52.2188 72.5312 52.1406 72.6875 51.9844L73.625 51.0469C73.7813 50.8906 73.7813 50.6562 73.625 50.5L72.4531 48.9375C71.9844 48.3125 71.9062 47.5312 72.2187 46.9062C72.2969 46.6719 72.4531 46.4375 72.5312 46.2031C72.7656 45.5 73.3906 44.9531 74.0938 44.875L75.9688 44.5625C76.2031 44.5625 76.2812 44.3281 76.2812 44.1719V42.8438C76.2812 42.6094 76.125 42.4531 75.9688 42.4531L74.0938 42.1406C73.3906 42.0625 72.7656 41.5156 72.5312 40.8125C72.4531 40.5781 72.375 40.3438 72.2187 40.1094C71.9062 39.4062 71.9844 38.625 72.375 38L73.5469 36.4375C73.7031 36.2812 73.625 36.0469 73.5469 35.8906L72.6094 34.9531C72.5312 34.875 72.375 34.7969 72.2969 34.7969C72.2188 34.7969 72.1406 34.7969 72.0625 34.875L70.5781 36.0469C70.0312 36.5156 69.1719 36.5938 68.4688 36.2813C68.2344 36.2031 68 36.0469 67.7656 35.9688C67.0625 35.7344 66.5938 35.1094 66.4375 34.4062L66.125 32.4531C66.125 32.2187 65.8906 32.0625 65.7344 32.0625H64.4844C64.25 32.0625 64.0938 32.2187 64.0938 32.375L63.8594 34.25C63.7813 34.9531 63.2344 35.5781 62.5313 35.8125C62.2969 35.8906 62.0625 35.9687 61.8281 36.125C61.2031 36.4375 60.3437 36.3594 59.7187 35.8906L58.1562 34.7188C57.9219 34.4844 57.7656 34.6406 57.6094 34.7969L56.6719 35.7344C56.5156 35.8906 56.5156 36.125 56.6719 36.2813L57.8438 37.8438C58.2344 38.4688 58.3125 39.25 58 39.875C57.9219 40.1094 57.7656 40.3438 57.6875 40.5781C57.4531 41.2812 56.8281 41.8281 56.125 41.9062L54.25 42.2188C54.0156 42.2188 53.9375 42.4531 53.9375 42.6094V43.9375C53.9375 44.1719 54.0937 44.3281 54.25 44.3281L56.125 44.6406C56.8281 44.7187 57.4531 45.2656 57.6875 45.9688C57.7656 46.2031 57.8438 46.4375 58 46.6719C58.3125 47.375 58.2344 48.1562 57.7656 48.7812L56.5937 50.3438C56.4375 50.5 56.5156 50.7344 56.5937 50.8906L57.5312 51.8281C57.6875 51.9844 57.8438 52.0625 58.0781 51.9062L59.6406 50.7344C60.0312 50.5 60.5 50.3438 60.8906 50.3438Z" fill="white"/>
<path d="M65.1875 48.5469C62.2969 48.5469 59.9531 46.2031 59.9531 43.3125C59.9531 40.4219 62.2969 38.0781 65.1875 38.0781C68.0781 38.0781 70.4219 40.4219 70.4219 43.3125C70.4219 46.2031 68.0781 48.5469 65.1875 48.5469ZM65.1875 39.7188C63.1562 39.7188 61.5937 41.3594 61.5937 43.3125C61.5937 45.3438 63.2344 46.9063 65.1875 46.9063C67.1406 46.9063 68.7812 45.2656 68.7812 43.3125C68.7812 41.3594 67.1406 39.7188 65.1875 39.7188Z" fill="white"/>
</g>
<defs>
<linearGradient id="paint0_linear_190_33" x1="4.68872" y1="-42.7256" x2="123.853" y2="-31.1135" gradientUnits="userSpaceOnUse">
<stop stop-color="#96268E" stop-opacity="0.8"/>
<stop offset="0.5" stop-color="#6A1B9A"/>
</linearGradient>
<linearGradient id="paint1_linear_190_33" x1="7.42332" y1="-37.3072" x2="119.842" y2="-26.3523" gradientUnits="userSpaceOnUse">
<stop stop-color="#96268E" stop-opacity="0.8"/>
<stop offset="0.5" stop-color="#6A1B9A"/>
</linearGradient>
<clipPath id="clip0_190_33">
<rect width="50" height="50" fill="white" transform="translate(28 28)"/>
</clipPath>
</defs>
</svg>
