<svg width="50" height="50" viewBox="0 0 50 50" fill="none" xmlns="http://www.w3.org/2000/svg">
<circle cx="25" cy="25" r="20" fill="white"/>
<path d="M25 1.5625C20.3645 1.5625 15.8331 2.93709 11.9788 5.51243C8.12456 8.08778 5.12051 11.7482 3.34658 16.0309C1.57266 20.3135 1.10851 25.026 2.01286 29.5724C2.9172 34.1189 5.1494 38.295 8.4272 41.5728C11.705 44.8506 15.8812 47.0828 20.4276 47.9872C24.974 48.8915 29.6865 48.4274 33.9692 46.6534C38.2518 44.8795 41.9122 41.8755 44.4876 38.0212C47.0629 34.1669 48.4375 29.6355 48.4375 25C48.4375 18.784 45.9682 12.8226 41.5728 8.42719C37.1774 4.0318 31.216 1.5625 25 1.5625ZM26.0047 15.9594C28.1352 15.9619 30.1777 16.8093 31.6842 18.3158C33.1907 19.8223 34.0382 21.8648 34.0406 23.9953H32.0313C32.0296 22.3975 31.3941 20.8656 30.2643 19.7357C29.1345 18.6059 27.6025 17.9704 26.0047 17.9688V15.9594ZM32.5125 39.0625C32.4516 39.0625 26.4188 38.9594 18.6609 31.3391C11.0406 23.5844 10.9375 17.5484 10.9375 17.4875C10.9375 16.7359 15.625 10.9375 16.6609 10.9375C17.0203 10.9375 17.3 11.1812 17.6063 11.5469C18.3438 12.425 21.6047 17.5719 21.4547 18.4297C21.3828 18.8328 21.0406 19.1391 20.0594 19.9625C19.5759 20.3426 19.1234 20.7606 18.7063 21.2125C18.906 22.0394 19.2029 22.8397 19.5906 23.5969C21.0352 26.5671 23.4354 28.9662 26.4063 30.4094C27.1634 30.7971 27.9638 31.094 28.7906 31.2938C29.2426 30.8766 29.6605 30.4241 30.0406 29.9406C30.8641 28.9594 31.1703 28.6172 31.5735 28.5453C32.4313 28.3891 37.5781 31.6562 38.4563 32.3938C38.8219 32.7063 39.0656 32.9797 39.0656 33.3391C39.0625 34.375 33.2641 39.0625 32.5125 39.0625ZM37.0531 23.9953C37.0498 21.0661 35.8847 18.2578 33.8135 16.1865C31.7422 14.1153 28.9339 12.9502 26.0047 12.9469V10.9375C29.4666 10.9416 32.7855 12.3187 35.2334 14.7666C37.6813 17.2145 39.0584 20.5334 39.0625 23.9953H37.0531Z" fill="#64B161"/>
</svg>
