<svg width="50" height="50" viewBox="0 0 50 50" fill="none" xmlns="http://www.w3.org/2000/svg">
<g clip-path="url(#clip0_1_1662)">
<path d="M1.16155 50C0.880789 50 0.607656 49.889 0.405096 49.6841C0.138067 49.4141 0.0350703 49.0219 0.135397 48.6553L3.3859 36.7855C1.3622 33.1261 0.295233 28.9864 0.296758 24.7841C0.302481 11.1179 11.4238 0 25.0889 0C31.7169 0.00267029 37.9448 2.58446 42.6258 7.26891C47.306 11.9537 49.8825 18.1812 49.8806 24.8039C49.8745 38.4705 38.7531 49.5892 25.0889 49.5892C25.0889 49.5892 25.0786 49.5892 25.0782 49.5892C21.0869 49.5876 17.1299 48.6149 13.6066 46.7724L1.43125 49.9653C1.34199 49.9886 1.2512 50 1.16155 50Z" fill="#E5E5E5"/>
<path d="M1.16211 48.9361L4.5282 36.644C2.45186 33.0463 1.35971 28.9654 1.36124 24.7845C1.36658 11.705 12.0103 1.0639 25.0894 1.0639C31.4363 1.06657 37.3937 3.53697 41.8737 8.02077C46.3533 12.5046 48.8195 18.4646 48.8172 24.8035C48.8115 37.8826 38.1662 48.5252 25.0894 48.5252C25.0887 48.5252 25.0898 48.5252 25.0894 48.5252H25.0791C21.108 48.5237 17.2063 47.5277 13.7407 45.6375L1.16211 48.9361ZM14.3232 41.3433L15.0438 41.7702C18.0711 43.5669 21.5421 44.5171 25.0818 44.519H25.0894C35.959 44.519 44.8061 35.6735 44.8106 24.802C44.8125 19.5335 42.7633 14.5794 39.0398 10.8528C35.3159 7.12622 30.3648 5.07277 25.0967 5.07048C14.2183 5.07048 5.37163 13.9149 5.36743 24.786C5.36591 28.5114 6.40808 32.1392 8.38257 35.2787L8.85178 36.0248L6.85898 43.3002L14.3232 41.3433Z" fill="white"/>
<path d="M1.9873 48.1079L5.23705 36.2407C3.23204 32.7678 2.17804 28.8276 2.17918 24.7921C2.18414 12.1654 12.4598 1.89282 25.0853 1.89282C31.2132 1.89549 36.9646 4.28044 41.2886 8.60898C45.6137 12.9375 47.9941 18.6912 47.9918 24.81C47.9864 37.437 37.7104 47.7108 25.0864 47.7108C25.0853 47.7108 25.0868 47.7108 25.0864 47.7108H25.0761C21.2428 47.7092 17.4757 46.7472 14.1302 44.9238L1.9873 48.1079Z" fill="#64B161"/>
<path d="M1.16211 48.9361L4.5282 36.644C2.45186 33.0463 1.35971 28.9654 1.36124 24.7845C1.36658 11.705 12.0103 1.0639 25.0894 1.0639C31.4363 1.06657 37.3937 3.53697 41.8737 8.02077C46.3533 12.5046 48.8195 18.4646 48.8172 24.8035C48.8115 37.8826 38.1662 48.5252 25.0894 48.5252C25.0887 48.5252 25.0898 48.5252 25.0894 48.5252H25.0791C21.108 48.5237 17.2063 47.5277 13.7407 45.6375L1.16211 48.9361ZM14.3232 41.3433L15.0438 41.7702C18.0711 43.5669 21.5421 44.5171 25.0818 44.519H25.0894C35.959 44.519 44.8061 35.6735 44.8106 24.802C44.8125 19.5335 42.7633 14.5794 39.0398 10.8528C35.3159 7.12622 30.3648 5.07277 25.0967 5.07048C14.2183 5.07048 5.37163 13.9149 5.36743 24.786C5.36591 28.5114 6.40808 32.1392 8.38257 35.2787L8.85178 36.0248L6.85898 43.3002L14.3232 41.3433Z" fill="white"/>
<path fill-rule="evenodd" clip-rule="evenodd" d="M19.159 14.8678C18.715 13.8805 18.2473 13.8607 17.8246 13.8435C17.479 13.8287 17.0834 13.8294 16.6886 13.8294C16.2934 13.8294 15.651 13.9782 15.1078 14.5714C14.5642 15.1646 13.0322 16.5989 13.0322 19.516C13.0322 22.4335 15.157 25.2521 15.4534 25.6481C15.7498 26.0437 19.555 32.2212 25.5811 34.5978C30.5894 36.573 31.6083 36.1801 32.6955 36.0813C33.7827 35.9825 36.2031 34.647 36.6971 33.2626C37.1915 31.8783 37.1915 30.6919 37.0431 30.4436C36.8947 30.1968 36.4995 30.0484 35.9067 29.752C35.3139 29.4556 32.3991 28.0208 31.8555 27.8232C31.3119 27.6253 30.9167 27.5268 30.5215 28.1204C30.1259 28.7132 28.9906 30.0484 28.6446 30.4436C28.2986 30.8399 27.9527 30.8895 27.3598 30.5927C26.767 30.2956 24.8574 29.6699 22.5922 27.6501C20.8298 26.0788 19.6397 24.1379 19.2937 23.5443C18.9481 22.9515 19.2879 22.6585 19.5542 22.3347C20.0337 21.7514 20.8382 20.7027 21.0358 20.3075C21.2334 19.9116 21.1346 19.5656 20.9866 19.2688C20.8382 18.9724 19.6858 16.0404 19.159 14.8678Z" fill="white"/>
</g>
<defs>
<clipPath id="clip0_1_1662">
<rect width="50" height="50" fill="white"/>
</clipPath>
</defs>
</svg>
